<?xml version="1.0" encoding="UTF-8" standalone="no"?>
<svg
   xmlns:dc="http://purl.org/dc/elements/1.1/"
   xmlns:cc="http://creativecommons.org/ns#"
   xmlns:rdf="http://www.w3.org/1999/02/22-rdf-syntax-ns#"
   xmlns:svg="http://www.w3.org/2000/svg"
   xmlns="http://www.w3.org/2000/svg"
   xmlns:sodipodi="http://sodipodi.sourceforge.net/DTD/sodipodi-0.dtd"
   xmlns:inkscape="http://www.inkscape.org/namespaces/inkscape"
   inkscape:export-ydpi="300"
   inkscape:export-xdpi="300"
   inkscape:export-filename="C:\Users\Enze\Documents\GitHub\mi-book\assets\fig\week_1\01\crystal_family.png"
   sodipodi:docname="crystal_family.svg"
   inkscape:version="1.0 (4035a4fb49, 2020-05-01)"
   id="svg986"
   version="1.1"
   viewBox="0 0 300 70"
   height="70mm"
   width="300mm">
  <defs
     id="defs980">
    <rect
       id="rect1632"
       height="6.9925594"
       width="70.303574"
       y="157.2381"
       x="4.5357141" />
    <marker
       refX="0"
       refY="0"
       orient="auto"
       style="overflow:visible"
       id="Dot_m">
      <path
         d="M -2.5,-1 C -2.5,1.76 -4.74,4 -7.5,4 C -10.26,4 -12.5,1.76 -12.5,-1 C -12.5,-3.76 -10.26,-6 -7.5,-6 C -4.74,-6 -2.5,-3.76 -2.5,-1 z "
         transform="matrix(0.4,0,0,0.4,2.96,0.4)"
         style="fill-rule:evenodd;stroke:#000000;stroke-width:1pt;marker-start:none;marker-end:none"
         id="path3527" />
    </marker>
    <marker
       refX="0"
       refY="0"
       orient="auto"
       style="overflow:visible"
       id="Dot_m-5">
      <path
         d="M -2.5,-1 C -2.5,1.76 -4.74,4 -7.5,4 C -10.26,4 -12.5,1.76 -12.5,-1 C -12.5,-3.76 -10.26,-6 -7.5,-6 C -4.74,-6 -2.5,-3.76 -2.5,-1 z "
         transform="matrix(0.4,0,0,0.4,2.96,0.4)"
         style="fill-rule:evenodd;stroke:#000000;stroke-width:1pt;marker-start:none;marker-end:none"
         id="path3527-0" />
    </marker>
  </defs>
  <sodipodi:namedview
     inkscape:window-maximized="1"
     inkscape:window-y="-9"
     inkscape:window-x="2391"
     inkscape:window-height="1271"
     inkscape:window-width="2400"
     showgrid="false"
     inkscape:document-rotation="0"
     inkscape:current-layer="layer1"
     inkscape:document-units="mm"
     inkscape:cy="85.073308"
     inkscape:cx="569.63365"
     inkscape:zoom="1.4"
     inkscape:pageshadow="2"
     inkscape:pageopacity="0.0"
     borderopacity="1.0"
     bordercolor="#666666"
     pagecolor="#ffffff"
     id="base" />
  <metadata
     id="metadata983">
    <rdf:RDF>
      <cc:Work
         rdf:about="">
        <dc:format>image/svg+xml</dc:format>
        <dc:type
           rdf:resource="http://purl.org/dc/dcmitype/StillImage" />
        <dc:title></dc:title>
      </cc:Work>
    </rdf:RDF>
  </metadata>
  <g
     id="layer1"
     inkscape:groupmode="layer"
     inkscape:label="Layer 1">
    <text
       transform="translate(-3.1405815,-93.669587)"
       style="font-style:normal;font-variant:normal;font-weight:normal;font-stretch:normal;font-size:4.93889px;line-height:1.25;font-family:sans-serif;-inkscape-font-specification:'sans-serif, Normal';font-variant-ligatures:normal;font-variant-caps:normal;font-variant-numeric:normal;font-feature-settings:normal;text-align:start;letter-spacing:0px;word-spacing:0px;writing-mode:lr-tb;white-space:pre;shape-inside:url(#rect1632);fill:#000000;fill-opacity:1;stroke:none"
       id="text1630"
       xml:space="preserve"><tspan
         x="4.5351562"
         y="161.60804"><tspan
           style="font-style:normal;font-variant:normal;font-weight:normal;font-stretch:normal;font-size:4.93889px;font-family:Roboto;-inkscape-font-specification:'Roboto, Normal';font-variant-ligatures:normal;font-variant-caps:normal;font-variant-numeric:normal;font-variant-east-asian:normal;fill:#a1a1a1;fill-opacity:1">Sources: Wikipedia</tspan></tspan></text>
    <g
       id="g3834"
       transform="matrix(0.32911955,0,0,0.32911955,3.0094469,-6.280939)">
      <path
         d="m 30.887018,149.77222 c -1.03411,1.63194 -3.19786,2.11714 -4.82981,1.08303 -1.63194,-1.03411 -2.11714,-3.19786 -1.08303,-4.82981 1.03411,-1.63194 3.19787,-2.11714 4.82981,-1.08303 1.63194,1.03411 2.11714,3.19787 1.08303,4.82981 z"
         style="fill:#000000;fill-rule:evenodd;stroke:none;stroke-width:0.7pt;marker-start:none;marker-end:none"
         id="path3625" />
      <path
         d="m 87.298547,111.34523 c 1.22237,1.49614 1.00016,3.70247 -0.49599,4.92483 -1.49614,1.22236 -3.70247,1.00016 -4.92483,-0.49599 -1.22236,-1.49615 -1.00016,-3.70247 0.49599,-4.92483 1.49615,-1.22236 3.70247,-1.00016 4.92483,0.49599 z"
         style="fill:#c0c0c0;fill-opacity:1;fill-rule:evenodd;stroke:none;stroke-width:0.7pt;marker-start:none;marker-end:none"
         id="path3635" />
      <path
         d="m 101.18139,147.87377 0.0312,-0.28125 -0.125,-0.28125 -16.218753,-34.375 -0.25,-0.5 h -0.53125 -71.872778 -0.71875 l -0.15625,0.71875 1.59375,1.03125 h 70.591528 l 15.875,33.625 1.781253,0.0625 z"
         style="fill:#c0c0c0;fill-opacity:1;fill-rule:evenodd;stroke:none;stroke-width:1.75;stroke-linecap:butt;stroke-linejoin:miter;stroke-miterlimit:4;stroke-dasharray:none;stroke-opacity:1"
         id="path3637" />
      <path
         d="M 101.53774,29.289095 84.826867,112.84347"
         style="fill:none;fill-rule:evenodd;stroke:#c0c0c0;stroke-width:1.75;stroke-linecap:butt;stroke-linejoin:miter;stroke-miterlimit:4;stroke-dasharray:none;stroke-opacity:1"
         id="path3639" />
      <path
         d="m 54.251248,128.39012 c -0.87218,1.18166 -1.89909,2.63411 -3.08073,4.35734 -0.17585,1.34343 -0.26377,2.29297 -0.26377,2.84862 0,0.46423 0.05275,0.79657 0.15826,0.99702 0.1055,0.20046 0.28134,0.30069 0.52752,0.30069 0.19694,0 0.42025,-0.0826 0.66996,-0.24794 0.24968,-0.16528 0.51872,-0.42025 0.80711,-0.7649 l 0.61193,0.56972 c -0.59084,0.63303 -1.1043,1.06736 -1.54037,1.30298 -0.4361,0.23563 -0.88625,0.35344 -1.35046,0.35344 -0.93548,0 -1.40322,-0.68226 -1.40321,-2.04679 -10e-6,-0.30244 0.02109,-0.63654 0.0633,-1.00229 h -0.1055 c -0.72447,1.08318 -1.41025,1.86216 -2.05734,2.33693 -0.6471,0.47477 -1.33992,0.71215 -2.07844,0.71215 -0.51346,0 -0.94603,-0.1477 -1.29771,-0.44312 -0.35168,-0.29541 -0.61193,-0.68753 -0.78073,-1.17637 -0.16881,-0.48884 -0.25322,-1.02164 -0.25321,-1.5984 -1e-5,-1.25901 0.23914,-2.45297 0.71743,-3.58188 0.47828,-1.12889 1.14296,-2.01513 1.99403,-2.65871 0.85107,-0.64357 1.80764,-0.96536 2.86973,-0.96537 0.78776,1e-5 1.40496,0.24619 1.8516,0.73853 0.44663,0.49237 0.69457,1.21331 0.74381,2.16285 l 0.09496,-0.0105 1.38211,-2.72202 h 1.82522 l -0.1055,0.53807 z m -4.58945,4.43119 c 0.11956,-0.73149 0.17935,-1.37858 0.17936,-1.94128 -1e-5,-0.80183 -0.11782,-1.39617 -0.35344,-1.78303 -0.23564,-0.38684 -0.60314,-0.58026 -1.10252,-0.58027 -0.64711,1e-5 -1.24848,0.28838 -1.80413,0.86513 -0.55567,0.57677 -1.00054,1.3575 -1.33464,2.34221 -0.3341,0.98471 -0.50115,1.99404 -0.50114,3.02798 -1e-5,0.7104 0.1055,1.23792 0.31651,1.58257 0.21101,0.34465 0.52752,0.51697 0.94954,0.51697 0.60489,0 1.22737,-0.3552 1.86743,-1.0656 0.64006,-0.71039 1.2344,-1.69862 1.78303,-2.96468 z"
         style="font-style:normal;font-weight:normal;font-size:21.6073px;font-family:'Bitstream Vera Sans';fill:#008000;fill-opacity:1;stroke:none;stroke-width:1px;stroke-linecap:butt;stroke-linejoin:miter;stroke-opacity:1"
         id="text3655" />
      <path
         d="m 99.807978,111.96663 c 1.674002,0.59083 2.511002,1.69159 2.511012,3.30229 -1e-5,0.82997 -0.18464,1.60719 -0.5539,2.33165 -0.36927,0.72447 -0.91086,1.29947 -1.62477,1.725 -0.713922,0.42554 -1.535102,0.6383 -2.463532,0.6383 -0.59787,0 -1.12363,-0.0475 -1.5773,-0.14243 -0.45367,-0.0949 -0.92316,-0.25848 -1.40848,-0.49059 l -1.1289,5.00091 h -1.71973 l 3.12294,-13.9477 c 0.28134,-1.25198 0.66116,-2.28944 1.13945,-3.11239 0.47828,-0.82292 1.07614,-1.45771 1.79358,-1.90436 0.71742,-0.44662 1.56146,-0.66993 2.532112,-0.66995 1.08317,2e-5 1.92017,0.24092 2.51101,0.72271 0.59081,0.48181 0.88622,1.16584 0.88624,2.05206 -2e-5,0.35873 -0.051,0.74734 -0.15299,1.16583 -0.102,0.41851 -0.30421,0.82998 -0.60665,1.2344 -0.30245,0.40444 -0.72271,0.77899 -1.26078,1.12362 -0.53808,0.34466 -1.19748,0.64007 -1.978212,0.88624 l -0.0211,0.0844 z m -1.76193,-0.46422 c 0.75963,-0.0563 1.44541,-0.27431 2.057342,-0.65413 0.61192,-0.37981 1.09197,-0.87744 1.44014,-1.49289 0.34816,-0.61543 0.52224,-1.2889 0.52225,-2.02042 -1e-5,-0.58377 -0.14596,-1.03041 -0.43784,-1.3399 -0.29191,-0.30947 -0.72624,-0.46421 -1.30299,-0.46422 -0.893282,1e-5 -1.638842,0.43082 -2.236692,1.29243 -0.59787,0.86163 -1.08671,2.16813 -1.46652,3.91949 l -1.42431,6.61514 c -0.03517,0.16178 -0.05276,0.29893 -0.05275,0.41147 -1e-5,0.18991 0.04395,0.35168 0.13188,0.48532 0.08792,0.13364 0.21804,0.26552 0.39037,0.39564 0.17232,0.13013 0.39563,0.24266 0.66995,0.33762 0.27431,0.0949 0.62247,0.14243 1.0445,0.14243 0.56971,0 1.08844,-0.17584 1.55619,-0.52752 0.46773,-0.35169 0.83523,-0.85107 1.102522,-1.49817 0.26727,-0.64709 0.40091,-1.38562 0.40092,-2.2156 -1e-5,-0.79479 -0.21981,-1.41727 -0.659412,-1.86743 -0.43961,-0.45014 -1.06736,-0.70687 -1.88325,-0.77018 z"
         style="font-style:normal;font-weight:normal;font-size:21.6073px;font-family:'Bitstream Vera Sans';fill:#008000;fill-opacity:1;stroke:none;stroke-width:1px;stroke-linecap:butt;stroke-linejoin:miter;stroke-opacity:1"
         id="text3659" />
      <path
         d="m 67.417288,42.19988 c -0.68228,0.82294 -1.68105,2.17692 -2.996332,4.06192 -1.3153,1.88502 -2.54267,3.75597 -3.68211,5.61285 -0.23212,1.46299 -0.52753,2.84159 -0.88624,4.13578 h -1.57202 l -0.30597,-0.49587 c 0.28135,-1.10429 0.78425,-2.32111 1.50872,-3.65046 0.0633,-1.32936 0.09495,-2.68685 0.09495,-4.07248 0,-1.17461 -0.02462,-2.08547 -0.07385,-2.73257 -0.04924,-0.64709 -0.12133,-1.13416 -0.21628,-1.46124 -0.09496,-0.32705 -0.2075,-0.55213 -0.33762,-0.67523 -0.13012,-0.12308 -0.29014,-0.18462 -0.48004,-0.18463 -0.39389,1e-5 -0.84756,0.28487 -1.36101,0.85459 l -0.59083,-0.59083 c 0.33762,-0.30244 0.59962,-0.53103 0.78601,-0.68578 0.18639,-0.15473 0.37982,-0.29188 0.58028,-0.41147 0.20045,-0.11956 0.40795,-0.21275 0.62247,-0.27958 0.21453,-0.06681 0.45543,-0.10022 0.72271,-0.10023 0.68929,10e-6 1.1922,0.26377 1.50872,0.79128 0.3165,0.52753 0.47476,1.39619 0.47477,2.60597 -1e-5,1.4208 -0.06683,2.96116 -0.20046,4.6211 h 0.09495 c 1.70917,-2.86972 3.12293,-5.48623 4.24129,-7.84954 h 2.205042 z"
         style="font-style:normal;font-weight:normal;font-size:21.6073px;font-family:'Bitstream Vera Sans';fill:#008000;fill-opacity:1;stroke:none;stroke-width:1px;stroke-linecap:butt;stroke-linejoin:miter;stroke-opacity:1"
         id="text3663" />
      <path
         d="M 56.708034,64.811168 C 57.822096,59.638758 48.072922,50.59773 39.875089,53.376386"
         style="fill:none;fill-rule:evenodd;stroke:#008000;stroke-width:1px;stroke-linecap:butt;stroke-linejoin:miter;stroke-opacity:1"
         id="path3679" />
      <path
         d="m 31.093168,134.80633 c 6.2069,0.3183 15.75597,7.55968 14.32361,13.84615"
         style="fill:none;fill-rule:evenodd;stroke:#008000;stroke-width:1px;stroke-linecap:butt;stroke-linejoin:miter;stroke-opacity:1"
         id="path3681" />
      <path
         d="m 92.943568,130.50925 c 1.51194,-2.54642 7.320962,-4.37666 10.265262,-3.34218"
         style="fill:none;fill-rule:evenodd;stroke:#008000;stroke-width:1px;stroke-linecap:butt;stroke-linejoin:miter;stroke-opacity:1"
         id="path3683" />
      <path
         d="M 44.700598,65.814285 27.989728,149.36866"
         style="fill:none;fill-rule:evenodd;stroke:#000000;stroke-width:1.75;stroke-linecap:butt;stroke-linejoin:miter;stroke-miterlimit:4;stroke-dasharray:none;stroke-opacity:1"
         id="path3601" />
      <path
         d="m 12.169569,116.96466 c -1.91792,0.23278 -3.6634203,-1.13487 -3.8962103,-3.05279 -0.23278,-1.91793 1.13487,-3.66343 3.0528003,-3.89621 1.91792,-0.23278 3.66343,1.13487 3.89621,3.05279 0.232779,1.91793 -1.13487,3.66343 -3.0528,3.89621 z"
         style="fill:#000000;fill-rule:evenodd;stroke:none;stroke-width:0.7pt;marker-start:none;marker-end:none"
         id="path3623" />
      <path
         d="m 27.604528,30.791705 -16.718749,82.593755 -0.03125,0.28125 0.125,0.28125 16.218749,34.375 0.25,0.5 h 0.53125 71.872779 0.718753 l 0.15625,-0.71875 16.71874,-82.125005 -1.71875,-0.34375 -16.593743,81.437505 H 28.542028 l -15.874999,-33.625 16.656249,-82.312505 z"
         style="fill:#000000;fill-opacity:1;fill-rule:evenodd;stroke:none;stroke-width:1.75;stroke-linecap:butt;stroke-linejoin:miter;stroke-miterlimit:4;stroke-dasharray:none;stroke-opacity:1"
         id="path3599" />
      <path
         d="m 102.52285,145.76617 c 1.22237,1.49614 1.00016,3.70247 -0.49599,4.92483 -1.49614,1.22236 -3.702473,1.00016 -4.924833,-0.49599 -1.22236,-1.49615 -1.00016,-3.70247 0.49599,-4.92483 1.49615,-1.22236 3.702473,-1.00016 4.924833,0.49599 z"
         style="fill:#000000;fill-rule:evenodd;stroke:none;stroke-width:0.7pt;marker-start:none;marker-end:none"
         id="path3627" />
      <path
         d="m 27.073278,30.572955 0.59375,1.25 16.71875,34.375 0.25,0.5 h 0.53125 71.872772 1.40625 l -0.59375,-1.25 -16.24999,-34.375 -0.21875,-0.5 h -0.5625 -72.341532 z m 2.8125,1.75 h 70.404032 l 15.37499,32.625 H 45.760778 Z"
         style="fill:#000000;fill-opacity:1;fill-rule:evenodd;stroke:none;stroke-width:1.75;stroke-linecap:butt;stroke-linejoin:miter;stroke-miterlimit:4;stroke-dasharray:none;stroke-opacity:1"
         id="path2430" />
      <path
         d="m 103.71885,33.273545 c -1.03411,1.63194 -3.19786,2.11714 -4.829813,1.08303 -1.63194,-1.03411 -2.11714,-3.19786 -1.08303,-4.82981 1.03411,-1.63194 3.197873,-2.11714 4.829813,-1.08303 1.63194,1.03411 2.11714,3.19787 1.08303,4.82981 z"
         style="fill:#000000;fill-opacity:1;fill-rule:evenodd;stroke:none;stroke-width:0.7pt;marker-start:none;marker-end:none"
         id="path3609" />
      <path
         d="m 115.21905,68.711575 c -1.63194,-1.03411 -2.11714,-3.19786 -1.08303,-4.82981 1.03411,-1.63194 3.19786,-2.11714 4.82981,-1.08303 1.63194,1.03411 2.11714,3.19787 1.08303,4.82981 -1.03411,1.63194 -3.19787,2.11714 -4.82981,1.08303 z"
         style="fill:#000000;fill-opacity:1;fill-rule:evenodd;stroke:none;stroke-width:0.7pt;marker-start:none;marker-end:none"
         id="path3611" />
      <path
         d="m 42.270438,63.994755 c 1.02487,-1.63776 3.18585,-2.13517 4.82361,-1.11029 1.63776,1.02488 2.13517,3.18586 1.11029,4.82362 -1.02488,1.63775 -3.18586,2.13516 -4.82361,1.11029 -1.63776,-1.02488 -2.13517,-3.18586 -1.11029,-4.82362 z"
         style="fill:#000000;fill-opacity:1;fill-rule:evenodd;stroke:none;stroke-width:0.7pt;marker-start:none;marker-end:none"
         id="path3613" />
      <path
         d="m 30.286708,28.530015 c 1.63776,1.02487 2.13517,3.18585 1.11029,4.82361 -1.02488,1.63776 -3.18586,2.13517 -4.82362,1.11029 -1.63775,-1.02488 -2.13516,-3.18586 -1.11029,-4.82361 1.02488,-1.63776 3.18586,-2.13517 4.82362,-1.11029 z"
         style="fill:#000000;fill-opacity:1;fill-rule:evenodd;stroke:none;stroke-width:0.7pt;marker-start:none;marker-end:none"
         id="path3615" />
      <path
         id="text6151"
         d="m 13.730502,127.95675 0.74708,-0.53595 0.51971,0.12993 -1.1937,5.14837 c -0.11911,0.5143 -0.17866,0.91491 -0.17865,1.20183 -1e-5,0.21655 0.0352,0.37354 0.10556,0.47099 0.0704,0.0974 0.18135,0.14617 0.33294,0.14616 0.1624,1e-5 0.33564,-0.0663 0.51971,-0.19895 0.18406,-0.13263 0.44391,-0.38572 0.77956,-0.75926 l 0.46287,0.45475 c -0.48724,0.51971 -0.90273,0.88919 -1.24649,1.10844 -0.34377,0.21925 -0.71596,0.32888 -1.11656,0.32888 -0.33566,0 -0.60363,-0.11098 -0.80393,-0.33294 -0.20031,-0.22196 -0.30046,-0.517 -0.30046,-0.88513 0,-0.29775 0.0622,-0.61445 0.18677,-0.9501 l -0.10556,-0.0325 c -0.51972,0.75791 -1.01236,1.31281 -1.47793,1.6647 -0.46557,0.35188 -0.95821,0.52783 -1.4779204,0.52783 -0.5955,0 -1.05702,-0.22467 -1.38454,-0.674 -0.32753,-0.44933 -0.49129,-1.08002 -0.49129,-1.89207 0,-0.93114 0.18271,-1.82575 0.54813,-2.68381 0.36542,-0.85806 0.86754,-1.53476 1.50635,-2.03012 0.6388104,-0.49534 1.3507004,-0.74301 2.1356804,-0.74302 0.35188,1e-5 0.68076,0.0393 0.98664,0.11775 0.30586,0.0785 0.62121,0.2179 0.94603,0.4182 v 0 z m -0.7146,2.4199 c 0.0487,-0.22196 0.0812,-0.41414 0.0974,-0.57656 0.0162,-0.1624 0.0243,-0.33834 0.0244,-0.52783 -1e-5,-0.41684 -0.0893,-0.72271 -0.26798,-0.91761 -0.17865,-0.19488 -0.48182,-0.29233 -0.90949,-0.29233 -0.55761,0 -1.05837,0.22467 -1.50229,0.67399 -0.44392,0.44934 -0.7903904,1.05161 -1.0394104,1.80681 -0.24903,0.7552 -0.37355,1.50905 -0.37355,2.26155 0,0.56302 0.0772,0.98393 0.23144,1.26273 0.15428,0.2788 0.41278,0.4182 0.7755004,0.4182 0.3573,0 0.70783,-0.15429 1.0516,-0.46286 0.34376,-0.30858 0.69836,-0.74844 1.06378,-1.31958 0.36542,-0.57114 0.62392,-1.23025 0.77551,-1.97733 l 0.0731,-0.34918 z"
         style="font-style:normal;font-weight:normal;font-size:16.6307px;font-family:'Bitstream Vera Sans';fill:#000000;fill-opacity:1;stroke:none;stroke-width:1px;stroke-linecap:butt;stroke-linejoin:miter;stroke-opacity:1" />
      <path
         id="text6155"
         d="m 60.643355,161.06234 -0.74708,0.52783 -0.51971,-0.12993 2.1032,-9.28169 c 0.12451,-0.55218 0.18677,-0.95279 0.18677,-1.20182 0,-0.22737 -0.069,-0.38707 -0.20707,-0.47911 -0.13805,-0.092 -0.38572,-0.14345 -0.74302,-0.15429 l 0.0975,-0.42227 2.05447,-0.0731 h 0.47099 l -1.4292,5.68433 0.10557,0.0325 c 0.52512,-0.70377 1.01776,-1.21265 1.47792,-1.52665 0.46015,-0.31398 0.92031,-0.47098 1.38048,-0.47099 0.59008,1e-5 1.04889,0.22468 1.37642,0.674 0.32752,0.44934 0.49128,1.08274 0.49129,1.90019 -1e-5,0.89326 -0.18001,1.77162 -0.54002,2.63509 -0.36001,0.86348 -0.85942,1.5483 -1.49822,2.05448 -0.63881,0.50617 -1.35342,0.75926 -2.1438,0.75926 -0.72002,0 -1.35883,-0.17594 -1.91643,-0.52783 v 0 z m 0.7146,-2.42802 c -0.0812,0.37896 -0.12181,0.74709 -0.1218,1.10439 -10e-6,0.42768 0.0934,0.73625 0.28015,0.92573 0.18677,0.18948 0.4967,0.28422 0.9298,0.28422 0.22195,0 0.43308,-0.0365 0.63339,-0.10963 0.2003,-0.0731 0.40467,-0.19354 0.6131,-0.36136 0.20842,-0.16782 0.40601,-0.38843 0.59279,-0.66182 0.18677,-0.27339 0.35865,-0.61039 0.51565,-1.011 0.15699,-0.4006 0.2788,-0.82963 0.36542,-1.28709 0.0866,-0.45745 0.12992,-0.8946 0.12993,-1.31146 -1e-5,-0.56301 -0.0799,-0.98527 -0.23955,-1.26679 -0.15971,-0.2815 -0.41551,-0.42226 -0.76739,-0.42226 -0.25986,0 -0.51565,0.0826 -0.76738,0.24767 -0.25174,0.16512 -0.5319,0.43851 -0.84047,0.82017 -0.30858,0.38167 -0.56032,0.7728 -0.7552,1.17341 -0.1949,0.40061 -0.36001,0.9122 -0.49535,1.53476 l -0.0731,0.34106 z"
         style="font-style:normal;font-weight:normal;font-size:16.6307px;font-family:'Bitstream Vera Sans';fill:#000000;fill-opacity:1;stroke:none;stroke-width:1px;stroke-linecap:butt;stroke-linejoin:miter;stroke-opacity:1" />
      <path
         id="text6159"
         d="m 117.12161,104.95435 c -0.0108,-0.41143 -0.0447,-0.70918 -0.10151,-0.89325 -0.0568,-0.18406 -0.14888,-0.32211 -0.27609,-0.41415 -0.12723,-0.092 -0.30723,-0.13804 -0.54001,-0.13804 -0.54679,0 -1.03807,0.2179 -1.47387,0.65369 -0.4358,0.43581 -0.79175,1.05296 -1.06784,1.85147 -0.2761,0.79852 -0.41415,1.5659 -0.41414,2.30215 0,0.55219 0.10827,0.96227 0.32482,1.23025 0.21654,0.26797 0.54136,0.40196 0.97445,0.40196 0.49264,0 0.91896,-0.0934 1.27897,-0.28016 0.36001,-0.18676 0.74031,-0.48045 1.14093,-0.88107 l 0.49535,0.49535 c -0.50889,0.56302 -1.02183,0.97446 -1.53883,1.23431 -0.51701,0.25986 -1.07326,0.38979 -1.66876,0.38979 -0.78498,0 -1.38048,-0.23279 -1.7865,-0.69836 -0.40602,-0.46558 -0.60903,-1.14228 -0.60903,-2.03012 0,-0.57925 0.10827,-1.21536 0.32482,-1.90831 0.21654,-0.69294 0.53324,-1.30197 0.95009,-1.8271 0.41685,-0.52512 0.90408,-0.9176 1.46168,-1.17747 0.55761,-0.25984 1.15311,-0.38977 1.78651,-0.38978 0.72,10e-6 1.38318,0.0812 1.98951,0.24361 l -0.3979,1.83523 z"
         style="font-style:normal;font-weight:normal;font-size:16.6307px;font-family:'Bitstream Vera Sans';fill:#000000;fill-opacity:1;stroke:none;stroke-width:1px;stroke-linecap:butt;stroke-linejoin:miter;stroke-opacity:1" />
    </g>
    <text
       id="text2745"
       y="58.11932"
       x="11.490016"
       style="font-style:normal;font-variant:normal;font-weight:normal;font-stretch:normal;font-size:7.76111px;line-height:1.25;font-family:Roboto;-inkscape-font-specification:'Roboto, Normal';font-variant-ligatures:normal;font-variant-caps:normal;font-variant-numeric:normal;font-variant-east-asian:normal;text-align:start;letter-spacing:0px;word-spacing:0px;writing-mode:lr-tb;text-anchor:start;fill:#000000;fill-opacity:1;stroke:none;stroke-width:0.264583"
       xml:space="preserve"><tspan
         style="font-style:normal;font-variant:normal;font-weight:normal;font-stretch:normal;font-size:7.76111px;font-family:Roboto;-inkscape-font-specification:'Roboto, Normal';font-variant-ligatures:normal;font-variant-caps:normal;font-variant-numeric:normal;font-variant-east-asian:normal;stroke-width:0.264583"
         y="58.11932"
         x="11.490016"
         id="tspan2743"
         sodipodi:role="line">triclinic</tspan></text>
    <g
       transform="matrix(0.32856043,0,0,0.32856043,58.681578,-10.611572)"
       id="g4206">
      <path
         d="m 25.639398,163.00032 c -1.03411,1.63194 -3.19786,2.11714 -4.82981,1.08303 -1.63194,-1.03411 -2.11714,-3.19786 -1.08303,-4.82981 1.03411,-1.63194 3.19787,-2.11714 4.82981,-1.08303 1.63194,1.03411 2.11714,3.19787 1.08303,4.82981 z"
         style="fill:#000000;fill-rule:evenodd;stroke:none;stroke-width:0.7pt;marker-start:none;marker-end:none"
         id="path3625-0" />
      <path
         d="m 82.050927,124.57333 c 1.22237,1.49614 1.00016,3.70247 -0.49599,4.92483 -1.49614,1.22236 -3.70247,1.00016 -4.92483,-0.49599 -1.22236,-1.49615 -1.00016,-3.70247 0.49599,-4.92483 1.49615,-1.22236 3.70247,-1.00016 4.92483,0.49599 z"
         style="fill:#c0c0c0;fill-opacity:1;fill-rule:evenodd;stroke:none;stroke-width:0.7pt;marker-start:none;marker-end:none"
         id="path3635-2" />
      <path
         d="m 95.93377,161.10187 0.03125,-0.28125 -0.125,-0.28125 -16.218753,-34.375 -0.25,-0.5 h -0.53125 -71.8727779 -0.71875 l -0.15625,0.71875 1.59375,1.03125 H 78.277517 l 15.875,33.625 z"
         style="fill:#c0c0c0;fill-opacity:1;fill-rule:evenodd;stroke:none;stroke-width:1.75;stroke-linecap:butt;stroke-linejoin:miter;stroke-miterlimit:4;stroke-dasharray:none;stroke-opacity:1"
         id="path3637-1" />
      <path
         d="M 90.576327,42.517201 79.579247,126.07157"
         style="fill:none;fill-rule:evenodd;stroke:#c0c0c0;stroke-width:1.75;stroke-linecap:butt;stroke-linejoin:miter;stroke-miterlimit:4;stroke-dasharray:none;stroke-opacity:1"
         id="path3639-9" />
      <path
         d="m 94.560358,125.19473 c 1.674002,0.59083 2.511002,1.69159 2.511012,3.30229 -1e-5,0.82997 -0.18464,1.60719 -0.5539,2.33165 -0.36927,0.72447 -0.91086,1.29947 -1.62477,1.725 -0.713922,0.42554 -1.535102,0.6383 -2.463532,0.6383 -0.59787,0 -1.12363,-0.0475 -1.5773,-0.14243 -0.45367,-0.095 -0.92316,-0.25848 -1.40848,-0.49059 l -1.1289,5.00091 h -1.71973 l 3.12294,-13.9477 c 0.28134,-1.25198 0.66116,-2.28944 1.13945,-3.11239 0.47828,-0.82292 1.07614,-1.45771 1.79358,-1.90436 0.71742,-0.44662 1.56146,-0.66993 2.532112,-0.66995 1.08317,2e-5 1.92017,0.24092 2.51101,0.72271 0.59081,0.48181 0.88622,1.16584 0.88624,2.05206 -2e-5,0.35873 -0.05101,0.74734 -0.15299,1.16583 -0.102,0.41851 -0.30421,0.82998 -0.60665,1.2344 -0.30245,0.40444 -0.72271,0.77899 -1.26078,1.12362 -0.53808,0.34466 -1.19748,0.64007 -1.978212,0.88624 l -0.0211,0.0844 z m -1.76193,-0.46422 c 0.75963,-0.0563 1.44541,-0.27431 2.057342,-0.65413 0.61192,-0.37981 1.09197,-0.87744 1.44014,-1.49289 0.34816,-0.61543 0.52224,-1.2889 0.52225,-2.02042 -1e-5,-0.58377 -0.14596,-1.03041 -0.43784,-1.3399 -0.29191,-0.30947 -0.72624,-0.46421 -1.30299,-0.46422 -0.893282,1e-5 -1.638842,0.43082 -2.236692,1.29243 -0.59787,0.86163 -1.08671,2.16813 -1.46652,3.91949 l -1.42431,6.61514 c -0.03517,0.16178 -0.05276,0.29893 -0.05275,0.41147 -1e-5,0.18991 0.04395,0.35168 0.13188,0.48532 0.08792,0.13364 0.21804,0.26552 0.39037,0.39564 0.17232,0.13013 0.39563,0.24266 0.66995,0.33762 0.27431,0.095 0.62247,0.14243 1.0445,0.14243 0.56971,0 1.08844,-0.17584 1.55619,-0.52752 0.46773,-0.35169 0.83523,-0.85107 1.102522,-1.49817 0.26727,-0.64709 0.40091,-1.38562 0.40092,-2.2156 -10e-6,-0.79479 -0.21981,-1.41727 -0.659412,-1.86743 -0.43961,-0.45014 -1.06736,-0.70687 -1.88325,-0.77018 z"
         style="font-style:normal;font-weight:normal;font-size:21.6073px;font-family:'Bitstream Vera Sans';fill:#008000;fill-opacity:1;stroke:none;stroke-width:1px;stroke-linecap:butt;stroke-linejoin:miter;stroke-opacity:1"
         id="text3659-4" />
      <path
         d="m 87.695948,143.73735 c 1.51194,-2.54642 7.320962,-4.37666 10.265262,-3.34218"
         style="fill:none;fill-rule:evenodd;stroke:#008000;stroke-width:1px;stroke-linecap:butt;stroke-linejoin:miter;stroke-opacity:1"
         id="path3683-2" />
      <path
         style="fill:none;fill-rule:evenodd;stroke:#008000;stroke-width:1px;stroke-linecap:butt;stroke-linejoin:miter;stroke-opacity:1"
         d="m 25.576438,146.75197 h 16.168975 l -2.515174,13.6538"
         id="path3385" />
      <path
         d="M 35.057753,79.042391 22.742108,162.59676"
         style="fill:none;fill-rule:evenodd;stroke:#000000;stroke-width:1.75;stroke-linecap:butt;stroke-linejoin:miter;stroke-miterlimit:4;stroke-dasharray:none;stroke-opacity:1"
         id="path3601-1" />
      <path
         d="m 6.9219491,130.19276 c -1.91792,0.23278 -3.6634203,-1.13487 -3.8962103,-3.05279 -0.23278,-1.91793 1.13487,-3.66343 3.0528003,-3.89621 1.91792,-0.23278 3.66343,1.13487 3.89621,3.05279 0.2327789,1.91793 -1.13487,3.66343 -3.0528,3.89621 z"
         style="fill:#000000;fill-rule:evenodd;stroke:none;stroke-width:0.7pt;marker-start:none;marker-end:none"
         id="path3623-0" />
      <path
         d="m 17.52216,44.019811 -11.8840009,82.593749 -0.03125,0.28125 0.125,0.28125 16.2187489,34.375 0.25,0.5 h 0.53125 71.872779 0.718753 l 0.15625,-0.71875 11.88399,-82.124999 -1.71875,-0.34375 -11.758993,81.437499 H 23.294408 L 7.4194091,126.67606 19.24091,44.363561 Z"
         style="fill:#000000;fill-opacity:1;fill-rule:evenodd;stroke:none;stroke-width:1.75;stroke-linecap:butt;stroke-linejoin:miter;stroke-miterlimit:4;stroke-dasharray:none;stroke-opacity:1"
         id="path3599-2" />
      <path
         d="m 97.27523,158.99427 c 1.22237,1.49614 1.00016,3.70247 -0.49599,4.92483 -1.49614,1.22236 -3.702473,1.00016 -4.924833,-0.49599 -1.22236,-1.49615 -1.00016,-3.70247 0.49599,-4.92483 1.49615,-1.22236 3.702473,-1.00016 4.924833,0.49599 z"
         style="fill:#000000;fill-rule:evenodd;stroke:none;stroke-width:0.7pt;marker-start:none;marker-end:none"
         id="path3627-4" />
      <path
         style="fill:none;fill-rule:evenodd;stroke:#008000;stroke-width:1px;stroke-linecap:butt;stroke-linejoin:miter;stroke-opacity:1"
         d="m 30.433797,68.6325 h 13.465759 l 4.014611,9.749768"
         id="path3387" />
      <path
         d="m 16.99091,43.801061 0.59375,1.25 16.71875,34.375 0.25,0.5 h 0.53125 71.87277 1.40625 l -0.59375,-1.25 -16.249988,-34.375 -0.21875,-0.5 h -0.5625 -72.341532 z m 2.8125,1.75 h 70.404032 l 15.374988,32.625 H 35.67841 Z"
         style="fill:#000000;fill-opacity:1;fill-rule:evenodd;stroke:none;stroke-width:1.75;stroke-linecap:butt;stroke-linejoin:miter;stroke-miterlimit:4;stroke-dasharray:none;stroke-opacity:1"
         id="path2430-9" />
      <path
         d="m 93.636482,46.501651 c -1.03411,1.63194 -3.19786,2.11714 -4.829813,1.08303 -1.63194,-1.03411 -2.11714,-3.19786 -1.08303,-4.82981 1.03411,-1.63194 3.197873,-2.11714 4.829813,-1.08303 1.63194,1.03411 2.11714,3.19787 1.08303,4.82981 z"
         style="fill:#000000;fill-opacity:1;fill-rule:evenodd;stroke:none;stroke-width:0.7pt;marker-start:none;marker-end:none"
         id="path3609-9" />
      <path
         d="m 105.13668,81.939681 c -1.63194,-1.03411 -2.11714,-3.19786 -1.08303,-4.82981 1.03411,-1.63194 3.19786,-2.11714 4.82981,-1.08303 1.63194,1.03411 2.11714,3.19787 1.08303,4.82981 -1.03411,1.63194 -3.19787,2.11714 -4.82981,1.08303 z"
         style="fill:#000000;fill-opacity:1;fill-rule:evenodd;stroke:none;stroke-width:0.7pt;marker-start:none;marker-end:none"
         id="path3611-6" />
      <path
         d="m 32.18807,77.222861 c 1.02487,-1.63776 3.18585,-2.13517 4.82361,-1.11029 1.63776,1.02488 2.13517,3.18586 1.11029,4.82362 -1.02488,1.63775 -3.18586,2.13516 -4.82361,1.11029 -1.63776,-1.02488 -2.13517,-3.18586 -1.11029,-4.82362 z"
         style="fill:#000000;fill-opacity:1;fill-rule:evenodd;stroke:none;stroke-width:0.7pt;marker-start:none;marker-end:none"
         id="path3613-5" />
      <path
         d="m 20.20434,41.758121 c 1.63776,1.02487 2.13517,3.18585 1.11029,4.82361 -1.02488,1.63776 -3.18586,2.13517 -4.82362,1.11029 -1.63775,-1.02488 -2.13516,-3.18586 -1.11029,-4.82361 1.02488,-1.63776 3.18586,-2.13517 4.82362,-1.11029 z"
         style="fill:#000000;fill-opacity:1;fill-rule:evenodd;stroke:none;stroke-width:0.7pt;marker-start:none;marker-end:none"
         id="path3615-5" />
      <path
         style="font-style:normal;font-weight:normal;font-size:16.6307px;font-family:'Bitstream Vera Sans';fill:#000000;fill-opacity:1;stroke:none;stroke-width:1px;stroke-linecap:butt;stroke-linejoin:miter;stroke-opacity:1"
         d="m 8.1305224,141.41236 0.74708,-0.53595 0.51971,0.12993 -1.1937,5.14837 c -0.11911,0.5143 -0.17866,0.91491 -0.17865,1.20183 -10e-6,0.21655 0.0352,0.37354 0.10556,0.47099 0.0704,0.0974 0.18135,0.14617 0.33294,0.14616 0.1624,1e-5 0.33564,-0.0663 0.51971,-0.19895 0.18406,-0.13263 0.44391,-0.38572 0.77956,-0.75926 l 0.4628696,0.45475 c -0.4872396,0.51971 -0.9027296,0.88919 -1.2464896,1.10844 -0.34377,0.21925 -0.71596,0.32888 -1.11656,0.32888 -0.33566,0 -0.60363,-0.11098 -0.80393,-0.33294 -0.20031,-0.22196 -0.30046,-0.517 -0.30046,-0.88513 0,-0.29775 0.0622,-0.61445 0.18677,-0.9501 l -0.10556,-0.0325 c -0.51972,0.75791 -1.01236,1.31281 -1.47793,1.6647 -0.46557,0.35188 -0.95821,0.52783 -1.47792,0.52783 -0.5955,0 -1.05702,-0.22467 -1.38454,-0.674 -0.32753,-0.44933 -0.49129,-1.08002 -0.49129,-1.89207 0,-0.93114 0.18271,-1.82575 0.54813,-2.68381 0.36542,-0.85806 0.86754,-1.53476 1.50635,-2.03012 0.63881,-0.49534 1.3507,-0.74301 2.13568,-0.74302 0.35188,1e-5 0.68076,0.0393 0.98664,0.11775 0.30586,0.0785 0.62121,0.2179 0.94603,0.4182 v 0 z m -0.7146,2.4199 c 0.0487,-0.22196 0.0812,-0.41414 0.0974,-0.57656 0.0162,-0.1624 0.0243,-0.33834 0.0244,-0.52783 -10e-6,-0.41684 -0.0893,-0.72271 -0.26798,-0.91761 -0.17865,-0.19488 -0.48182,-0.29233 -0.90949,-0.29233 -0.55761,0 -1.05837,0.22467 -1.50229,0.67399 -0.44392,0.44934 -0.79039,1.05161 -1.03941,1.80681 -0.24903,0.7552 -0.37355,1.50905 -0.37355,2.26155 0,0.56302 0.0772,0.98393 0.23144,1.26273 0.15428,0.2788 0.41278,0.4182 0.7755,0.4182 0.3573,0 0.70783,-0.15429 1.0516,-0.46286 0.34376,-0.30858 0.69836,-0.74844 1.06378,-1.31958 0.36542,-0.57114 0.62392,-1.23025 0.77551,-1.97733 l 0.0731,-0.34918 z"
         id="text6151-3" />
      <path
         style="font-style:normal;font-weight:normal;font-size:16.6307px;font-family:'Bitstream Vera Sans';fill:#000000;fill-opacity:1;stroke:none;stroke-width:1px;stroke-linecap:butt;stroke-linejoin:miter;stroke-opacity:1"
         d="m 56.046493,174.51795 -0.74708,0.52783 -0.51971,-0.12993 2.1032,-9.28169 c 0.12451,-0.55218 0.18677,-0.95279 0.18677,-1.20182 0,-0.22737 -0.069,-0.38707 -0.20707,-0.47911 -0.13805,-0.092 -0.38572,-0.14345 -0.74302,-0.15429 l 0.0975,-0.42227 2.05447,-0.0731 h 0.47099 l -1.4292,5.68433 0.10557,0.0325 c 0.52512,-0.70377 1.01776,-1.21265 1.47792,-1.52665 0.46015,-0.31398 0.92031,-0.47098 1.38048,-0.47099 0.59008,1e-5 1.04889,0.22468 1.37642,0.674 0.32752,0.44934 0.49128,1.08274 0.49129,1.90019 -1e-5,0.89326 -0.18001,1.77162 -0.54002,2.63509 -0.36001,0.86348 -0.85942,1.5483 -1.49822,2.05448 -0.63881,0.50617 -1.35342,0.75926 -2.1438,0.75926 -0.72002,0 -1.35883,-0.17594 -1.91643,-0.52783 v 0 z m 0.7146,-2.42802 c -0.0812,0.37896 -0.12181,0.74709 -0.1218,1.10439 -1e-5,0.42768 0.0934,0.73625 0.28015,0.92573 0.18677,0.18948 0.4967,0.28422 0.9298,0.28422 0.22195,0 0.43308,-0.0365 0.63339,-0.10963 0.2003,-0.0731 0.40467,-0.19354 0.6131,-0.36136 0.20842,-0.16782 0.40601,-0.38843 0.59279,-0.66182 0.18677,-0.27339 0.35865,-0.61039 0.51565,-1.011 0.15699,-0.4006 0.2788,-0.82963 0.36542,-1.28709 0.0866,-0.45745 0.12992,-0.8946 0.12993,-1.31146 -10e-6,-0.56301 -0.0799,-0.98527 -0.23955,-1.26679 -0.15971,-0.2815 -0.41551,-0.42226 -0.76739,-0.42226 -0.25986,0 -0.51565,0.0826 -0.76738,0.24767 -0.25174,0.16512 -0.5319,0.43851 -0.84047,0.82017 -0.30858,0.38167 -0.56032,0.7728 -0.7552,1.17341 -0.1949,0.40061 -0.36001,0.9122 -0.49535,1.53476 l -0.0731,0.34106 z"
         id="text6155-9" />
      <path
         style="font-style:normal;font-weight:normal;font-size:16.6307px;font-family:'Bitstream Vera Sans';fill:#000000;fill-opacity:1;stroke:none;stroke-width:1px;stroke-linecap:butt;stroke-linejoin:miter;stroke-opacity:1"
         d="m 108.84665,118.40996 c -0.0108,-0.41143 -0.0447,-0.70918 -0.10151,-0.89325 -0.0568,-0.18406 -0.14888,-0.32211 -0.27609,-0.41415 -0.12723,-0.092 -0.30723,-0.13804 -0.54001,-0.13804 -0.54679,0 -1.03807,0.2179 -1.47387,0.65369 -0.4358,0.43581 -0.79175,1.05296 -1.06784,1.85147 -0.2761,0.79852 -0.41415,1.5659 -0.41414,2.30215 0,0.55219 0.10827,0.96227 0.32482,1.23025 0.21654,0.26797 0.54136,0.40196 0.97445,0.40196 0.49264,0 0.91896,-0.0934 1.27897,-0.28016 0.36001,-0.18676 0.74031,-0.48045 1.14093,-0.88107 l 0.49535,0.49535 c -0.50889,0.56302 -1.02183,0.97446 -1.53883,1.23431 -0.51701,0.25986 -1.07326,0.38979 -1.66876,0.38979 -0.78498,0 -1.38048,-0.23279 -1.7865,-0.69836 -0.40602,-0.46558 -0.60903,-1.14228 -0.60903,-2.03012 0,-0.57925 0.10827,-1.21536 0.32482,-1.90831 0.21654,-0.69294 0.53324,-1.30197 0.95009,-1.8271 0.41685,-0.52512 0.90408,-0.9176 1.46168,-1.17747 0.55761,-0.25984 1.15311,-0.38977 1.78651,-0.38978 0.72,1e-5 1.38318,0.0812 1.98951,0.24361 l -0.3979,1.83523 z"
         id="text6159-0" />
    </g>
    <g
       transform="matrix(0.32654389,0,0,0.32654389,110.65394,1.4434393)"
       id="g2831">
      <path
         id="path3635-5"
         style="fill:#c0c0c0;fill-opacity:1;fill-rule:evenodd;stroke:none;stroke-width:0.7pt;marker-start:none;marker-end:none"
         d="m 82.521602,87.910349 c 1.22237,1.49614 1.00016,3.702467 -0.49599,4.924827 -1.49614,1.22236 -3.70247,1.00016 -4.92483,-0.49599 -1.22236,-1.49615 -1.00016,-3.702467 0.49599,-4.924827 1.49615,-1.22236 3.70247,-1.00016 4.92483,0.49599 z" />
      <path
         id="path3637-8"
         style="fill:#c0c0c0;fill-opacity:1;fill-rule:evenodd;stroke:none;stroke-width:1.75;stroke-linecap:butt;stroke-linejoin:miter;stroke-miterlimit:4;stroke-dasharray:none;stroke-opacity:1"
         d="m 96.404447,124.43888 0.03125,-0.28125 -0.125,-0.28125 -16.218755,-34.374991 -0.25,-0.5 h -0.53125 -71.8727782 -0.71875 l -0.15625,0.71875 1.59375,1.031247 H 78.748192 l 15.875005,33.624994 z" />
      <path
         id="path3639-5"
         style="fill:none;fill-rule:evenodd;stroke:#c0c0c0;stroke-width:1.75;stroke-linecap:butt;stroke-linejoin:miter;stroke-miterlimit:4;stroke-dasharray:none;stroke-opacity:1"
         d="M 79.759517,5.8542143 80.049922,89.408589" />
      <path
         id="path3623-8"
         style="fill:#000000;fill-rule:evenodd;stroke:none;stroke-width:0.7pt;marker-start:none;marker-end:none"
         d="m 7.3926238,93.529776 c -1.91792,0.23278 -3.66342,-1.13487 -3.89621,-3.05279 -0.23278,-1.917927 1.13487,-3.663427 3.0528,-3.896207 1.91792,-0.23278 3.6634302,1.13487 3.8962102,3.05279 0.232779,1.917927 -1.1348702,3.663427 -3.0528002,3.896207 z" />
      <path
         id="path3599-0"
         style="fill:#000000;fill-opacity:1;fill-rule:evenodd;stroke:none;stroke-width:1.75;stroke-linecap:butt;stroke-linejoin:miter;stroke-miterlimit:4;stroke-dasharray:none;stroke-opacity:1"
         d="m 6.1314108,7.3568243 -0.022577,82.5937547 -0.03125,0.281247 0.125,0.28125 16.2187492,34.374994 0.25,0.5 h 0.53125 71.872784 0.71875 l 0.15625,-0.71875 0.02256,-82.124996 -1.71875,-0.34375 0.10244,81.437496 H 23.765083 L 7.8900838,90.013076 7.8501608,7.7005743 Z" />
      <path
         id="path3625-2"
         style="fill:#000000;fill-rule:evenodd;stroke:none;stroke-width:0.7pt;marker-start:none;marker-end:none"
         d="m 26.110073,126.33733 c -1.03411,1.63194 -3.19786,2.11714 -4.82981,1.08303 -1.63194,-1.03411 -2.11714,-3.19786 -1.08303,-4.82981 1.03411,-1.63194 3.19787,-2.11714 4.82981,-1.08303 1.63194,1.03411 2.11714,3.19787 1.08303,4.82981 z" />
      <path
         id="path2430-93"
         style="fill:#000000;fill-opacity:1;fill-rule:evenodd;stroke:none;stroke-width:1.75;stroke-linecap:butt;stroke-linejoin:miter;stroke-miterlimit:4;stroke-dasharray:none;stroke-opacity:1"
         d="m 5.7914738,7.1380743 0.59375,1.25 16.7187502,34.3749997 0.25,0.5 h 0.53125 71.872773 1.40625 l -0.59375,-1.25 -16.249991,-34.3749997 -0.21875,-0.5 h -0.5625 -72.3415322 z m 2.8125,1.75 H 79.008006 L 94.382997,41.513074 H 24.478974 Z" />
      <path
         id="path3627-3"
         style="fill:#000000;fill-rule:evenodd;stroke:none;stroke-width:0.7pt;marker-start:none;marker-end:none"
         d="m 97.745907,122.33128 c 1.22237,1.49614 1.00016,3.70247 -0.49599,4.92483 -1.49614,1.22236 -3.70247,1.00016 -4.92483,-0.49599 -1.222365,-1.49615 -1.00016,-3.70247 0.49599,-4.92483 1.49615,-1.22236 3.70247,-1.00016 4.92483,0.49599 z" />
      <path
         id="path3611-9"
         style="fill:#000000;fill-opacity:1;fill-rule:evenodd;stroke:none;stroke-width:0.7pt;marker-start:none;marker-end:none"
         d="m 93.162517,45.276694 c -1.63194,-1.03411 -2.117145,-3.19786 -1.08303,-4.82981 1.03411,-1.63194 3.19786,-2.11714 4.82981,-1.08303 1.63194,1.03411 2.11714,3.19787 1.08303,4.82981 -1.03411,1.63194 -3.19787,2.11714 -4.82981,1.08303 z" />
      <path
         id="path3613-7"
         style="fill:#000000;fill-opacity:1;fill-rule:evenodd;stroke:none;stroke-width:0.7pt;marker-start:none;marker-end:none"
         d="m 20.186726,40.559874 c 1.02487,-1.63776 3.18585,-2.13517 4.82361,-1.11029 1.63776,1.02488 2.13517,3.18586 1.11029,4.82362 -1.02488,1.63775 -3.18586,2.13516 -4.82361,1.11029 -1.63776,-1.02488 -2.13517,-3.18586 -1.11029,-4.82362 z" />
      <path
         id="path3609-2"
         style="fill:#000000;fill-opacity:1;fill-rule:evenodd;stroke:none;stroke-width:0.7pt;marker-start:none;marker-end:none"
         d="m 82.768025,9.8386643 c -1.03411,1.6319397 -3.19786,2.1171397 -4.829813,1.0830297 -1.63194,-1.0341097 -2.11714,-3.1978597 -1.08303,-4.8298097 1.03411,-1.6319397 3.197873,-2.1171397 4.829813,-1.08303 1.63194,1.03411 2.11714,3.19787 1.08303,4.82981 z" />
      <path
         id="path3615-9"
         style="fill:#000000;fill-opacity:1;fill-rule:evenodd;stroke:none;stroke-width:0.7pt;marker-start:none;marker-end:none"
         d="m 8.8272928,5.0951343 c 1.6377602,1.02487 2.1351702,3.18585 1.11029,4.82361 -1.02488,1.6377597 -3.18586,2.1351697 -4.82362,1.1102897 -1.63775,-1.02488 -2.13516,-3.1858597 -1.11029,-4.8236097 1.02488,-1.6377597 3.18586,-2.1351697 4.82362,-1.11029 z" />
      <path
         id="path6134"
         style="fill:none;fill-rule:evenodd;stroke:#000000;stroke-width:1.75;stroke-linecap:butt;stroke-linejoin:miter;stroke-miterlimit:4;stroke-dasharray:none;stroke-opacity:1"
         d="m 23.283068,42.589381 0.290405,83.554359" />
      <path
         id="text6151-1"
         d="m 9.1218715,103.77982 0.7470827,-0.53595 0.5197098,0.12993 -1.1937083,5.14837 c -0.1191071,0.5143 -0.1786571,0.91491 -0.1786502,1.20183 -6.9e-6,0.21655 0.035182,0.37354 0.105566,0.47099 0.07037,0.0974 0.1813499,0.14617 0.3329391,0.14616 0.1624018,1e-5 0.3356382,-0.0663 0.5197097,-0.19895 0.1840557,-0.13263 0.4439107,-0.38572 0.7795647,-0.75926 l 0.462866,0.45475 c -0.487236,0.51971 -0.902733,0.88919 -1.246491,1.10844 -0.3437738,0.21925 -0.7159613,0.32888 -1.1165638,0.32888 -0.3356522,0 -0.6036273,-0.11098 -0.8039259,-0.33294 -0.2003105,-0.22196 -0.3004628,-0.517 -0.3004572,-0.88513 -5.6e-6,-0.29775 0.062251,-0.61445 0.1867707,-0.9501 l -0.1055661,-0.0325 c -0.5197148,0.75791 -1.0123558,1.31281 -1.4779244,1.6647 -0.4655771,0.35188 -0.9582181,0.52783 -1.4779245,0.52783 -0.5955029,0 -1.0570154,-0.22467 -1.3845392,-0.674 -0.3275264,-0.44933 -0.4912889,-1.08002 -0.491288,-1.89207 -9e-7,-0.93114 0.1827094,-1.82575 0.5481313,-2.68381 0.3654191,-0.85806 0.867534,-1.53476 1.5063461,-2.03012 0.6388063,-0.49534 1.3506996,-0.74301 2.1356821,-0.74302 0.3518814,1e-5 0.6807598,0.0393 0.9866364,0.11775 0.3058644,0.0785 0.6212088,0.2179 0.946034,0.4182 z m -0.7146008,2.4199 c 0.048716,-0.22196 0.081198,-0.41414 0.097446,-0.57656 0.016234,-0.1624 0.024355,-0.33834 0.024361,-0.52783 -6.4e-6,-0.41684 -0.089331,-0.72271 -0.2679754,-0.91761 -0.1786561,-0.19488 -0.4818198,-0.29233 -0.909492,-0.29233 -0.5576098,0 -1.0583713,0.22467 -1.5022858,0.67399 -0.443922,0.44934 -0.7903948,1.05161 -1.0394194,1.80681 -0.24903,0.7552 -0.3735437,1.50905 -0.3735414,2.26155 -2.3e-6,0.56302 0.077142,0.98393 0.2314332,1.26273 0.1542862,0.2788 0.4127874,0.4182 0.7755044,0.4182 0.3572967,0 0.7078298,-0.15429 1.0516001,-0.46286 0.3437616,-0.30858 0.6983549,-0.74844 1.0637808,-1.31958 0.3654151,-0.57114 0.6239163,-1.23025 0.7755043,-1.97733 z"
         style="font-style:normal;font-weight:normal;font-size:16.6307px;font-family:'Bitstream Vera Sans';fill:#000000;fill-opacity:1;stroke:none;stroke-width:1px;stroke-linecap:butt;stroke-linejoin:miter;stroke-opacity:1" />
      <path
         id="text6155-7"
         d="m 56.678533,138.68196 -0.747083,0.52783 -0.51971,-0.12993 2.103201,-9.28169 c 0.12451,-0.55218 0.186767,-0.95279 0.18677,-1.20182 -3e-6,-0.22737 -0.06903,-0.38707 -0.207072,-0.47911 -0.13805,-0.092 -0.385724,-0.14345 -0.743022,-0.15429 l 0.09745,-0.42227 2.054478,-0.0731 h 0.470987 l -1.429202,5.68433 0.105566,0.0325 c 0.52512,-0.70377 1.017761,-1.21265 1.477925,-1.52665 0.460154,-0.31398 0.920313,-0.47098 1.380479,-0.47099 0.59008,1e-5 1.048886,0.22468 1.376418,0.674 0.327518,0.44934 0.49128,1.08274 0.491288,1.90019 -8e-6,0.89326 -0.180011,1.77162 -0.540011,2.63509 -0.360014,0.86348 -0.859422,1.5483 -1.498225,2.05448 -0.638815,0.50617 -1.353416,0.75926 -2.143803,0.75926 -0.720017,0 -1.358827,-0.17594 -1.916429,-0.52783 z m 0.714601,-2.42802 c -0.08121,0.37896 -0.12181,0.74709 -0.121807,1.10439 -3e-6,0.42768 0.09338,0.73625 0.280156,0.92573 0.186767,0.18948 0.496698,0.28422 0.929793,0.28422 0.221955,0 0.433087,-0.0365 0.633396,-0.10963 0.2003,-0.0731 0.404665,-0.19354 0.613095,-0.36136 0.20842,-0.16782 0.406018,-0.38843 0.592794,-0.66182 0.186765,-0.27339 0.358648,-0.61039 0.515649,-1.011 0.15699,-0.4006 0.278797,-0.82963 0.365421,-1.28709 0.08661,-0.45745 0.129921,-0.8946 0.129928,-1.31146 -7e-6,-0.56301 -0.07986,-0.98527 -0.239554,-1.26679 -0.159709,-0.2815 -0.415503,-0.42226 -0.767384,-0.42226 -0.25986,0 -0.515655,0.0826 -0.767384,0.24767 -0.251739,0.16512 -0.531895,0.43851 -0.840468,0.82017 -0.308581,0.38167 -0.560315,0.7728 -0.755203,1.17341 -0.194894,0.40061 -0.36001,0.9122 -0.495348,1.53476 z"
         style="font-style:normal;font-weight:normal;font-size:16.6307px;font-family:'Bitstream Vera Sans';fill:#000000;fill-opacity:1;stroke:none;stroke-width:1px;stroke-linecap:butt;stroke-linejoin:miter;stroke-opacity:1" />
      <path
         id="text6159-4"
         d="m 103.37041,81.496044 c -0.0108,-0.41143 -0.0447,-0.709181 -0.10151,-0.893251 -0.0568,-0.184057 -0.14888,-0.322105 -0.27609,-0.414144 -0.12723,-0.09202 -0.30723,-0.13804 -0.54001,-0.138047 -0.54679,7e-6 -1.03807,0.217906 -1.47387,0.653697 -0.4358,0.435804 -0.79175,1.052959 -1.067839,1.851466 -0.276098,0.798516 -0.414146,1.565899 -0.414144,2.302151 -2e-6,0.552193 0.108271,0.962273 0.324819,1.230253 0.216544,0.26797 0.541364,0.40196 0.974454,0.40196 0.49264,0 0.91896,-0.0934 1.27897,-0.28016 0.36001,-0.18676 0.74031,-0.48045 1.14093,-0.88107 l 0.49535,0.49535 c -0.50889,0.56302 -1.02183,0.97446 -1.53883,1.23431 -0.51701,0.25986 -1.07326,0.38979 -1.66876,0.38979 -0.784976,0 -1.380476,-0.23279 -1.786497,-0.69836 -0.406025,-0.46558 -0.609036,-1.14228 -0.609035,-2.030121 -1e-6,-0.579256 0.108272,-1.215359 0.324818,-1.908309 0.216545,-0.692941 0.533243,-1.301975 0.950095,-1.827104 0.416848,-0.525117 0.904079,-0.917605 1.461679,-1.177467 0.55761,-0.259847 1.15311,-0.389775 1.78651,-0.389783 0.72,8e-6 1.38318,0.08121 1.98951,0.243614 l -0.3979,1.835225 z"
         style="font-style:normal;font-weight:normal;font-size:16.6307px;font-family:'Bitstream Vera Sans';fill:#000000;fill-opacity:1;stroke:none;stroke-width:1px;stroke-linecap:butt;stroke-linejoin:miter;stroke-opacity:1" />
    </g>
    <g
       transform="matrix(0.27757856,0,0,0.27757856,160.62725,1.9945224)"
       id="g2870">
      <path
         id="path3635-4"
         style="fill:#c0c0c0;fill-opacity:1;fill-rule:evenodd;stroke:none;stroke-width:0.7pt;marker-start:none;marker-end:none"
         d="m 82.521603,113.40087 c 1.222369,1.49614 1.000159,3.70247 -0.495991,4.92483 -1.49614,1.22236 -3.702469,1.00016 -4.92483,-0.49599 -1.22236,-1.49615 -1.000159,-3.70247 0.495991,-4.92483 1.49615,-1.22236 3.70247,-1.00016 4.92483,0.49599 z" />
      <path
         id="path3637-0"
         style="fill:#c0c0c0;fill-opacity:1;fill-rule:evenodd;stroke:none;stroke-width:1.75;stroke-linecap:butt;stroke-linejoin:miter;stroke-miterlimit:4;stroke-dasharray:none;stroke-opacity:1"
         d="m 96.404448,149.92941 0.03125,-0.28125 -0.125,-0.28125 -16.218755,-34.375 -0.25,-0.5 h -0.53125 -71.8727787 -0.71875 l -0.15625,0.71875 1.59375,1.03125 H 78.748193 l 15.875005,33.625 z" />
      <path
         id="path3639-98"
         style="fill:none;fill-rule:evenodd;stroke:#c0c0c0;stroke-width:1.75;stroke-linecap:butt;stroke-linejoin:miter;stroke-miterlimit:4;stroke-dasharray:none;stroke-opacity:1"
         d="M 79.759518,7.1585884 80.049922,114.89911" />
      <path
         id="path3623-4"
         style="fill:#000000;fill-rule:evenodd;stroke:none;stroke-width:0.7pt;marker-start:none;marker-end:none"
         d="m 7.3926243,119.0203 c -1.91792,0.23278 -3.66342,-1.13487 -3.89621,-3.05279 -0.23278,-1.91793 1.13487,-3.66343 3.0528,-3.89621 1.91792,-0.23278 3.6634307,1.13487 3.8962107,3.05279 0.232779,1.91793 -1.1348707,3.66343 -3.0528007,3.89621 z" />
      <path
         id="path3599-8"
         style="fill:#000000;fill-opacity:1;fill-rule:evenodd;stroke:none;stroke-width:1.75;stroke-linecap:butt;stroke-linejoin:miter;stroke-miterlimit:4;stroke-dasharray:none;stroke-opacity:1"
         d="M 6.1314113,5.7421794 6.1088343,115.4411 l -0.03125,0.28125 0.125,0.28125 16.2187487,34.375 0.25,0.5 h 0.53125 71.872784 0.71875 l 0.15625,-0.71875 0.02256,-109.230171 -1.71875,-0.34375 0.10244,108.542671 H 23.765083 L 7.8900843,115.5036 7.8501613,6.0859294 Z" />
      <path
         id="path3625-9"
         style="fill:#000000;fill-rule:evenodd;stroke:none;stroke-width:0.7pt;marker-start:none;marker-end:none"
         d="m 26.110073,151.82786 c -1.034109,1.63194 -3.197859,2.11714 -4.829809,1.08303 -1.63194,-1.03411 -2.117141,-3.19786 -1.083031,-4.82981 1.03411,-1.63194 3.19787,-2.11714 4.82981,-1.08303 1.63194,1.03411 2.117141,3.19787 1.08303,4.82981 z" />
      <path
         id="path2430-0"
         style="fill:#000000;fill-opacity:1;fill-rule:evenodd;stroke:none;stroke-width:1.75;stroke-linecap:butt;stroke-linejoin:miter;stroke-miterlimit:4;stroke-dasharray:none;stroke-opacity:1"
         d="m 5.7914743,5.9404324 0.59375,1.25 16.7187507,34.3749996 0.25,0.5 h 0.53125 71.872773 1.40625 l -0.59375,-1.25 -16.249992,-34.3749996 -0.21875,-0.5 h -0.5625 -72.3415317 z m 2.8125,1.75 H 79.008006 L 94.382998,40.315432 H 24.478975 Z" />
      <path
         id="path3627-9"
         style="fill:#000000;fill-rule:evenodd;stroke:none;stroke-width:0.7pt;marker-start:none;marker-end:none"
         d="m 97.745908,147.82181 c 1.222369,1.49614 1.000159,3.70247 -0.495991,4.92483 -1.49614,1.22236 -3.702469,1.00016 -4.92483,-0.49599 -1.222365,-1.49615 -1.000159,-3.70247 0.495991,-4.92483 1.49615,-1.22236 3.702469,-1.00016 4.92483,0.49599 z" />
      <path
         id="path3611-0"
         style="fill:#000000;fill-opacity:1;fill-rule:evenodd;stroke:none;stroke-width:0.7pt;marker-start:none;marker-end:none"
         d="m 93.162517,44.07905 c -1.63194,-1.03411 -2.117145,-3.19786 -1.08303,-4.82981 1.03411,-1.63194 3.197861,-2.11714 4.82981,-1.08303 1.63194,1.03411 2.117141,3.19787 1.083031,4.82981 -1.03411,1.63194 -3.197871,2.11714 -4.829811,1.08303 z" />
      <path
         id="path3613-58"
         style="fill:#000000;fill-opacity:1;fill-rule:evenodd;stroke:none;stroke-width:0.7pt;marker-start:none;marker-end:none"
         d="m 20.186726,39.362232 c 1.02487,-1.63776 3.18585,-2.13517 4.82361,-1.11029 1.63776,1.02488 2.135171,3.18586 1.110291,4.82362 -1.024881,1.63775 -3.185861,2.13516 -4.823611,1.11029 -1.63776,-1.02488 -2.13517,-3.18586 -1.11029,-4.82362 z" />
      <path
         id="path3609-0"
         style="fill:#000000;fill-opacity:1;fill-rule:evenodd;stroke:none;stroke-width:0.7pt;marker-start:none;marker-end:none"
         d="m 82.768025,8.6410224 c -1.03411,1.6319396 -3.197859,2.1171396 -4.829812,1.08303 -1.63194,-1.03411 -2.11714,-3.19786 -1.083031,-4.8298098 1.03411,-1.63194 3.197873,-2.11714 4.829813,-1.08303 1.631941,1.03411 2.117141,3.1978698 1.08303,4.8298098 z" />
      <path
         id="path3615-7"
         style="fill:#000000;fill-opacity:1;fill-rule:evenodd;stroke:none;stroke-width:0.7pt;marker-start:none;marker-end:none"
         d="m 8.8272933,3.8974926 c 1.6377607,1.02487 2.1351707,3.1858498 1.11029,4.8236098 -1.02488,1.6377596 -3.18586,2.1351696 -4.82362,1.11029 -1.63775,-1.02488 -2.13516,-3.18586 -1.11029,-4.82361 1.02488,-1.6377598 3.18586,-2.1351698 4.82362,-1.1102898 z" />
      <path
         id="path6134-3"
         style="fill:none;fill-rule:evenodd;stroke:#000000;stroke-width:1.75;stroke-linecap:butt;stroke-linejoin:miter;stroke-miterlimit:4;stroke-dasharray:none;stroke-opacity:1"
         d="M 23.283068,42.225744 23.573473,151.63427" />
      <path
         id="text6151-0"
         d="m 9.121872,129.27036 0.7470827,-0.53595 0.5197093,0.12993 -1.1937078,5.14837 c -0.1191071,0.5143 -0.1786571,0.91491 -0.1786502,1.20183 -6.9e-6,0.21655 0.035182,0.37354 0.105566,0.47099 0.07037,0.0974 0.1813499,0.14616 0.332939,0.14616 0.1624019,0 0.3356383,-0.0663 0.5197098,-0.19895 0.1840562,-0.13263 0.4439102,-0.38572 0.7795642,-0.75926 l 0.462867,0.45475 c -0.487237,0.51971 -0.902733,0.88919 -1.2464915,1.10844 -0.3437738,0.21925 -0.7159613,0.32888 -1.1165638,0.32888 -0.3356522,0 -0.6036273,-0.11098 -0.803926,-0.33294 -0.2003104,-0.22196 -0.3004627,-0.517 -0.3004571,-0.88513 -5.6e-6,-0.29775 0.062251,-0.61445 0.1867706,-0.9501 l -0.105566,-0.0325 c -0.5197149,0.75791 -1.0123559,1.31281 -1.4779245,1.6647 -0.465577,0.35188 -0.958218,0.52783 -1.4779244,0.52783 -0.5955029,0 -1.0570155,-0.22467 -1.3845392,-0.674 -0.3275264,-0.44933 -0.4912889,-1.08002 -0.4912881,-1.89207 -8e-7,-0.93114 0.1827094,-1.82575 0.5481314,-2.68381 0.3654191,-0.85806 0.867534,-1.53476 1.5063461,-2.03012 0.6388063,-0.49534 1.3506996,-0.74301 2.135682,-0.74302 0.3518814,1e-5 0.6807599,0.0393 0.9866364,0.11775 0.3058645,0.0785 0.6212089,0.2179 0.9460341,0.4182 z m -0.7146008,2.4199 c 0.048716,-0.22196 0.081198,-0.41414 0.097445,-0.57656 0.016235,-0.1624 0.024355,-0.33834 0.024361,-0.52783 -6.4e-6,-0.41684 -0.089331,-0.72271 -0.2679753,-0.91761 -0.1786561,-0.19488 -0.4818198,-0.29233 -0.909492,-0.29233 -0.5576098,0 -1.0583713,0.22467 -1.5022858,0.67399 -0.443922,0.44934 -0.7903948,1.05161 -1.0394195,1.80681 -0.2490299,0.7552 -0.3735436,1.50905 -0.3735413,2.26155 -2.3e-6,0.56302 0.077142,0.98393 0.2314332,1.26273 0.1542862,0.2788 0.4127873,0.4182 0.7755043,0.4182 0.3572968,0 0.7078298,-0.15429 1.0516002,-0.46286 0.3437616,-0.30858 0.6983548,-0.74844 1.0637808,-1.31958 0.3654151,-0.57114 0.6239163,-1.23025 0.7755043,-1.97733 z"
         style="font-style:normal;font-weight:normal;font-size:16.6307px;font-family:'Bitstream Vera Sans';fill:#000000;fill-opacity:1;stroke:none;stroke-width:1px;stroke-linecap:butt;stroke-linejoin:miter;stroke-opacity:1" />
      <path
         id="text6155-75"
         d="m 61.640136,154.28612 0.747083,-0.53595 0.51971,0.12993 -1.193709,5.14837 c -0.119107,0.5143 -0.178657,0.91491 -0.17865,1.20183 -7e-6,0.21655 0.03518,0.37354 0.105566,0.47099 0.07037,0.0974 0.18135,0.14617 0.332939,0.14617 0.162402,0 0.335639,-0.0663 0.51971,-0.19895 0.184056,-0.13264 0.44391,-0.38573 0.779565,-0.75927 l 0.462866,0.45475 c -0.487236,0.51971 -0.902733,0.88919 -1.246491,1.10844 -0.343774,0.21925 -0.715962,0.32888 -1.116564,0.32888 -0.335652,0 -0.603627,-0.11098 -0.803926,-0.33294 -0.20031,-0.22196 -0.300463,-0.517 -0.300457,-0.88513 -6e-6,-0.29775 0.06225,-0.61445 0.186771,-0.95009 l -0.105566,-0.0325 c -0.519715,0.75792 -1.012356,1.31281 -1.477925,1.6647 -0.465577,0.35189 -0.958218,0.52783 -1.477924,0.52783 -0.595503,0 -1.057016,-0.22467 -1.38454,-0.674 -0.327526,-0.44933 -0.491289,-1.08002 -0.491288,-1.89207 -10e-7,-0.93114 0.18271,-1.82574 0.548132,-2.68381 0.365419,-0.85806 0.867534,-1.53476 1.506346,-2.03012 0.638806,-0.49534 1.350699,-0.74301 2.135682,-0.74302 0.351881,1e-5 0.68076,0.0393 0.986636,0.11775 0.305865,0.0785 0.621209,0.2179 0.946034,0.4182 z m -0.714601,2.4199 c 0.04872,-0.22195 0.0812,-0.41414 0.09745,-0.57655 0.01624,-0.16241 0.02435,-0.33835 0.02436,-0.52783 -6e-6,-0.41685 -0.08933,-0.72272 -0.267975,-0.91762 -0.178656,-0.19488 -0.48182,-0.29233 -0.909492,-0.29233 -0.55761,0 -1.058371,0.22467 -1.502286,0.674 -0.443922,0.44933 -0.790395,1.0516 -1.039419,1.8068 -0.24903,0.75521 -0.373544,1.50906 -0.373542,2.26155 -2e-6,0.56302 0.07714,0.98393 0.231434,1.26273 0.154286,0.2788 0.412787,0.41821 0.775504,0.4182 0.357297,1e-5 0.70783,-0.15428 1.0516,-0.46286 0.343762,-0.30858 0.698355,-0.74844 1.063781,-1.31958 0.365415,-0.57113 0.623916,-1.23024 0.775504,-1.97733 z"
         style="font-style:normal;font-weight:normal;font-size:16.6307px;font-family:'Bitstream Vera Sans';fill:#000000;fill-opacity:1;stroke:none;stroke-width:1px;stroke-linecap:butt;stroke-linejoin:miter;stroke-opacity:1" />
      <path
         id="text6159-3"
         d="m 103.37041,93.642693 c -0.0108,-0.41143 -0.0447,-0.70918 -0.10151,-0.89325 -0.0568,-0.18405 -0.14888,-0.3221 -0.27609,-0.41414 -0.12723,-0.092 -0.30723,-0.13804 -0.54001,-0.13805 -0.54679,1e-5 -1.03807,0.21791 -1.47387,0.6537 -0.4358,0.4358 -0.79175,1.05296 -1.067839,1.85147 -0.276098,0.798509 -0.414146,1.565889 -0.414144,2.302149 -2e-6,0.55219 0.108271,0.96227 0.324819,1.23025 0.216544,0.26797 0.541364,0.40196 0.974454,0.40196 0.49264,0 0.91896,-0.0934 1.27897,-0.28016 0.36001,-0.18676 0.74031,-0.48045 1.14093,-0.88107 l 0.49535,0.49535 c -0.50889,0.56302 -1.02183,0.97446 -1.53883,1.23431 -0.51701,0.25986 -1.07326,0.38979 -1.66876,0.38979 -0.784976,0 -1.380476,-0.23279 -1.786497,-0.69836 -0.406025,-0.46558 -0.609036,-1.14228 -0.609035,-2.03012 -1e-6,-0.57926 0.108272,-1.21536 0.324818,-1.908309 0.216545,-0.69294 0.533243,-1.30198 0.950095,-1.8271 0.416848,-0.52512 0.904079,-0.91761 1.461679,-1.17747 0.55761,-0.25985 1.15311,-0.38978 1.78651,-0.38978 0.72,0 1.38318,0.0812 1.98951,0.24361 l -0.3979,1.83522 z"
         style="font-style:normal;font-weight:normal;font-size:16.6307px;font-family:'Bitstream Vera Sans';fill:#000000;fill-opacity:1;stroke:none;stroke-width:1px;stroke-linecap:butt;stroke-linejoin:miter;stroke-opacity:1" />
    </g>
    <g
       id="g6613"
       transform="matrix(0.21684894,0,0,0.21684894,280.40813,-32.741692)">
      <path
         style="fill:none;stroke:#c0c0c0;stroke-width:0.75;stroke-linecap:butt;stroke-linejoin:miter;stroke-miterlimit:4;stroke-dasharray:none;stroke-opacity:1"
         d="m -303.07177,353.92594 87.60809,-49.45849"
         id="path4676-5-7"
         inkscape:connector-curvature="0" />
      <path
         style="fill:none;stroke:#c0c0c0;stroke-width:0.75;stroke-linecap:butt;stroke-linejoin:miter;stroke-miterlimit:4;stroke-dasharray:none;stroke-opacity:1"
         d="m -286.81168,304.11458 -44.11047,25.1549 27.65845,25.15489 72.00738,0.11922 43.99126,-25.27411 -27.77768,-25.27411 z"
         id="path4494-5-7-7-1"
         inkscape:connector-curvature="0" />
      <rect
         style="fill:#000000;fill-opacity:0;fill-rule:evenodd;stroke:#c0c0c0;stroke-width:0.75;stroke-linejoin:round;stroke-miterlimit:4;stroke-dasharray:none;stroke-opacity:1"
         id="rect3970-3-5-8-1-6-6-9-2-5-9"
         width="71.870331"
         height="116.92113"
         x="-287.10526"
         y="187.1553"
         inkscape:export-filename="C:\Users\boris.averkiev\Desktop\Boris\Symmetry\HexagonalR.png"
         inkscape:export-xdpi="90"
         inkscape:export-ydpi="90" />
      <rect
         style="fill:#000000;fill-opacity:0;fill-rule:evenodd;stroke:#c0c0c0;stroke-width:0.872891;stroke-linejoin:round;stroke-miterlimit:4;stroke-dasharray:none;stroke-opacity:1"
         id="rect3990-21-8-1-7-3-7-1-7-2-6"
         width="37.620148"
         height="116.85934"
         x="-388.95496"
         y="449.30716"
         transform="matrix(0.73824792,0.67452947,0,1,0,0)"
         inkscape:export-filename="C:\Users\boris.averkiev\Desktop\Boris\Symmetry\HexagonalR.png"
         inkscape:export-xdpi="90"
         inkscape:export-ydpi="90" />
      <rect
         style="fill:#000000;fill-opacity:0;fill-rule:evenodd;stroke:#c0c0c0;stroke-width:0.75;stroke-linejoin:round;stroke-miterlimit:4;stroke-dasharray:none;stroke-opacity:1"
         id="rect3970-3-5-8-1-6-6-9-2-6-7-4"
         width="71.870331"
         height="116.92113"
         x="-259.40768"
         y="212.47849"
         inkscape:export-filename="C:\Users\boris.averkiev\Desktop\Boris\Symmetry\HexagonalR.png"
         inkscape:export-xdpi="90"
         inkscape:export-ydpi="90" />
      <path
         style="fill:none;stroke:#787878;stroke-width:1.73457;stroke-linecap:butt;stroke-linejoin:miter;stroke-miterlimit:4;stroke-dasharray:none;stroke-opacity:1"
         d="m -259.62191,329.06061 27.49707,25.13667"
         id="path4782-0"
         inkscape:connector-curvature="0" />
      <rect
         style="fill:#000000;fill-opacity:0;fill-rule:evenodd;stroke:#787878;stroke-width:1.75;stroke-linejoin:round;stroke-miterlimit:4;stroke-dasharray:none;stroke-opacity:1"
         id="rect3970-3-5-8-1-6-6-9-0-3-6"
         width="71.870331"
         height="116.92113"
         x="-331.16013"
         y="212.47849"
         inkscape:export-filename="C:\Users\boris.averkiev\Desktop\Boris\Symmetry\HexagonalR.png"
         inkscape:export-xdpi="90"
         inkscape:export-ydpi="90" />
      <path
         style="fill:none;stroke:#c0c0c0;stroke-width:0.75;stroke-linecap:butt;stroke-linejoin:miter;stroke-miterlimit:4;stroke-dasharray:none;stroke-opacity:1"
         d="m -286.81168,187.22282 -44.11047,25.1549 27.65845,25.15489 72.00738,0.11922 43.99126,-25.27411 -27.77768,-25.27411 z"
         id="path4494-5-4-8"
         inkscape:connector-curvature="0" />
      <path
         inkscape:connector-curvature="0"
         id="path3611-42-3-4-8"
         style="fill:#c0c0c0;fill-opacity:1;fill-rule:evenodd;stroke:none;stroke-width:0.75;marker-start:none;marker-end:none"
         d="m -288.83488,190.22993 c -1.63194,-1.03411 -2.11714,-3.19786 -1.08303,-4.82981 1.03411,-1.63194 3.19786,-2.11714 4.82982,-1.08303 1.63194,1.03411 2.11714,3.19787 1.08303,4.82981 -1.03411,1.63194 -3.19788,2.11714 -4.82982,1.08303 z" />
      <path
         inkscape:connector-curvature="0"
         id="path6883-1-1-7-4"
         style="fill:#c0c0c0;fill-opacity:1;fill-rule:evenodd;stroke:none;stroke-width:0.75;marker-start:none;marker-end:none"
         d="m -284.29873,301.83266 c 1.22237,1.49614 1.00016,3.70247 -0.49599,4.92483 -1.49614,1.22236 -3.70248,1.00016 -4.92484,-0.49599 -1.22236,-1.49615 -1.00016,-3.70247 0.49599,-4.92483 1.49615,-1.22236 3.70248,-1.00016 4.92484,0.49599 z" />
      <rect
         style="fill:#000000;fill-opacity:0;fill-rule:evenodd;stroke:#c0c0c0;stroke-width:0.872891;stroke-linejoin:round;stroke-miterlimit:4;stroke-dasharray:none;stroke-opacity:1"
         id="rect3990-21-8-1-7-3-7-1-7-7-1-1"
         width="37.620148"
         height="116.85934"
         x="-291.53369"
         y="383.59375"
         transform="matrix(0.73824792,0.67452947,0,1,0,0)"
         inkscape:export-filename="C:\Users\boris.averkiev\Desktop\Boris\Symmetry\HexagonalR.png"
         inkscape:export-xdpi="90"
         inkscape:export-ydpi="90" />
      <path
         inkscape:connector-curvature="0"
         id="path3611-42-3-5-7-4"
         style="fill:#c0c0c0;fill-opacity:1;fill-rule:evenodd;stroke:none;stroke-width:0.75;marker-start:none;marker-end:none"
         d="m -217.08242,190.22993 c -1.63194,-1.03411 -2.11714,-3.19786 -1.08303,-4.82981 1.03411,-1.63194 3.19786,-2.11714 4.82982,-1.08303 1.63194,1.03411 2.11714,3.19787 1.08303,4.82981 -1.03411,1.63194 -3.19788,2.11714 -4.82982,1.08303 z" />
      <path
         inkscape:connector-curvature="0"
         id="path6883-1-1-8-7-3"
         style="fill:#c0c0c0;fill-opacity:1;fill-rule:evenodd;stroke:none;stroke-width:0.75;marker-start:none;marker-end:none"
         d="m -212.54627,301.83266 c 1.22237,1.49614 1.00016,3.70247 -0.49599,4.92483 -1.49614,1.22236 -3.70248,1.00016 -4.92484,-0.49599 -1.22236,-1.49615 -1.00016,-3.70247 0.49599,-4.92483 1.49615,-1.22236 3.70248,-1.00016 4.92484,0.49599 z" />
      <path
         inkscape:connector-curvature="0"
         id="path3611-5-4-5-8-9"
         style="fill:#000000;fill-opacity:1;fill-rule:evenodd;stroke:none;stroke-width:0.75;marker-start:none;marker-end:none"
         d="m -233.49388,240.46955 c -1.63195,-1.03411 -2.11715,-3.19786 -1.08303,-4.82981 1.03411,-1.63194 3.19786,-2.11714 4.82981,-1.08303 1.63194,1.03411 2.11714,3.19787 1.08303,4.82981 -1.03411,1.63194 -3.19787,2.11714 -4.82981,1.08303 z" />
      <path
         inkscape:connector-curvature="0"
         id="path3611-27-3-0-1-8"
         style="fill:#000000;fill-opacity:1;fill-rule:evenodd;stroke:none;stroke-width:0.75;marker-start:none;marker-end:none"
         d="m -332.91476,215.55309 c -1.63194,-1.03411 -2.11715,-3.19786 -1.08303,-4.82981 1.03411,-1.63194 3.19786,-2.11714 4.82981,-1.08303 1.63194,1.03411 2.11714,3.19787 1.08303,4.82981 -1.03411,1.63194 -3.19787,2.11714 -4.82981,1.08303 z" />
      <path
         inkscape:connector-curvature="0"
         id="path3611-1-2-0-2-8"
         style="fill:#000000;fill-opacity:1;fill-rule:evenodd;stroke:none;stroke-width:0.75;marker-start:none;marker-end:none"
         d="m -233.54154,357.24313 c -1.63195,-1.03411 -2.11715,-3.19786 -1.08304,-4.82981 1.03412,-1.63194 3.19787,-2.11714 4.82982,-1.08303 1.63194,1.03411 2.11714,3.19787 1.08303,4.82981 -1.03411,1.63194 -3.19787,2.11714 -4.82981,1.08303 z" />
      <path
         inkscape:connector-curvature="0"
         id="path3611-42-3-5-6-0-0"
         style="fill:#c0c0c0;fill-opacity:1;fill-rule:evenodd;stroke:none;stroke-width:0.75;marker-start:none;marker-end:none"
         d="m -189.38484,215.55309 c -1.63194,-1.03411 -2.11714,-3.19786 -1.08303,-4.82981 1.03411,-1.63194 3.19786,-2.11714 4.82982,-1.08303 1.63194,1.03411 2.11714,3.19787 1.08303,4.82981 -1.03411,1.63194 -3.19788,2.11714 -4.82982,1.08303 z" />
      <path
         inkscape:connector-curvature="0"
         id="path6883-1-1-8-0-9-8"
         style="fill:#c0c0c0;fill-opacity:1;fill-rule:evenodd;stroke:none;stroke-width:0.75;marker-start:none;marker-end:none"
         d="m -184.84869,327.15583 c 1.22237,1.49614 1.00016,3.70247 -0.49599,4.92483 -1.49614,1.22236 -3.70248,1.00016 -4.92484,-0.49599 -1.22236,-1.49615 -1.00016,-3.70247 0.49599,-4.92483 1.49615,-1.22236 3.70248,-1.00016 4.92484,0.49599 z" />
      <path
         style="fill:none;stroke:#c0c0c0;stroke-width:0.75;stroke-linecap:butt;stroke-linejoin:miter;stroke-miterlimit:4;stroke-dasharray:none;stroke-opacity:1"
         d="m -303.07048,237.38954 87.36709,-49.9328"
         id="path4676-7"
         inkscape:connector-curvature="0" />
      <rect
         style="fill:#000000;fill-opacity:0;fill-rule:evenodd;stroke:#000000;stroke-width:2.03675;stroke-linejoin:round;stroke-miterlimit:4;stroke-dasharray:none;stroke-opacity:1"
         id="rect3990-21-8-1-7-3-7-1-7-4-5-1-8"
         width="37.620148"
         height="116.85934"
         x="-448.46152"
         y="514.7702"
         transform="matrix(0.73824792,0.67452947,0,1,0,0)"
         inkscape:export-filename="C:\Users\boris.averkiev\Desktop\Boris\Symmetry\HexagonalR.png"
         inkscape:export-xdpi="90"
         inkscape:export-ydpi="90" />
      <path
         inkscape:connector-curvature="0"
         id="path3611-3-3-6-6-3"
         style="fill:#000000;fill-opacity:1;fill-rule:evenodd;stroke:none;stroke-width:0.75;marker-start:none;marker-end:none"
         d="m -332.96241,332.32667 c -1.63194,-1.03411 -2.11715,-3.19786 -1.08303,-4.82981 1.03411,-1.63194 3.19786,-2.11714 4.82981,-1.08303 1.63193,1.03411 2.11713,3.19787 1.08302,4.82981 -1.0341,1.63194 -3.19786,2.11714 -4.8298,1.08303 z" />
      <path
         inkscape:connector-curvature="0"
         id="path3611-2-4-1-0-8"
         style="fill:#000000;fill-opacity:1;fill-rule:evenodd;stroke:none;stroke-width:0.75;marker-start:none;marker-end:none"
         d="m -305.24507,357.24313 c -1.63194,-1.03411 -2.11714,-3.19786 -1.08303,-4.82981 1.03411,-1.63194 3.19786,-2.11714 4.82981,-1.08303 1.63194,1.03411 2.11714,3.19787 1.08303,4.82981 -1.03411,1.63194 -3.19787,2.11714 -4.82981,1.08303 z" />
      <path
         inkscape:connector-curvature="0"
         id="path3611-6-1-9-8-3"
         style="fill:#000000;fill-opacity:1;fill-rule:evenodd;stroke:none;stroke-width:0.75;marker-start:none;marker-end:none"
         d="m -305.19742,240.46955 c -1.63194,-1.03411 -2.11714,-3.19786 -1.08303,-4.82981 1.03411,-1.63194 3.19786,-2.11714 4.82981,-1.08303 1.63194,1.03411 2.11714,3.19787 1.08303,4.82981 -1.03411,1.63194 -3.19787,2.11714 -4.82981,1.08303 z" />
      <path
         style="fill:none;stroke:#000000;stroke-width:1.75;stroke-linecap:butt;stroke-linejoin:miter;stroke-miterlimit:4;stroke-dasharray:none;stroke-opacity:1"
         d="m -331.28242,212.4927 h 71.87031 l 27.7837,25.16613"
         id="path4381-2-6-0-7"
         inkscape:connector-curvature="0"
         inkscape:export-filename="C:\Users\boris.averkiev\Desktop\Boris\Symmetry\HexagonalR.png"
         inkscape:export-xdpi="90"
         inkscape:export-ydpi="90" />
      <rect
         style="fill:#000000;fill-opacity:0;fill-rule:evenodd;stroke:#000000;stroke-width:1.75;stroke-linejoin:round;stroke-miterlimit:4;stroke-dasharray:none;stroke-opacity:1"
         id="rect3970-1-2-7-9-2-4-9-9-8-9-1"
         width="71.870331"
         height="116.92113"
         x="-303.37643"
         y="237.58266"
         inkscape:export-filename="C:\Users\boris.averkiev\Desktop\Boris\Symmetry\HexagonalR.png"
         inkscape:export-xdpi="90"
         inkscape:export-ydpi="90" />
      <path
         inkscape:connector-curvature="0"
         id="path6883-1-1-3-3-0"
         style="fill:#787878;fill-opacity:1;fill-rule:evenodd;stroke:none;stroke-width:0.75;marker-start:none;marker-end:none"
         d="m -256.60114,327.15583 c 1.22237,1.49614 1.00016,3.70247 -0.49599,4.92483 -1.49614,1.22236 -3.70248,1.00016 -4.92484,-0.49599 -1.22236,-1.49615 -1.00016,-3.70247 0.49599,-4.92483 1.49615,-1.22236 3.70248,-1.00016 4.92484,0.49599 z" />
      <path
         inkscape:connector-curvature="0"
         id="path3611-42-3-0-6-7"
         style="fill:#000000;fill-opacity:1;fill-rule:evenodd;stroke:none;stroke-width:0.75;marker-start:none;marker-end:none"
         d="m -261.13729,215.55309 c -1.63194,-1.03411 -2.11714,-3.19786 -1.08303,-4.82981 1.03411,-1.63194 3.19786,-2.11714 4.82982,-1.08303 1.63194,1.03411 2.11714,3.19787 1.08303,4.82981 -1.03411,1.63194 -3.19788,2.11714 -4.82982,1.08303 z" />
      <path
         inkscape:connector-curvature="0"
         style="font-style:normal;font-weight:normal;font-size:16.6307px;font-family:'Bitstream Vera Sans';fill:#000000;fill-opacity:1;stroke:none"
         d="m -334.95494,273.1733 c -0.0139,-0.5276 -0.0574,-0.90943 -0.13017,-1.14547 -0.0729,-0.23602 -0.19093,-0.41306 -0.35405,-0.53109 -0.16316,-0.11798 -0.39399,-0.17701 -0.6925,-0.17703 -0.70119,2e-5 -1.33119,0.27944 -1.89005,0.83829 -0.55886,0.55885 -1.01532,1.35029 -1.36937,2.37429 -0.35406,1.02398 -0.53109,2.00804 -0.53109,2.95221 0,0.70811 0.13885,1.23398 0.41654,1.57763 0.27769,0.34364 0.69423,0.51547 1.24962,0.51547 0.63174,0 1.17845,-0.11979 1.64011,-0.35928 0.46167,-0.23949 0.94935,-0.61611 1.46309,-1.12985 l 0.63523,0.63521 c -0.65259,0.72201 -1.31036,1.24963 -1.97335,1.58286 -0.663,0.33323 -1.37631,0.49986 -2.13997,0.49986 -1.00664,0 -1.77028,-0.29854 -2.29095,-0.89557 -0.52067,-0.59704 -0.78102,-1.46483 -0.78101,-2.60337 -1e-5,-0.74283 0.13885,-1.55854 0.41653,-2.44716 0.27769,-0.8886 0.68382,-1.66963 1.21838,-2.34304 0.53455,-0.67339 1.15937,-1.17671 1.87442,-1.50994 0.71505,-0.33323 1.47871,-0.49985 2.29096,-0.49985 0.92331,0 1.77376,0.10419 2.55129,0.3124 l -0.51025,2.35343 z"
         id="text6159-1-0" />
      <path
         inkscape:connector-curvature="0"
         d="m -287.79801,216.3069 c -0.68228,0.82294 -1.68105,2.17692 -2.99633,4.06192 -1.3153,1.88502 -2.54267,3.75597 -3.68211,5.61285 -0.23212,1.46299 -0.52753,2.84159 -0.88624,4.13578 h -1.57202 l -0.30597,-0.49587 c 0.28135,-1.10429 0.78425,-2.32111 1.50872,-3.65046 0.0633,-1.32936 0.0949,-2.68685 0.0949,-4.07248 0,-1.17461 -0.0246,-2.08547 -0.0738,-2.73257 -0.0492,-0.64709 -0.12133,-1.13416 -0.21628,-1.46124 -0.095,-0.32705 -0.2075,-0.55213 -0.33762,-0.67523 -0.13012,-0.12308 -0.29014,-0.18462 -0.48004,-0.18463 -0.39389,1e-5 -0.84756,0.28487 -1.36101,0.85459 l -0.59083,-0.59083 c 0.33762,-0.30244 0.59962,-0.53103 0.78601,-0.68578 0.18639,-0.15473 0.37982,-0.29188 0.58028,-0.41147 0.20045,-0.11956 0.40795,-0.21275 0.62247,-0.27958 0.21453,-0.0668 0.45543,-0.10022 0.72271,-0.10023 0.68929,10e-6 1.1922,0.26377 1.50872,0.79128 0.3165,0.52753 0.47476,1.39619 0.47477,2.60597 -10e-6,1.4208 -0.0668,2.96116 -0.20046,4.6211 h 0.095 c 1.70917,-2.86972 3.12293,-5.48623 4.24129,-7.84954 h 2.20504 l -0.13715,0.50642 z"
         style="font-style:normal;font-weight:normal;font-size:21.6073px;font-family:'Bitstream Vera Sans';fill:#008000;fill-opacity:1;stroke:none"
         id="text3663-2" />
      <path
         inkscape:connector-curvature="0"
         d="m -264.08634,357.53713 0.97064,-0.69633 0.67523,0.16881 -1.55092,6.68899 c -0.15475,0.6682 -0.23212,1.18868 -0.23211,1.56147 -10e-6,0.28134 0.0457,0.48532 0.13716,0.61192 0.0914,0.12661 0.23561,0.18991 0.43256,0.18991 0.211,0 0.43608,-0.0862 0.67523,-0.25849 0.23914,-0.17232 0.57675,-0.50114 1.01285,-0.98646 l 0.60137,0.59082 c -0.63303,0.67523 -1.17287,1.15528 -1.61949,1.44014 -0.44665,0.28486 -0.93021,0.42729 -1.45069,0.42729 -0.43609,0 -0.78426,-0.14419 -1.04449,-0.43257 -0.26026,-0.28837 -0.39038,-0.67171 -0.39037,-1.15 -10e-6,-0.38684 0.0809,-0.79831 0.24266,-1.2344 l -0.13716,-0.0422 c -0.67523,0.98471 -1.31529,1.70566 -1.92018,2.16284 -0.6049,0.45719 -1.24496,0.68578 -1.92018,0.68578 -0.77371,0 -1.37332,-0.29189 -1.79886,-0.87569 -0.42553,-0.58379 -0.6383,-1.4032 -0.6383,-2.45825 0,-1.20978 0.23738,-2.37209 0.71216,-3.48693 0.47476,-1.11482 1.12713,-1.99403 1.95711,-2.63761 0.82996,-0.64357 1.75488,-0.96536 2.77477,-0.96537 0.45718,10e-6 0.88447,0.051 1.28188,0.15298 0.39739,0.102 0.8071,0.28311 1.22913,0.54335 z m -0.92844,3.14404 c 0.0633,-0.28838 0.10549,-0.53807 0.1266,-0.74909 0.0211,-0.211 0.0316,-0.43959 0.0317,-0.68578 -1e-5,-0.54158 -0.11606,-0.93898 -0.34816,-1.1922 -0.23212,-0.2532 -0.626,-0.37981 -1.18165,-0.37981 -0.72448,0 -1.37509,0.2919 -1.95184,0.87568 -0.57676,0.5838 -1.02691,1.36629 -1.35046,2.34748 -0.32355,0.9812 -0.48532,1.96063 -0.48532,2.9383 0,0.7315 0.10023,1.27837 0.30069,1.6406 0.20045,0.36223 0.53631,0.54335 1.00757,0.54335 0.46421,0 0.91964,-0.20046 1.36628,-0.60138 0.44663,-0.40091 0.90734,-0.9724 1.38211,-1.71445 0.47477,-0.74204 0.81062,-1.59839 1.00757,-2.56903 l 0.095,-0.45367 z"
         style="font-style:normal;font-weight:normal;font-size:21.6073px;font-family:'Bitstream Vera Sans';fill:#000000;fill-opacity:1;stroke:none"
         id="text3671" />
      <path
         inkscape:connector-curvature="0"
         d="m -320.87205,343.42999 0.97064,-0.69633 0.67523,0.16881 -1.55092,6.68899 c -0.15475,0.6682 -0.23212,1.18868 -0.23211,1.56147 -1e-5,0.28134 0.0457,0.48532 0.13716,0.61192 0.0914,0.12661 0.23561,0.18991 0.43256,0.18991 0.211,0 0.43608,-0.0862 0.67523,-0.25849 0.23914,-0.17232 0.57675,-0.50114 1.01285,-0.98646 l 0.60137,0.59082 c -0.63303,0.67523 -1.17287,1.15528 -1.61949,1.44014 -0.44665,0.28486 -0.93021,0.42729 -1.45069,0.42729 -0.43609,0 -0.78426,-0.14419 -1.04449,-0.43257 -0.26026,-0.28837 -0.39038,-0.67171 -0.39037,-1.15 -10e-6,-0.38684 0.0809,-0.79831 0.24266,-1.2344 l -0.13716,-0.0422 c -0.67523,0.98471 -1.31529,1.70566 -1.92018,2.16284 -0.6049,0.45719 -1.24496,0.68578 -1.92018,0.68578 -0.77371,0 -1.37332,-0.29189 -1.79886,-0.87569 -0.42553,-0.58379 -0.6383,-1.4032 -0.6383,-2.45825 0,-1.20978 0.23738,-2.37209 0.71216,-3.48693 0.47476,-1.11482 1.12713,-1.99403 1.95711,-2.63761 0.82996,-0.64357 1.75488,-0.96536 2.77477,-0.96537 0.45718,1e-5 0.88447,0.051 1.28188,0.15298 0.39739,0.102 0.8071,0.28311 1.22913,0.54335 z m -0.92844,3.14404 c 0.0633,-0.28838 0.10549,-0.53807 0.1266,-0.74909 0.0211,-0.211 0.0316,-0.43959 0.0317,-0.68578 -10e-6,-0.54158 -0.11606,-0.93898 -0.34816,-1.1922 -0.23212,-0.2532 -0.626,-0.37981 -1.18165,-0.37981 -0.72448,0 -1.37509,0.2919 -1.95184,0.87568 -0.57676,0.5838 -1.02691,1.36629 -1.35046,2.34748 -0.32355,0.9812 -0.48532,1.96063 -0.48532,2.9383 0,0.7315 0.10023,1.27837 0.30069,1.6406 0.20045,0.36223 0.53631,0.54335 1.00757,0.54335 0.46421,0 0.91964,-0.20046 1.36628,-0.60138 0.44663,-0.40091 0.90734,-0.9724 1.38211,-1.71445 0.47477,-0.74204 0.81062,-1.59839 1.00757,-2.56903 l 0.095,-0.45367 z"
         style="font-style:normal;font-weight:normal;font-size:21.6073px;font-family:'Bitstream Vera Sans';fill:#000000;fill-opacity:1;stroke:none"
         id="text3671-3" />
      <text
         xml:space="preserve"
         style="font-style:normal;font-weight:normal;line-height:0%;font-family:sans-serif;letter-spacing:0px;word-spacing:0px;fill:#000000;fill-opacity:1;stroke:none"
         x="-268.77371"
         y="186.18213"
         id="text6506"><tspan
           style="font-size:40px;line-height:1.25;font-family:sans-serif"
           sodipodi:role="line"
           id="tspan6508"
           x="-268.77371"
           y="186.18213"> </tspan></text>
      <g
         transform="translate(-351.80734,137.9601)"
         id="g3071">
        <path
           sodipodi:nodetypes="cscccccccccscccccccccccccscccccscccccscccccccscccsc"
           inkscape:connector-curvature="0"
           d="m 44.744808,32.195188 c -0.68227,0.82295 -1.68105,2.17692 -2.99633,4.06193 -1.3153,1.88502 -2.54267,3.75596 -3.68211,5.61284 -0.23212,1.463 -0.52753,2.84159 -0.88624,4.13578 h -1.57202 l -0.30596,-0.49587 c 0.28134,-1.10428 0.78425,-2.3211 1.50871,-3.65046 0.0633,-1.32935 0.09495,-2.68685 0.09496,-4.07247 -10e-6,-1.17462 -0.02462,-2.08547 -0.07386,-2.73257 -0.04923,-0.64709 -0.12133,-1.13417 -0.21628,-1.46124 -0.09496,-0.32706 -0.20749,-0.55213 -0.33761,-0.67523 -0.13013,-0.12308 -0.29014,-0.18463 -0.48005,-0.18463 -0.39389,0 -0.84755,0.28487 -1.36101,0.85458 l -0.59082,-0.59082 c 0.33761,-0.30244 0.59961,-0.53103 0.786,-0.68578 0.18639,-0.15473 0.37982,-0.29189 0.58028,-0.41147 0.20046,-0.11956 0.40795,-0.21276 0.62248,-0.27959 0.21452,-0.06681 0.45542,-0.10022 0.7227,-0.10023 0.6893,10e-6 1.1922,0.26377 1.50872,0.79129 0.31651,0.52753 0.47476,1.39618 0.47477,2.60596 -10e-6,1.4208 -0.06683,2.96117 -0.20046,4.6211 h 0.09495 c 1.70917,-2.86972 3.12293,-5.48623 4.24129,-7.84954 h 2.20505 z m 55.933932,1.31881 c -0.61192,10e-6 -1.15175,-0.13715 -1.61948,-0.41147 -0.46774,-0.2743 -0.82822,-0.65236 -1.08142,-1.13417 -0.25322,-0.4818 -0.37982,-1.02515 -0.37982,-1.63005 0,-0.59785 0.1354,-1.13768 0.40619,-1.61949 0.2708,-0.4818 0.64884,-0.85458 1.13418,-1.11835 0.48532,-0.26375 1.03394,-0.39563 1.64587,-0.39565 0.60489,2e-5 1.14472,0.13366 1.61948,0.40092 0.47477,0.26729 0.84403,0.64008 1.1078,1.11835 0.26376,0.4783 0.39564,1.01989 0.39564,1.62477 0,0.59787 -0.13892,1.1377 -0.41674,1.6195 -0.27783,0.48181 -0.66293,0.85987 -1.15527,1.13417 -0.49235,0.27432 -1.04449,0.41148 -1.65643,0.41147 z m 0.0633,-5.26468 c -0.39389,10e-6 -0.74556,0.08969 -1.05504,0.26904 -0.30948,0.17937 -0.54864,0.4273 -0.71743,0.7438 -0.16881,0.31653 -0.25321,0.67876 -0.25321,1.0867 0,0.40796 0.0826,0.77195 0.24793,1.09197 0.16529,0.32004 0.40444,0.56974 0.71744,0.74909 0.31299,0.17936 0.66643,0.26904 1.06032,0.26903 0.40091,1e-5 0.75787,-0.08967 1.07087,-0.26903 0.31298,-0.17935 0.55388,-0.42905 0.72269,-0.74909 0.16881,-0.32002 0.25321,-0.68401 0.25322,-1.09197 -1e-5,-0.40794 -0.0844,-0.77017 -0.25322,-1.0867 -0.16881,-0.3165 -0.40971,-0.56443 -0.72269,-0.7438 -0.313,-0.17935 -0.66996,-0.26903 -1.07088,-0.26904 z"
           style="font-style:normal;font-weight:normal;font-size:21.6073px;font-family:'Bitstream Vera Sans';fill:#000000;fill-opacity:1;stroke:none"
           id="path3648" />
        <path
           inkscape:connector-curvature="0"
           id="path3616"
           d="m 49.287466,36.990665 h 12.99816 v 1.40322 h -12.99816 z"
           style="font-style:normal;font-weight:normal;font-size:21.6073px;font-family:'Bitstream Vera Sans';fill:#000000;fill-opacity:1;stroke:none"
           sodipodi:nodetypes="ccccc" />
        <path
           inkscape:connector-curvature="0"
           id="path3614"
           d="m 62.285626,34.015445 h -12.99816 v -1.403219 h 12.99816 z"
           style="font-style:normal;font-weight:normal;font-size:21.6073px;font-family:'Bitstream Vera Sans';fill:#000000;fill-opacity:1;stroke:none"
           sodipodi:nodetypes="ccccc" />
      </g>
      <text
         xml:space="preserve"
         style="font-style:normal;font-variant:normal;font-weight:normal;font-stretch:normal;line-height:0%;font-family:sans-serif;-inkscape-font-specification:Sans;text-align:start;letter-spacing:0px;word-spacing:0px;writing-mode:lr-tb;text-anchor:start;fill:#000000;fill-opacity:1;stroke:none"
         x="-277.12753"
         y="179.21272"
         id="text6447"><tspan
           style="font-size:20px;line-height:0.5;font-family:sans-serif"
           sodipodi:role="line"
           id="tspan6552"
           x="-277.12753"
           y="179.21272">2</tspan></text>
      <text
         xml:space="preserve"
         style="font-style:normal;font-variant:normal;font-weight:normal;font-stretch:normal;line-height:0%;font-family:sans-serif;-inkscape-font-specification:Sans;text-align:start;letter-spacing:0px;word-spacing:0px;writing-mode:lr-tb;text-anchor:start;fill:#000000;fill-opacity:1;stroke:none"
         x="-286.54437"
         y="179.21272"
         id="text6447-2"><tspan
           style="font-size:20px;line-height:0.5;font-family:sans-serif"
           sodipodi:role="line"
           id="tspan6550"
           x="-286.54437"
           y="179.21272">1</tspan></text>
      <path
         inkscape:connector-curvature="0"
         d="m -310.3294,230.08219 c 8.74424,-1.87897 16.13724,0.20365 16.05546,6.68904"
         style="fill:none;stroke:#008000;stroke-width:0.905002px;stroke-linecap:butt;stroke-linejoin:miter;stroke-opacity:1"
         id="path3679-7"
         sodipodi:nodetypes="cc" />
      <text
         xml:space="preserve"
         style="font-style:normal;font-variant:normal;font-weight:normal;font-stretch:normal;line-height:0%;font-family:sans-serif;-inkscape-font-specification:Sans;text-align:start;letter-spacing:0px;word-spacing:0px;writing-mode:lr-tb;text-anchor:start;fill:#000000;fill-opacity:1;stroke:none"
         x="-266.78006"
         y="179.21272"
         id="text6447-26"><tspan
           style="font-size:20px;line-height:0.5;font-family:sans-serif"
           sodipodi:role="line"
           id="tspan6609"
           x="-266.78006"
           y="179.21272">0</tspan></text>
    </g>
    <g
       transform="matrix(0.36275835,0,0,0.36275835,256.05918,1.8137921)"
       id="g3053">
      <path
         d="m 82.52376,75.911003 c 1.22237,1.49614 1.00016,3.70247 -0.49599,4.92483 -1.49614,1.22236 -3.70247,1.00016 -4.92483,-0.49599 -1.22236,-1.49615 -1.00016,-3.70247 0.49599,-4.92483 1.49615,-1.22236 3.70247,-1.00016 4.92483,0.49599 z"
         style="fill:#c0c0c0;fill-opacity:1;fill-rule:evenodd;stroke:none;stroke-width:0.7pt;marker-start:none;marker-end:none"
         id="path3635-3" />
      <path
         d="m 96.406605,112.43954 0.03125,-0.28125 -0.125,-0.28125 -16.218755,-34.374997 -0.25,-0.5 H 79.31285 7.4400724 6.7213223 l -0.15625,0.71875 1.5937501,1.03125 H 78.75035 l 15.875005,33.624997 z"
         style="fill:#c0c0c0;fill-opacity:1;fill-rule:evenodd;stroke:none;stroke-width:1.75;stroke-linecap:butt;stroke-linejoin:miter;stroke-miterlimit:4;stroke-dasharray:none;stroke-opacity:1"
         id="path3637-4" />
      <path
         d="M 79.761675,7.65961 80.05208,77.409243"
         style="fill:none;fill-rule:evenodd;stroke:#c0c0c0;stroke-width:1.75;stroke-linecap:butt;stroke-linejoin:miter;stroke-miterlimit:4;stroke-dasharray:none;stroke-opacity:1"
         id="path3639-981" />
      <path
         d="m 7.3947824,81.530433 c -1.9179201,0.23278 -3.6634201,-1.13487 -3.8962101,-3.05279 -0.23278,-1.91793 1.13487,-3.66343 3.0528,-3.89621 1.9179201,-0.23278 3.6634297,1.13487 3.8962097,3.05279 0.232779,1.91793 -1.1348696,3.66343 -3.0527996,3.89621 z"
         style="fill:#000000;fill-rule:evenodd;stroke:none;stroke-width:0.7pt;marker-start:none;marker-end:none"
         id="path3623-9" />
      <path
         d="m 6.1335693,3.932944 -0.022577,74.018289 -0.03125,0.28125 0.125,0.28125 16.2187487,34.374997 0.25,0.5 h 0.53125 71.872784 0.71875 l 0.15625,-0.71875 0.02256,-73.549537 -1.71875,-0.34375 0.10244,72.862037 H 23.767241 L 7.8922424,78.013733 7.8523194,4.276694 Z"
         style="fill:#000000;fill-opacity:1;fill-rule:evenodd;stroke:none;stroke-width:1.75;stroke-linecap:butt;stroke-linejoin:miter;stroke-miterlimit:4;stroke-dasharray:none;stroke-opacity:1"
         id="path3599-9" />
      <path
         d="m 26.112231,114.33799 c -1.03411,1.63194 -3.19786,2.11714 -4.82981,1.08303 -1.63194,-1.03411 -2.11714,-3.19786 -1.08303,-4.82981 1.03411,-1.63194 3.19787,-2.11714 4.82981,-1.08303 1.63194,1.03411 2.11714,3.19787 1.08303,4.82981 z"
         style="fill:#000000;fill-rule:evenodd;stroke:none;stroke-width:0.7pt;marker-start:none;marker-end:none"
         id="path3625-3" />
      <path
         d="m 5.7936323,5.671368 0.59375,1.25 16.7187497,34.375 0.25,0.5 h 0.53125 71.872773 1.406251 l -0.593751,-1.25 -16.249991,-34.375 -0.21875,-0.5 h -0.5625 -72.3415316 z m 2.8125001,1.75 H 79.010164 l 15.374991,32.625 H 24.481132 Z"
         style="fill:#000000;fill-opacity:1;fill-rule:evenodd;stroke:none;stroke-width:1.75;stroke-linecap:butt;stroke-linejoin:miter;stroke-miterlimit:4;stroke-dasharray:none;stroke-opacity:1"
         id="path2430-7" />
      <path
         d="m 97.748066,110.33194 c 1.22237,1.49614 1.00016,3.70247 -0.49599,4.92483 -1.496141,1.22236 -3.702471,1.00016 -4.924831,-0.49599 -1.222365,-1.49615 -1.00016,-3.70247 0.49599,-4.92483 1.49615,-1.22236 3.70247,-1.00016 4.924831,0.49599 z"
         style="fill:#000000;fill-rule:evenodd;stroke:none;stroke-width:0.7pt;marker-start:none;marker-end:none"
         id="path3627-48" />
      <path
         d="m 93.164677,43.80999 c -1.63194,-1.03411 -2.117145,-3.19786 -1.08303,-4.82981 1.03411,-1.63194 3.19786,-2.11714 4.82981,-1.08303 1.631939,1.03411 2.117139,3.19787 1.083029,4.82981 -1.034109,1.63194 -3.197869,2.11714 -4.829809,1.08303 z"
         style="fill:#000000;fill-opacity:1;fill-rule:evenodd;stroke:none;stroke-width:0.7pt;marker-start:none;marker-end:none"
         id="path3611-3" />
      <path
         d="m 20.188884,39.093168 c 1.02487,-1.63776 3.18585,-2.13517 4.82361,-1.11029 1.63776,1.02488 2.13517,3.18586 1.11029,4.82362 -1.02488,1.63775 -3.18586,2.13516 -4.82361,1.11029 -1.63776,-1.02488 -2.13517,-3.18586 -1.11029,-4.82362 z"
         style="fill:#000000;fill-opacity:1;fill-rule:evenodd;stroke:none;stroke-width:0.7pt;marker-start:none;marker-end:none"
         id="path3613-4" />
      <path
         d="m 82.770183,8.371958 c -1.03411,1.63194 -3.19786,2.11714 -4.829813,1.08303 -1.63194,-1.03411 -2.11714,-3.19786 -1.08303,-4.82981 1.03411,-1.63194 3.197873,-2.11714 4.829813,-1.08303 1.63194,1.03411 2.11714,3.19787 1.08303,4.82981 z"
         style="fill:#000000;fill-opacity:1;fill-rule:evenodd;stroke:none;stroke-width:0.7pt;marker-start:none;marker-end:none"
         id="path3609-22" />
      <path
         d="m 8.8294514,3.628428 c 1.6377596,1.02487 2.1351696,3.18585 1.11029,4.82361 -1.02488,1.63776 -3.1858601,2.13517 -4.8236201,1.11029 -1.63775,-1.02488 -2.13516,-3.18586 -1.11029,-4.82361 1.02488,-1.63776 3.1858601,-2.13517 4.8236201,-1.11029 z"
         style="fill:#000000;fill-opacity:1;fill-rule:evenodd;stroke:none;stroke-width:0.7pt;marker-start:none;marker-end:none"
         id="path3615-1" />
      <path
         d="M 23.285226,40.929899 23.575631,114.1444"
         style="fill:none;fill-rule:evenodd;stroke:#000000;stroke-width:1.75;stroke-linecap:butt;stroke-linejoin:miter;stroke-miterlimit:4;stroke-dasharray:none;stroke-opacity:1"
         id="path6134-1" />
      <path
         style="font-style:normal;font-weight:normal;font-size:16.6307px;font-family:'Bitstream Vera Sans';fill:#000000;fill-opacity:1;stroke:none;stroke-width:1px;stroke-linecap:butt;stroke-linejoin:miter;stroke-opacity:1"
         d="m 9.1240299,91.780483 0.7470827,-0.53595 0.5197094,0.129927 -1.1937079,5.148374 c -0.1191071,0.514299 -0.1786571,0.914908 -0.1786502,1.201829 -6.9e-6,0.216547 0.035182,0.373542 0.105566,0.470987 0.07037,0.09745 0.1813499,0.146169 0.3329391,0.146168 0.1624018,10e-7 0.3356382,-0.06632 0.5197097,-0.198951 0.1840563,-0.132633 0.4439103,-0.385721 0.7795643,-0.759263 l 0.462867,0.454746 c -0.487237,0.51971 -0.902733,0.889191 -1.2464916,1.108443 -0.3437738,0.219252 -0.7159613,0.328879 -1.1165638,0.328879 -0.3356522,0 -0.6036273,-0.11098 -0.8039259,-0.332939 -0.2003105,-0.221959 -0.3004628,-0.517002 -0.3004572,-0.885131 -5.6e-6,-0.297749 0.062251,-0.614447 0.1867707,-0.950094 l -0.1055661,-0.03248 c -0.5197148,0.757911 -1.0123558,1.312809 -1.4779244,1.664695 -0.4655771,0.351887 -0.9582181,0.52783 -1.4779245,0.52783 -0.5955029,0 -1.0570154,-0.224666 -1.3845392,-0.673998 -0.3275264,-0.449332 -0.4912889,-1.08002 -0.491288,-1.892068 -9e-7,-0.931144 0.1827094,-1.825747 0.5481313,-2.683814 0.3654191,-0.858056 0.867534,-1.534761 1.5063461,-2.030116 0.6388063,-0.49534 1.3506996,-0.743014 2.1356821,-0.743022 0.3518814,8e-6 0.6807598,0.03926 0.9866364,0.117746 0.3058644,0.07851 0.6212088,0.217907 0.946034,0.418204 z m -0.7146008,2.419899 c 0.048716,-0.221955 0.081198,-0.414139 0.097446,-0.576553 0.016235,-0.162404 0.024355,-0.338347 0.024361,-0.52783 -6.4e-6,-0.416845 -0.089331,-0.722715 -0.2679754,-0.917613 -0.1786561,-0.194884 -0.4818198,-0.292329 -0.9094919,-0.292337 -0.5576099,8e-6 -1.0583714,0.224674 -1.5022859,0.673999 -0.443922,0.449338 -0.7903948,1.051606 -1.0394194,1.806803 -0.24903,0.755207 -0.3735437,1.509056 -0.3735414,2.261549 -2.3e-6,0.563021 0.077142,0.983932 0.2314332,1.262733 0.1542862,0.278803 0.4127874,0.418204 0.7755044,0.418204 0.3572967,0 0.7078298,-0.154288 1.0516001,-0.462867 0.3437616,-0.308576 0.6983549,-0.748434 1.0637808,-1.319575 0.3654151,-0.571136 0.6239163,-1.230247 0.7755043,-1.977333 z"
         id="text6151-9" />
      <path
         style="font-style:normal;font-weight:normal;font-size:16.6307px;font-family:'Bitstream Vera Sans';fill:#000000;fill-opacity:1;stroke:none;stroke-width:1px;stroke-linecap:butt;stroke-linejoin:miter;stroke-opacity:1"
         d="m 61.642295,116.79625 0.747083,-0.53595 0.51971,0.12992 -1.193708,5.14838 c -0.119107,0.51429 -0.178657,0.9149 -0.178651,1.20183 -6e-6,0.21654 0.03518,0.37354 0.105566,0.47098 0.07037,0.0974 0.18135,0.14617 0.332939,0.14617 0.162402,0 0.335639,-0.0663 0.51971,-0.19895 0.184056,-0.13263 0.443911,-0.38572 0.779565,-0.75926 l 0.462866,0.45474 c -0.487236,0.51971 -0.902733,0.88919 -1.246491,1.10845 -0.343774,0.21925 -0.715961,0.32887 -1.116564,0.32887 -0.335652,0 -0.603627,-0.11098 -0.803926,-0.33293 -0.20031,-0.22196 -0.300463,-0.51701 -0.300457,-0.88514 -6e-6,-0.29774 0.06225,-0.61444 0.186771,-0.95009 l -0.105566,-0.0325 c -0.519715,0.75791 -1.012356,1.31281 -1.477925,1.66469 -0.465577,0.35189 -0.958218,0.52783 -1.477924,0.52783 -0.595503,0 -1.057016,-0.22466 -1.384539,-0.67399 -0.327527,-0.44934 -0.491289,-1.08003 -0.491289,-1.89207 0,-0.93115 0.18271,-1.82575 0.548132,-2.68382 0.365419,-0.85805 0.867534,-1.53476 1.506346,-2.03011 0.638806,-0.49534 1.350699,-0.74302 2.135682,-0.74302 0.351881,0 0.68076,0.0392 0.986636,0.11774 0.305865,0.0785 0.621209,0.21791 0.946034,0.41821 z m -0.7146,2.41989 c 0.04872,-0.22195 0.0812,-0.41413 0.09745,-0.57655 0.01624,-0.1624 0.02435,-0.33835 0.02436,-0.52783 -7e-6,-0.41684 -0.08933,-0.72271 -0.267976,-0.91761 -0.178656,-0.19489 -0.48182,-0.29233 -0.909492,-0.29234 -0.55761,1e-5 -1.058371,0.22467 -1.502286,0.674 -0.443922,0.44934 -0.790394,1.05161 -1.039419,1.8068 -0.24903,0.75521 -0.373544,1.50906 -0.373541,2.26155 -3e-6,0.56302 0.07714,0.98393 0.231433,1.26273 0.154286,0.27881 0.412787,0.41821 0.775504,0.41821 0.357297,0 0.70783,-0.15429 1.0516,-0.46287 0.343762,-0.30857 0.698355,-0.74843 1.063781,-1.31957 0.365415,-0.57114 0.623916,-1.23025 0.775504,-1.97734 z"
         id="text6155-3" />
      <path
         style="font-style:normal;font-weight:normal;font-size:16.6307px;font-family:'Bitstream Vera Sans';fill:#000000;fill-opacity:1;stroke:none;stroke-width:1px;stroke-linecap:butt;stroke-linejoin:miter;stroke-opacity:1"
         d="m 104.25372,73.220348 0.74708,-0.53595 0.51971,0.129927 -1.19371,5.148375 c -0.11911,0.514298 -0.17866,0.914907 -0.17865,1.201828 -1e-5,0.216547 0.0352,0.373543 0.10557,0.470987 0.0704,0.09745 0.18134,0.146169 0.33293,0.146168 0.16241,10e-7 0.33564,-0.06632 0.51971,-0.198951 0.18406,-0.132633 0.44391,-0.385721 0.77957,-0.759263 l 0.46286,0.454746 c -0.48723,0.51971 -0.90273,0.889191 -1.24649,1.108443 -0.34377,0.219253 -0.71596,0.328879 -1.11656,0.328879 -0.33565,0 -0.60363,-0.11098 -0.80393,-0.332939 -0.20031,-0.221959 -0.30046,-0.517002 -0.30045,-0.885131 -1e-5,-0.297749 0.0623,-0.614447 0.18677,-0.950094 l -0.10557,-0.03248 c -0.51971,0.757911 -1.01235,1.312809 -1.47792,1.664695 -0.46558,0.351887 -0.95822,0.52783 -1.47793,0.52783 -0.5955,0 -1.057013,-0.224666 -1.384537,-0.673998 -0.327526,-0.449331 -0.491289,-1.08002 -0.491288,-1.892068 -1e-6,-0.931143 0.18271,-1.825747 0.548131,-2.683814 0.36542,-0.858056 0.867534,-1.534761 1.506344,-2.030116 0.63881,-0.49534 1.3507,-0.743014 2.13568,-0.743022 0.35189,8e-6 0.68076,0.03926 0.98664,0.117747 0.30587,0.07851 0.62121,0.217906 0.94604,0.418203 z m -0.71461,2.419899 c 0.0487,-0.221954 0.0812,-0.414139 0.0975,-0.576553 0.0162,-0.162404 0.0243,-0.338347 0.0244,-0.52783 -1e-5,-0.416844 -0.0893,-0.722715 -0.26797,-0.917613 -0.17866,-0.194884 -0.48182,-0.292329 -0.9095,-0.292337 -0.55761,8e-6 -1.05837,0.224674 -1.50228,0.673999 -0.44392,0.449338 -0.7904,1.051606 -1.039421,1.806803 -0.24903,0.755207 -0.373544,1.509056 -0.373542,2.26155 -2e-6,0.56302 0.07714,0.983931 0.231434,1.262732 0.154286,0.278803 0.412789,0.418204 0.775499,0.418204 0.3573,0 0.70783,-0.154288 1.0516,-0.462867 0.34377,-0.308576 0.69836,-0.748434 1.06379,-1.319575 0.36541,-0.571136 0.62391,-1.230247 0.7755,-1.977333 z"
         id="text6887" />
    </g>
    <text
       xml:space="preserve"
       style="font-style:normal;font-variant:normal;font-weight:normal;font-stretch:normal;font-size:7.7611px;line-height:1.25;font-family:Roboto;-inkscape-font-specification:'Roboto, Normal';font-variant-ligatures:normal;font-variant-caps:normal;font-variant-numeric:normal;font-variant-east-asian:normal;text-align:start;letter-spacing:0px;word-spacing:0px;writing-mode:lr-tb;text-anchor:start;fill:#000000;fill-opacity:1;stroke:none;stroke-width:0.264583"
       x="58.030437"
       y="58.119312"
       id="text2745-3"><tspan
         sodipodi:role="line"
         id="tspan2743-0"
         x="58.030437"
         y="58.119312"
         style="font-style:normal;font-variant:normal;font-weight:normal;font-stretch:normal;font-size:7.7611px;font-family:Roboto;-inkscape-font-specification:'Roboto, Normal';font-variant-ligatures:normal;font-variant-caps:normal;font-variant-numeric:normal;font-variant-east-asian:normal;stroke-width:0.264583">monoclinic</tspan></text>
    <text
       id="text3087"
       y="58.119312"
       x="104.73164"
       style="font-style:normal;font-variant:normal;font-weight:normal;font-stretch:normal;font-size:7.7611px;line-height:1.25;font-family:Roboto;-inkscape-font-specification:'Roboto, Normal';font-variant-ligatures:normal;font-variant-caps:normal;font-variant-numeric:normal;font-variant-east-asian:normal;text-align:start;letter-spacing:0px;word-spacing:0px;writing-mode:lr-tb;text-anchor:start;fill:#000000;fill-opacity:1;stroke:none;stroke-width:0.264583"
       xml:space="preserve"><tspan
         style="font-style:normal;font-variant:normal;font-weight:normal;font-stretch:normal;font-size:7.7611px;font-family:Roboto;-inkscape-font-specification:'Roboto, Normal';font-variant-ligatures:normal;font-variant-caps:normal;font-variant-numeric:normal;font-variant-east-asian:normal;stroke-width:0.264583"
         y="58.119312"
         x="104.73164"
         id="tspan3085"
         sodipodi:role="line">orthorhombic</tspan></text>
    <text
       xml:space="preserve"
       style="font-style:normal;font-variant:normal;font-weight:normal;font-stretch:normal;font-size:7.7611px;line-height:1.25;font-family:Roboto;-inkscape-font-specification:'Roboto, Normal';font-variant-ligatures:normal;font-variant-caps:normal;font-variant-numeric:normal;font-variant-east-asian:normal;text-align:start;letter-spacing:0px;word-spacing:0px;writing-mode:lr-tb;text-anchor:start;fill:#000000;fill-opacity:1;stroke:none;stroke-width:0.264583"
       x="158.31729"
       y="58.119312"
       id="text3091"><tspan
         sodipodi:role="line"
         id="tspan3089"
         x="158.31729"
         y="58.119312"
         style="font-style:normal;font-variant:normal;font-weight:normal;font-stretch:normal;font-size:7.7611px;font-family:Roboto;-inkscape-font-specification:'Roboto, Normal';font-variant-ligatures:normal;font-variant-caps:normal;font-variant-numeric:normal;font-variant-east-asian:normal;stroke-width:0.264583">tetragonal</tspan></text>
    <text
       id="text3095"
       y="58.119312"
       x="205.61757"
       style="font-style:normal;font-variant:normal;font-weight:normal;font-stretch:normal;font-size:7.7611px;line-height:1.25;font-family:Roboto;-inkscape-font-specification:'Roboto, Normal';font-variant-ligatures:normal;font-variant-caps:normal;font-variant-numeric:normal;font-variant-east-asian:normal;text-align:start;letter-spacing:0px;word-spacing:0px;writing-mode:lr-tb;text-anchor:start;fill:#000000;fill-opacity:1;stroke:none;stroke-width:0.264583"
       xml:space="preserve"><tspan
         style="font-style:normal;font-variant:normal;font-weight:normal;font-stretch:normal;font-size:7.7611px;font-family:Roboto;-inkscape-font-specification:'Roboto, Normal';font-variant-ligatures:normal;font-variant-caps:normal;font-variant-numeric:normal;font-variant-east-asian:normal;stroke-width:0.264583"
         y="58.119312"
         x="205.61757"
         id="tspan3093"
         sodipodi:role="line">hexagonal</tspan></text>
    <text
       xml:space="preserve"
       style="font-style:normal;font-variant:normal;font-weight:normal;font-stretch:normal;font-size:7.7611px;line-height:1.25;font-family:Roboto;-inkscape-font-specification:'Roboto, Normal';font-variant-ligatures:normal;font-variant-caps:normal;font-variant-numeric:normal;font-variant-east-asian:normal;text-align:start;letter-spacing:0px;word-spacing:0px;writing-mode:lr-tb;text-anchor:start;fill:#000000;fill-opacity:1;stroke:none;stroke-width:0.264583"
       x="266.53268"
       y="58.119312"
       id="text3099"><tspan
         sodipodi:role="line"
         id="tspan3097"
         x="266.53268"
         y="58.119312"
         style="font-style:normal;font-variant:normal;font-weight:normal;font-stretch:normal;font-size:7.7611px;font-family:Roboto;-inkscape-font-specification:'Roboto, Normal';font-variant-ligatures:normal;font-variant-caps:normal;font-variant-numeric:normal;font-variant-east-asian:normal;stroke-width:0.264583">cubic</tspan></text>
  </g>
</svg>
