<?xml version="1.0" encoding="UTF-8" standalone="no"?>
<svg
   xmlns:ns36="http://www.iki.fi/pav/software/textext/"
   xmlns:dc="http://purl.org/dc/elements/1.1/"
   xmlns:cc="http://creativecommons.org/ns#"
   xmlns:rdf="http://www.w3.org/1999/02/22-rdf-syntax-ns#"
   xmlns:svg="http://www.w3.org/2000/svg"
   xmlns="http://www.w3.org/2000/svg"
   xmlns:sodipodi="http://sodipodi.sourceforge.net/DTD/sodipodi-0.dtd"
   xmlns:inkscape="http://www.inkscape.org/namespaces/inkscape"
   inkscape:export-ydpi="300"
   inkscape:export-xdpi="300"
   inkscape:export-filename="C:\Users\Enze\Documents\GitHub\mi-book\assets\fig\week_1\01\pbc.png"
   sodipodi:docname="pbc.svg"
   inkscape:version="1.0 (4035a4fb49, 2020-05-01)"
   id="svg1761"
   version="1.1"
   viewBox="0 0 260 45"
   height="45mm"
   width="260mm">
  <defs
     id="defs1755">
    <marker
       inkscape:stockid="Arrow2Mend"
       orient="auto"
       refY="0"
       refX="0"
       id="Arrow2Mend"
       style="overflow:visible"
       inkscape:isstock="true">
      <path
         id="path1304"
         style="fill:#1f77b4;fill-opacity:1;fill-rule:evenodd;stroke:#1f77b4;stroke-width:0.625;stroke-linejoin:round;stroke-opacity:1"
         d="M 8.7185878,4.0337352 -2.2072895,0.01601326 8.7185884,-4.0017078 c -1.7454984,2.3720609 -1.7354408,5.6174519 -6e-7,8.035443 z"
         transform="scale(-0.6)" />
    </marker>
    <marker
       inkscape:stockid="Arrow1Mend"
       orient="auto"
       refY="0"
       refX="0"
       id="Arrow1Mend"
       style="overflow:visible"
       inkscape:isstock="true">
      <path
         id="path1286"
         d="M 0,0 5,-5 -12.5,0 5,5 Z"
         style="fill:#000000;fill-opacity:1;fill-rule:evenodd;stroke:#000000;stroke-width:1pt;stroke-opacity:1"
         transform="matrix(-0.4,0,0,-0.4,-4,0)" />
    </marker>
  </defs>
  <sodipodi:namedview
     id="base"
     pagecolor="#ffffff"
     bordercolor="#666666"
     borderopacity="1.0"
     inkscape:pageopacity="0.0"
     inkscape:pageshadow="2"
     inkscape:zoom="1.4"
     inkscape:cx="422.72081"
     inkscape:cy="152.74686"
     inkscape:document-units="mm"
     inkscape:current-layer="layer1"
     inkscape:document-rotation="0"
     showgrid="false"
     showguides="false"
     inkscape:window-width="1920"
     inkscape:window-height="1001"
     inkscape:window-x="-9"
     inkscape:window-y="-9"
     inkscape:window-maximized="1" />
  <metadata
     id="metadata1758">
    <rdf:RDF>
      <cc:Work
         rdf:about="">
        <dc:format>image/svg+xml</dc:format>
        <dc:type
           rdf:resource="http://purl.org/dc/dcmitype/StillImage" />
        <dc:title />
      </cc:Work>
    </rdf:RDF>
  </metadata>
  <g
     inkscape:label="Layer 1"
     inkscape:groupmode="layer"
     id="layer1">
    <rect
       style="fill:none;stroke:#000000;stroke-width:1.34595;stroke-opacity:1"
       id="rect2324"
       width="93.097023"
       height="18.654051"
       x="83.415817"
       y="15.510277" />
    <rect
       style="fill:none;stroke:#000000;stroke-width:1.39534;stroke-opacity:1"
       id="rect2326"
       width="18.604654"
       height="18.604658"
       x="83.487152"
       y="15.581596" />
    <rect
       y="15.581596"
       x="102.09181"
       height="18.604658"
       width="18.604654"
       id="rect2326-6"
       style="fill:none;stroke:#000000;stroke-width:1.39534;stroke-opacity:1" />
    <rect
       y="15.581596"
       x="120.69646"
       height="18.604658"
       width="18.604654"
       id="rect2326-8"
       style="fill:none;stroke:#000000;stroke-width:1.39534;stroke-opacity:1" />
    <rect
       y="15.581596"
       x="139.30112"
       height="18.604658"
       width="18.604654"
       id="rect2326-2"
       style="fill:none;stroke:#000000;stroke-width:1.39534;stroke-opacity:1" />
    <rect
       y="15.581596"
       x="157.90576"
       height="18.604658"
       width="18.604654"
       id="rect2326-87"
       style="fill:none;stroke:#000000;stroke-width:1.39534;stroke-opacity:1" />
    <text
       xml:space="preserve"
       style="font-style:normal;font-variant:normal;font-weight:normal;font-stretch:normal;font-size:8.46667px;line-height:1.25;font-family:Roboto;-inkscape-font-specification:'Roboto, Normal';font-variant-ligatures:normal;font-variant-caps:normal;font-variant-numeric:normal;font-variant-east-asian:normal;text-align:start;letter-spacing:0px;word-spacing:0px;writing-mode:lr-tb;text-anchor:start;fill:#000000;fill-opacity:1;stroke:none;stroke-width:0.264583"
       x="90.414429"
       y="42.982422"
       id="text2375"><tspan
         sodipodi:role="line"
         id="tspan2373"
         x="90.414429"
         y="42.982422"
         style="font-style:normal;font-variant:normal;font-weight:normal;font-stretch:normal;font-size:8.46667px;font-family:Roboto;-inkscape-font-specification:'Roboto, Normal';font-variant-ligatures:normal;font-variant-caps:normal;font-variant-numeric:normal;font-variant-east-asian:normal;stroke-width:0.264583">0</tspan></text>
    <text
       id="text2379"
       y="42.982422"
       x="109.53585"
       style="font-style:normal;font-variant:normal;font-weight:normal;font-stretch:normal;font-size:8.46667px;line-height:1.25;font-family:Roboto;-inkscape-font-specification:'Roboto, Normal';font-variant-ligatures:normal;font-variant-caps:normal;font-variant-numeric:normal;font-variant-east-asian:normal;text-align:start;letter-spacing:0px;word-spacing:0px;writing-mode:lr-tb;text-anchor:start;fill:#000000;fill-opacity:1;stroke:none;stroke-width:0.264583"
       xml:space="preserve"><tspan
         style="font-style:normal;font-variant:normal;font-weight:normal;font-stretch:normal;font-size:8.46667px;font-family:Roboto;-inkscape-font-specification:'Roboto, Normal';font-variant-ligatures:normal;font-variant-caps:normal;font-variant-numeric:normal;font-variant-east-asian:normal;stroke-width:0.264583"
         y="42.982422"
         x="109.53585"
         id="tspan2377"
         sodipodi:role="line">1</tspan></text>
    <text
       xml:space="preserve"
       style="font-style:normal;font-variant:normal;font-weight:normal;font-stretch:normal;font-size:8.46667px;line-height:1.25;font-family:Roboto;-inkscape-font-specification:'Roboto, Normal';font-variant-ligatures:normal;font-variant-caps:normal;font-variant-numeric:normal;font-variant-east-asian:normal;text-align:start;letter-spacing:0px;word-spacing:0px;writing-mode:lr-tb;text-anchor:start;fill:#000000;fill-opacity:1;stroke:none;stroke-width:0.264583"
       x="127.58447"
       y="42.982422"
       id="text2383"><tspan
         sodipodi:role="line"
         id="tspan2381"
         x="127.58447"
         y="42.982422"
         style="font-style:normal;font-variant:normal;font-weight:normal;font-stretch:normal;font-size:8.46667px;font-family:Roboto;-inkscape-font-specification:'Roboto, Normal';font-variant-ligatures:normal;font-variant-caps:normal;font-variant-numeric:normal;font-variant-east-asian:normal;stroke-width:0.264583">2</tspan></text>
    <text
       id="text2387"
       y="42.982422"
       x="146.30695"
       style="font-style:normal;font-variant:normal;font-weight:normal;font-stretch:normal;font-size:8.46667px;line-height:1.25;font-family:Roboto;-inkscape-font-specification:'Roboto, Normal';font-variant-ligatures:normal;font-variant-caps:normal;font-variant-numeric:normal;font-variant-east-asian:normal;text-align:start;letter-spacing:0px;word-spacing:0px;writing-mode:lr-tb;text-anchor:start;fill:#000000;fill-opacity:1;stroke:none;stroke-width:0.264583"
       xml:space="preserve"><tspan
         style="font-style:normal;font-variant:normal;font-weight:normal;font-stretch:normal;font-size:8.46667px;font-family:Roboto;-inkscape-font-specification:'Roboto, Normal';font-variant-ligatures:normal;font-variant-caps:normal;font-variant-numeric:normal;font-variant-east-asian:normal;stroke-width:0.264583"
         y="42.982422"
         x="146.30695"
         id="tspan2385"
         sodipodi:role="line">3</tspan></text>
    <text
       xml:space="preserve"
       style="font-style:normal;font-variant:normal;font-weight:normal;font-stretch:normal;font-size:8.46667px;line-height:1.25;font-family:Roboto;-inkscape-font-specification:'Roboto, Normal';font-variant-ligatures:normal;font-variant-caps:normal;font-variant-numeric:normal;font-variant-east-asian:normal;text-align:start;letter-spacing:0px;word-spacing:0px;writing-mode:lr-tb;text-anchor:start;fill:#000000;fill-opacity:1;stroke:none;stroke-width:0.264583"
       x="164.81651"
       y="42.982422"
       id="text2391"><tspan
         sodipodi:role="line"
         id="tspan2389"
         x="164.81651"
         y="42.982422"
         style="font-style:normal;font-variant:normal;font-weight:normal;font-stretch:normal;font-size:8.46667px;font-family:Roboto;-inkscape-font-specification:'Roboto, Normal';font-variant-ligatures:normal;font-variant-caps:normal;font-variant-numeric:normal;font-variant-east-asian:normal;stroke-width:0.264583">4</tspan></text>
    <path
       style="fill:#ff7f0e;fill-opacity:1;stroke:none;stroke-width:1.65385;stroke-opacity:1"
       id="path2401"
       sodipodi:type="arc"
       sodipodi:cx="92.789474"
       sodipodi:cy="24.883934"
       sodipodi:rx="5.746295"
       sodipodi:ry="5.746295"
       sodipodi:start="0"
       sodipodi:end="6.2729577"
       sodipodi:open="true"
       sodipodi:arc-type="arc"
       d="m 98.535769,24.883934 a 5.746295,5.746295 0 0 1 -5.731602,5.746276 5.746295,5.746295 0 0 1 -5.760912,-5.716891 5.746295,5.746295 0 0 1 5.702142,-5.775511 5.746295,5.746295 0 0 1 5.790072,5.687356" />
    <path
       style="fill:none;stroke:#1f77b4;stroke-width:0.865;stroke-linecap:butt;stroke-linejoin:miter;stroke-miterlimit:4;stroke-dasharray:none;stroke-opacity:1;marker-end:url(#Arrow2Mend)"
       d="M 85.631,11.310982 H 98.593572"
       id="path2405" />
    <path
       style="fill:none;stroke:#ffffff;stroke-width:1.5;stroke-linecap:butt;stroke-linejoin:miter;stroke-miterlimit:4;stroke-dasharray:none;stroke-dashoffset:0;stroke-opacity:1"
       d="M 83.48715,15.581595 V 34.186261"
       id="path2519" />
    <path
       id="path2519-0"
       d="M 176.51285,15.55967 V 34.164331"
       style="fill:none;stroke:#ffffff;stroke-width:1.5;stroke-linecap:butt;stroke-linejoin:miter;stroke-miterlimit:4;stroke-dasharray:none;stroke-dashoffset:0;stroke-opacity:1" />
    <path
       id="path2538"
       d="M 83.48715,15.581595 V 34.186261"
       style="fill:none;stroke:#2ca02c;stroke-width:1.5;stroke-linecap:butt;stroke-linejoin:miter;stroke-miterlimit:4;stroke-dasharray:3, 1.5;stroke-dashoffset:0;stroke-opacity:1" />
    <path
       style="fill:none;stroke:#2ca02c;stroke-width:1.5;stroke-linecap:butt;stroke-linejoin:miter;stroke-miterlimit:4;stroke-dasharray:3, 1.5;stroke-dashoffset:0;stroke-opacity:1"
       d="M 176.51285,15.55967 V 34.164331"
       id="path2540" />
    <g
       id="g2642"
       ns36:jacobian_sqrt="1.05313"
       ns36:inkscapeversion="1.0"
       ns36:alignment="middle center"
       ns36:scale="2.985243694334681"
       ns36:preamble="C:\\Users\\Enze\\AppData\\Roaming\\inkscape\\extensions\\textext\\default_packages.tex"
       ns36:text="$\\vec{v}$"
       ns36:pdfconverter="inkscape"
       ns36:texconverter="pdflatex"
       ns36:version="1.0.1"
       transform="matrix(0.8129915,0,0,0.8129915,90.510003,1.9348955)">
      <defs
         id="id-21f5fd11-bee9-48de-b433-7d7f95b388aa">
        <g
           id="id-ab6d6383-6f7f-4a49-bc78-4c8fda193e73">
          <symbol
             overflow="visible"
             id="id-ccb5edac-5a9a-42aa-a93d-58e722da3c10">
            <path
               style="stroke:none"
               d=""
               id="id-548e1d1d-a31e-46f5-80a5-3dbed201467c" />
          </symbol>
          <symbol
             overflow="visible"
             id="id-61e7f8dd-cab1-4eff-81c5-7697680bc463">
            <path
               style="stroke:none"
               d="m 5.359375,-5.9375 c -0.140625,0.140625 -0.46875,0.421875 -0.46875,0.59375 0,0.09375 0.09375,0.203125 0.1875,0.203125 0.09375,0 0.140625,-0.078125 0.203125,-0.140625 C 5.390625,-5.421875 5.625,-5.703125 6.0625,-5.921875 6.125,-5.96875 6.234375,-6.015625 6.234375,-6.125 6.234375,-6.234375 6.15625,-6.28125 6.09375,-6.328125 5.875,-6.484375 5.765625,-6.65625 5.6875,-6.890625 5.65625,-6.984375 5.625,-7.125 5.484375,-7.125 c -0.140625,0 -0.203125,0.140625 -0.203125,0.21875 0,0.046875 0.078125,0.359375 0.234375,0.578125 H 2.15625 c -0.15625,0 -0.34375,0 -0.34375,0.203125 0,0.1875 0.1875,0.1875 0.34375,0.1875 z m 0,0"
               id="id-301fa5ef-28e8-47b0-a972-7c777cadd06a" />
          </symbol>
          <symbol
             overflow="visible"
             id="id-1c2af026-263f-4712-8728-900a5c181527">
            <path
               style="stroke:none"
               d="m 4.671875,-3.703125 c 0,-0.546875 -0.265625,-0.703125 -0.4375,-0.703125 -0.25,0 -0.5,0.265625 -0.5,0.484375 0,0.125 0.046875,0.1875 0.15625,0.296875 0.21875,0.203125 0.34375,0.453125 0.34375,0.8125 0,0.421875 -0.609375,2.703125 -1.765625,2.703125 -0.515625,0 -0.75,-0.34375 -0.75,-0.875 0,-0.546875 0.28125,-1.28125 0.578125,-2.109375 0.078125,-0.171875 0.125,-0.3125 0.125,-0.5 0,-0.4375 -0.3125,-0.8125 -0.8125,-0.8125 -0.9375,0 -1.3125,1.453125 -1.3125,1.53125 0,0.109375 0.09375,0.109375 0.109375,0.109375 0.109375,0 0.109375,-0.03125 0.15625,-0.1875 0.296875,-1 0.71875,-1.234375 1.015625,-1.234375 0.078125,0 0.25,0 0.25,0.3125 0,0.25 -0.109375,0.53125 -0.171875,0.703125 -0.4375,1.15625 -0.5625,1.609375 -0.5625,2.046875 0,1.078125 0.875,1.234375 1.328125,1.234375 1.671875,0 2.25,-3.296875 2.25,-3.8125 z m 0,0"
               id="id-caca31fc-1184-421a-bff1-ae1e5346de07" />
          </symbol>
        </g>
      </defs>
      <g
         id="id-26fbf8b2-12cd-4d07-bcaf-0a71133d9b47"
         transform="translate(-149.01,-127.64)">
        <g
           style="fill:#000000;fill-opacity:1"
           id="id-0eba92e8-002b-4c1e-9ba3-39ffd7df0686">
          <g
             id="g2634"
             transform="translate(148.325,134.765)">
            <path
               style="stroke:none"
               d="m 5.359375,-5.9375 c -0.140625,0.140625 -0.46875,0.421875 -0.46875,0.59375 0,0.09375 0.09375,0.203125 0.1875,0.203125 0.09375,0 0.140625,-0.078125 0.203125,-0.140625 C 5.390625,-5.421875 5.625,-5.703125 6.0625,-5.921875 6.125,-5.96875 6.234375,-6.015625 6.234375,-6.125 6.234375,-6.234375 6.15625,-6.28125 6.09375,-6.328125 5.875,-6.484375 5.765625,-6.65625 5.6875,-6.890625 5.65625,-6.984375 5.625,-7.125 5.484375,-7.125 c -0.140625,0 -0.203125,0.140625 -0.203125,0.21875 0,0.046875 0.078125,0.359375 0.234375,0.578125 H 2.15625 c -0.15625,0 -0.34375,0 -0.34375,0.203125 0,0.1875 0.1875,0.1875 0.34375,0.1875 z m 0,0"
               id="id-001f61d2-2707-484b-bb4b-c77191f09d03" />
          </g>
        </g>
        <g
           style="fill:#000000;fill-opacity:1"
           id="id-9714955d-3593-4a77-b857-8c4158da4e73">
          <g
             id="g2638"
             transform="translate(148.714,134.765)">
            <path
               style="stroke:none"
               d="m 4.671875,-3.703125 c 0,-0.546875 -0.265625,-0.703125 -0.4375,-0.703125 -0.25,0 -0.5,0.265625 -0.5,0.484375 0,0.125 0.046875,0.1875 0.15625,0.296875 0.21875,0.203125 0.34375,0.453125 0.34375,0.8125 0,0.421875 -0.609375,2.703125 -1.765625,2.703125 -0.515625,0 -0.75,-0.34375 -0.75,-0.875 0,-0.546875 0.28125,-1.28125 0.578125,-2.109375 0.078125,-0.171875 0.125,-0.3125 0.125,-0.5 0,-0.4375 -0.3125,-0.8125 -0.8125,-0.8125 -0.9375,0 -1.3125,1.453125 -1.3125,1.53125 0,0.109375 0.09375,0.109375 0.109375,0.109375 0.109375,0 0.109375,-0.03125 0.15625,-0.1875 0.296875,-1 0.71875,-1.234375 1.015625,-1.234375 0.078125,0 0.25,0 0.25,0.3125 0,0.25 -0.109375,0.53125 -0.171875,0.703125 -0.4375,1.15625 -0.5625,1.609375 -0.5625,2.046875 0,1.078125 0.875,1.234375 1.328125,1.234375 1.671875,0 2.25,-3.296875 2.25,-3.8125 z m 0,0"
               id="id-4ed9b838-b447-432c-a207-f8c3d8904195" />
          </g>
        </g>
      </g>
    </g>
    <text
       xml:space="preserve"
       style="font-style:normal;font-variant:normal;font-weight:normal;font-stretch:normal;font-size:4.9389px;line-height:1.25;font-family:sans-serif;-inkscape-font-specification:'sans-serif, Normal';font-variant-ligatures:normal;font-variant-caps:normal;font-variant-numeric:normal;font-feature-settings:normal;text-align:start;letter-spacing:0px;word-spacing:0px;writing-mode:lr-tb;text-anchor:start;fill:#2ca02c;fill-opacity:1;stroke:none;stroke-width:0.264583"
       x="164.14392"
       y="11.842873"
       id="text2676"><tspan
         sodipodi:role="line"
         id="tspan2674"
         x="164.14392"
         y="11.842873"
         style="font-style:normal;font-variant:normal;font-weight:normal;font-stretch:normal;font-size:7.05556px;font-family:Roboto;-inkscape-font-specification:'Roboto, Normal';font-variant-ligatures:normal;font-variant-caps:normal;font-variant-numeric:normal;font-variant-east-asian:normal;fill:#2ca02c;fill-opacity:1;stroke-width:0.264583">PBC</tspan></text>
  </g>
</svg>
