<?xml version="1.0" encoding="UTF-8" standalone="no"?>
<svg
   xmlns:ns5="http://www.iki.fi/pav/software/textext/"
   xmlns:dc="http://purl.org/dc/elements/1.1/"
   xmlns:cc="http://creativecommons.org/ns#"
   xmlns:rdf="http://www.w3.org/1999/02/22-rdf-syntax-ns#"
   xmlns:svg="http://www.w3.org/2000/svg"
   xmlns="http://www.w3.org/2000/svg"
   xmlns:sodipodi="http://sodipodi.sourceforge.net/DTD/sodipodi-0.dtd"
   xmlns:inkscape="http://www.inkscape.org/namespaces/inkscape"
   width="130mm"
   height="100mm"
   viewBox="0 0 130 100"
   version="1.1"
   id="svg8"
   inkscape:version="1.0 (4035a4fb49, 2020-05-01)"
   sodipodi:docname="gradient_descent.svg"
   inkscape:export-filename="C:\Users\Enze\Documents\GitHub\mi-book\assets\fig\week_1\04\gradient_descent_4.png"
   inkscape:export-xdpi="300"
   inkscape:export-ydpi="300">
  <defs
     id="defs2">
    <rect
       id="rect3196"
       height="69.938095"
       width="46.638573"
       y="79.10733"
       x="76.360954" />
    <marker
       inkscape:isstock="true"
       style="overflow:visible"
       id="Arrow1Send"
       refX="0"
       refY="0"
       orient="auto"
       inkscape:stockid="Arrow1Send">
      <path
         transform="matrix(-0.2,0,0,-0.2,-1.2,0)"
         style="fill:#000000;fill-opacity:1;fill-rule:evenodd;stroke:#000000;stroke-width:1pt;stroke-opacity:1"
         d="M 0,0 5,-5 -12.5,0 5,5 Z"
         id="path850" />
    </marker>
    <marker
       inkscape:stockid="Arrow2Mend"
       orient="auto"
       refY="0"
       refX="0"
       id="marker1127"
       style="overflow:visible"
       inkscape:isstock="true">
      <path
         id="path1125"
         style="fill:#000000;fill-opacity:1;fill-rule:evenodd;stroke:#000000;stroke-width:0.625;stroke-linejoin:round;stroke-opacity:1"
         d="M 8.7185878,4.0337352 -2.2072895,0.01601326 8.7185884,-4.0017078 c -1.7454984,2.3720609 -1.7354408,5.6174519 -6e-7,8.035443 z"
         transform="scale(-0.6)" />
    </marker>
    <marker
       inkscape:collect="always"
       inkscape:isstock="true"
       style="overflow:visible"
       id="Arrow2Mend"
       refX="0"
       refY="0"
       orient="auto"
       inkscape:stockid="Arrow2Mend">
      <path
         transform="scale(-0.6)"
         d="M 8.7185878,4.0337352 -2.2072895,0.01601326 8.7185884,-4.0017078 c -1.7454984,2.3720609 -1.7354408,5.6174519 -6e-7,8.035443 z"
         style="fill:#000000;fill-opacity:1;fill-rule:evenodd;stroke:#000000;stroke-width:0.625;stroke-linejoin:round;stroke-opacity:1"
         id="path862" />
    </marker>
    <defs
       id="id-25ea1a1c-3200-495d-9d0d-cf32e638f245">
      <g
         id="id-da056ecf-b1d2-4de9-9974-01fee3e7da0d">
        <symbol
           overflow="visible"
           id="id-61430ef5-a2a2-476d-a238-f4594c18a831">
          <path
             style="stroke:none"
             d=""
             id="id-db31c6eb-f0e6-47b1-956a-0380423fa31d" />
        </symbol>
        <symbol
           overflow="visible"
           id="id-94e84652-fc7b-483e-8495-80cfbaf9e082">
          <path
             style="stroke:none"
             d="m 5.359375,-5.9375 c -0.140625,0.140625 -0.46875,0.421875 -0.46875,0.59375 0,0.09375 0.09375,0.203125 0.1875,0.203125 0.09375,0 0.140625,-0.078125 0.203125,-0.140625 C 5.390625,-5.421875 5.625,-5.703125 6.0625,-5.921875 6.125,-5.96875 6.234375,-6.015625 6.234375,-6.125 6.234375,-6.234375 6.15625,-6.28125 6.09375,-6.328125 5.875,-6.484375 5.765625,-6.65625 5.6875,-6.890625 5.65625,-6.984375 5.625,-7.125 5.484375,-7.125 c -0.140625,0 -0.203125,0.140625 -0.203125,0.21875 0,0.046875 0.078125,0.359375 0.234375,0.578125 H 2.15625 c -0.15625,0 -0.34375,0 -0.34375,0.203125 0,0.1875 0.1875,0.1875 0.34375,0.1875 z m 0,0"
             id="id-0f65f1ec-5282-4666-97cd-ef838651418c" />
        </symbol>
        <symbol
           overflow="visible"
           id="id-75443fac-f3f2-485f-bc61-6d44290b6a0d">
          <path
             style="stroke:none"
             d="m 4.53125,-4.984375 c 0,-0.65625 -0.171875,-2.046875 -1.1875,-2.046875 -1.390625,0 -2.921875,2.8125 -2.921875,5.09375 0,0.9375 0.28125,2.046875 1.1875,2.046875 1.40625,0 2.921875,-2.859375 2.921875,-5.09375 z M 1.46875,-3.625 C 1.640625,-4.25 1.84375,-5.046875 2.25,-5.765625 2.515625,-6.25 2.875,-6.8125 3.328125,-6.8125 c 0.484375,0 0.546875,0.640625 0.546875,1.203125 0,0.5 -0.078125,1 -0.3125,1.984375 z m 2,0.328125 C 3.359375,-2.84375 3.15625,-2 2.765625,-1.28125 c -0.34375,0.6875 -0.71875,1.171875 -1.15625,1.171875 -0.328125,0 -0.53125,-0.296875 -0.53125,-1.21875 0,-0.421875 0.0625,-1 0.3125,-1.96875 z m 0,0"
             id="id-7fc7477f-ed77-4641-84c5-2584a4555ba6" />
        </symbol>
        <symbol
           overflow="visible"
           id="id-f0d5ccde-3425-458b-92ae-671a0b6ba700">
          <path
             style="stroke:none"
             d=""
             id="id-6cfcc0b8-fe86-449b-ba89-59f1c8033eb9" />
        </symbol>
        <symbol
           overflow="visible"
           id="id-30801a51-fa8e-4034-a602-5474de274058">
          <path
             style="stroke:none"
             d="m 2.265625,-4.359375 c 0,-0.109375 -0.09375,-0.265625 -0.28125,-0.265625 -0.1875,0 -0.390625,0.1875 -0.390625,0.390625 0,0.109375 0.078125,0.265625 0.28125,0.265625 0.1875,0 0.390625,-0.203125 0.390625,-0.390625 z M 0.84375,-0.8125 c -0.03125,0.09375 -0.0625,0.171875 -0.0625,0.296875 0,0.328125 0.265625,0.578125 0.65625,0.578125 0.6875,0 1,-0.953125 1,-1.0625 0,-0.09375 -0.09375,-0.09375 -0.109375,-0.09375 -0.09375,0 -0.109375,0.046875 -0.140625,0.125 -0.15625,0.5625 -0.453125,0.84375 -0.734375,0.84375 -0.140625,0 -0.171875,-0.09375 -0.171875,-0.25 0,-0.15625 0.046875,-0.28125 0.109375,-0.4375 C 1.46875,-1 1.546875,-1.1875 1.609375,-1.375 1.671875,-1.546875 1.9375,-2.171875 1.953125,-2.265625 1.984375,-2.328125 2,-2.40625 2,-2.484375 2,-2.8125 1.71875,-3.078125 1.34375,-3.078125 0.640625,-3.078125 0.328125,-2.125 0.328125,-2 c 0,0.078125 0.09375,0.078125 0.125,0.078125 0.09375,0 0.09375,-0.03125 0.125,-0.109375 C 0.75,-2.625 1.0625,-2.875 1.3125,-2.875 c 0.109375,0 0.171875,0.046875 0.171875,0.234375 0,0.171875 -0.03125,0.265625 -0.203125,0.703125 z m 0,0"
             id="id-d825a618-7837-4ba7-b3b1-1064f3350385" />
        </symbol>
      </g>
    </defs>
    <defs
       id="id-733dd4f1-35ff-4a78-8347-f9dc775559fe">
      <g
         id="id-fb5453f4-2e8f-4651-8cc4-8c2d4fa1fbb5">
        <symbol
           overflow="visible"
           id="id-a8b8e4b4-9096-4882-912c-39984840416b">
          <path
             style="stroke:none"
             d=""
             id="id-ad8c2222-7884-4ad5-900e-e8dec96f817b" />
        </symbol>
        <symbol
           overflow="visible"
           id="id-d6b9e634-5e8d-45f4-b18a-1f44adfde109">
          <path
             style="stroke:none"
             d="m 5.359375,-5.9375 c -0.140625,0.140625 -0.46875,0.421875 -0.46875,0.59375 0,0.09375 0.09375,0.203125 0.1875,0.203125 0.09375,0 0.140625,-0.078125 0.203125,-0.140625 C 5.390625,-5.421875 5.625,-5.703125 6.0625,-5.921875 6.125,-5.96875 6.234375,-6.015625 6.234375,-6.125 6.234375,-6.234375 6.15625,-6.28125 6.09375,-6.328125 5.875,-6.484375 5.765625,-6.65625 5.6875,-6.890625 5.65625,-6.984375 5.625,-7.125 5.484375,-7.125 c -0.140625,0 -0.203125,0.140625 -0.203125,0.21875 0,0.046875 0.078125,0.359375 0.234375,0.578125 H 2.15625 c -0.15625,0 -0.34375,0 -0.34375,0.203125 0,0.1875 0.1875,0.1875 0.34375,0.1875 z m 0,0"
             id="id-71226927-5eea-4012-a009-5e7b6410e7c7" />
        </symbol>
        <symbol
           overflow="visible"
           id="id-09c04856-b84a-45f5-85ae-e2d90e0f1537">
          <path
             style="stroke:none"
             d="m 4.53125,-4.984375 c 0,-0.65625 -0.171875,-2.046875 -1.1875,-2.046875 -1.390625,0 -2.921875,2.8125 -2.921875,5.09375 0,0.9375 0.28125,2.046875 1.1875,2.046875 1.40625,0 2.921875,-2.859375 2.921875,-5.09375 z M 1.46875,-3.625 C 1.640625,-4.25 1.84375,-5.046875 2.25,-5.765625 2.515625,-6.25 2.875,-6.8125 3.328125,-6.8125 c 0.484375,0 0.546875,0.640625 0.546875,1.203125 0,0.5 -0.078125,1 -0.3125,1.984375 z m 2,0.328125 C 3.359375,-2.84375 3.15625,-2 2.765625,-1.28125 c -0.34375,0.6875 -0.71875,1.171875 -1.15625,1.171875 -0.328125,0 -0.53125,-0.296875 -0.53125,-1.21875 0,-0.421875 0.0625,-1 0.3125,-1.96875 z m 0,0"
             id="id-062576fb-1867-4c49-9c69-ad6cc74b2271" />
        </symbol>
        <symbol
           overflow="visible"
           id="id-c206c117-05c2-41e7-afa1-1ebbc660861a">
          <path
             style="stroke:none"
             d=""
             id="id-afc1581a-fa7a-47a1-8a02-e6d3884b25a1" />
        </symbol>
        <symbol
           overflow="visible"
           id="id-c9474cee-0526-4e46-a7d7-b0a0c81ea0a9">
          <path
             style="stroke:none"
             d="m 2.328125,-4.4375 c 0,-0.1875 0,-0.1875 -0.203125,-0.1875 -0.453125,0.4375 -1.078125,0.4375 -1.359375,0.4375 v 0.25 c 0.15625,0 0.625,0 1,-0.1875 v 3.546875 c 0,0.234375 0,0.328125 -0.6875,0.328125 H 0.8125 V 0 c 0.125,0 0.984375,-0.03125 1.234375,-0.03125 0.21875,0 1.09375,0.03125 1.25,0.03125 V -0.25 H 3.03125 c -0.703125,0 -0.703125,-0.09375 -0.703125,-0.328125 z m 0,0"
             id="id-353dbc93-f731-4b3c-804a-523f3fc1e5fb" />
        </symbol>
      </g>
    </defs>
  </defs>
  <sodipodi:namedview
     inkscape:window-maximized="1"
     inkscape:window-y="-9"
     inkscape:window-x="2391"
     inkscape:window-height="1271"
     inkscape:window-width="2400"
     showgrid="false"
     inkscape:document-rotation="0"
     inkscape:current-layer="layer1"
     inkscape:document-units="mm"
     inkscape:cy="203.64119"
     inkscape:cx="282.27374"
     inkscape:zoom="1.979899"
     inkscape:pageshadow="2"
     inkscape:pageopacity="1"
     borderopacity="1.0"
     bordercolor="#666666"
     pagecolor="#ffffff"
     id="base" />
  <metadata
     id="metadata5">
    <rdf:RDF>
      <cc:Work
         rdf:about="">
        <dc:format>image/svg+xml</dc:format>
        <dc:type
           rdf:resource="http://purl.org/dc/dcmitype/StillImage" />
        <dc:title></dc:title>
      </cc:Work>
    </rdf:RDF>
  </metadata>
  <g
     id="layer1"
     inkscape:groupmode="layer"
     inkscape:label="Layer 1">
    <g
       transform="translate(0.00120026,0.0011788)"
       id="g3762">
      <path
         style="fill:none;stroke:#6b3d3d;stroke-width:1;stroke-linecap:butt;stroke-linejoin:miter;stroke-miterlimit:4;stroke-dasharray:none;stroke-opacity:1"
         d="M 76.697461,50.549662 102.50765,23.904691"
         id="path1603"
         sodipodi:nodetypes="cc" />
      <path
         sodipodi:nodetypes="cc"
         id="path1614"
         d="m 94.369321,45.070458 -0.0834,-12.662755"
         style="fill:none;stroke:#6b3d3d;stroke-width:0.5;stroke-linecap:butt;stroke-linejoin:miter;stroke-miterlimit:4;stroke-dasharray:none;stroke-opacity:1" />
      <path
         style="fill:none;stroke:#6b3d3d;stroke-width:0.5;stroke-linecap:butt;stroke-linejoin:miter;stroke-miterlimit:4;stroke-dasharray:none;stroke-opacity:1"
         d="m 94.369321,45.070458 -12.66276,0.0834"
         id="path1616"
         sodipodi:nodetypes="cc" />
      <g
         id="g2467"
         ns5:jacobian_sqrt="1.05313"
         ns5:alignment="middle center"
         ns5:scale="2.985243694334681"
         ns5:preamble="C:\\Users\\Enze\\AppData\\Roaming\\inkscape\\extensions\\textext\\default_packages.tex"
         ns5:text="$ \\nabla_{\\vec{\\theta}} J(\\vec{\\theta}_1) $"
         ns5:pdfconverter="inkscape"
         ns5:texconverter="pdflatex"
         ns5:version="1.0.1"
         transform="matrix(0.91149477,0,0,0.91149477,95.564131,33.337941)"
         style="stroke-width:1.15539">
        <defs
           id="id-436bf015-a8ea-43ac-ad2b-a8542c116722">
          <g
             id="id-226f8c6d-7514-4762-9518-6165a1660989">
            <symbol
               overflow="visible"
               id="id-17763d5d-6502-48a4-9402-06de2224143a">
              <path
                 style="stroke:none"
                 d=""
                 id="id-be6eb7f3-77e4-497d-8326-d9bf33786004" />
            </symbol>
            <symbol
               overflow="visible"
               id="id-7c77306e-ee5c-49ed-8a65-521593a30b56">
              <path
                 style="stroke:none"
                 d="M 7.78125,-6.59375 C 7.796875,-6.625 7.828125,-6.6875 7.828125,-6.734375 7.828125,-6.796875 7.8125,-6.8125 7.59375,-6.8125 H 0.703125 c -0.21875,0 -0.234375,0.015625 -0.234375,0.078125 0,0.046875 0.03125,0.109375 0.046875,0.140625 L 3.875,0.140625 c 0.078125,0.125 0.109375,0.1875 0.265625,0.1875 0.171875,0 0.203125,-0.0625 0.28125,-0.1875 z m -6.078125,0.5 h 5.46875 l -2.71875,5.484375 z m 0,0"
                 id="id-817c8789-3532-4a81-87b8-1b398c07a9ee" />
            </symbol>
            <symbol
               overflow="visible"
               id="id-6bd103dd-de9d-4089-ae8b-a2def31cd8c2">
              <path
                 style="stroke:none"
                 d=""
                 id="id-739c8cc4-7ce4-4cbd-b408-9fc84a81251d" />
            </symbol>
            <symbol
               overflow="visible"
               id="id-f4a0c6c4-c4af-4642-8ac6-2f972e9ba446">
              <path
                 style="stroke:none"
                 d="m 4.03125,-4.125 c -0.046875,0.0625 -0.296875,0.265625 -0.296875,0.375 0,0.109375 0.078125,0.1875 0.171875,0.1875 0.078125,0 0.125,-0.046875 0.15625,-0.109375 0.1875,-0.203125 0.390625,-0.34375 0.578125,-0.4375 0.09375,-0.03125 0.171875,-0.078125 0.171875,-0.1875 0,-0.09375 -0.0625,-0.125 -0.125,-0.15625 C 4.453125,-4.59375 4.390625,-4.78125 4.359375,-4.859375 4.34375,-4.90625 4.296875,-5.015625 4.1875,-5.015625 c -0.0625,0 -0.171875,0.046875 -0.171875,0.171875 0,0.109375 0.109375,0.296875 0.171875,0.390625 H 1.671875 c -0.109375,0 -0.265625,0 -0.265625,0.15625 0,0.171875 0.15625,0.171875 0.265625,0.171875 z m 0,0"
                 id="id-fdae0bef-4ec5-4bf0-b812-51aed9212588" />
            </symbol>
            <symbol
               overflow="visible"
               id="id-e54ffeaa-1d84-4e09-82ca-e369993f83aa">
              <path
                 style="stroke:none"
                 d="m 3.5625,-3.390625 c 0,-0.734375 -0.28125,-1.515625 -0.96875,-1.515625 -1.046875,0 -2.15625,1.875 -2.15625,3.46875 0,0.828125 0.328125,1.5 0.96875,1.5 1.046875,0 2.15625,-1.890625 2.15625,-3.453125 z m -2.34375,0.84375 c 0.359375,-1.5 0.96875,-2.15625 1.375,-2.15625 0.4375,0 0.4375,0.765625 0.4375,0.890625 0,0.28125 -0.046875,0.6875 -0.1875,1.265625 z m 1.5625,0.25 C 2.578125,-1.53125 2.421875,-1.15625 2.203125,-0.8125 2,-0.453125 1.71875,-0.125 1.40625,-0.125 c -0.375,0 -0.4375,-0.53125 -0.4375,-0.90625 0,-0.453125 0.125,-1 0.1875,-1.265625 z m 0,0"
                 id="id-f617f5d0-179e-4cbe-80c7-491b6886b801" />
            </symbol>
            <symbol
               overflow="visible"
               id="id-8c7daa92-34cd-46b6-b60a-50d741432c52">
              <path
                 style="stroke:none"
                 d=""
                 id="id-ad18ca4b-0461-4a58-9729-d0007bf95e90" />
            </symbol>
            <symbol
               overflow="visible"
               id="id-b995781d-e035-4785-9682-68765853fc44">
              <path
                 style="stroke:none"
                 d="M 5.390625,-6.078125 C 5.46875,-6.40625 5.5,-6.5 6.046875,-6.5 c 0.15625,0 0.265625,0 0.265625,-0.1875 0,-0.09375 -0.0625,-0.125 -0.140625,-0.125 -0.25,0 -0.859375,0.03125 -1.109375,0.03125 -0.328125,0 -1.140625,-0.03125 -1.46875,-0.03125 -0.078125,0 -0.203125,0 -0.203125,0.203125 C 3.390625,-6.5 3.46875,-6.5 3.734375,-6.5 c 0.21875,0 0.328125,0 0.578125,0.015625 0.234375,0.03125 0.296875,0.0625 0.296875,0.203125 0,0.0625 -0.015625,0.125 -0.03125,0.203125 L 3.421875,-1.5 C 3.1875,-0.53125 2.515625,0 2,0 1.734375,0 1.203125,-0.09375 1.046875,-0.625 c 0.03125,0.015625 0.09375,0.015625 0.125,0.015625 0.390625,0 0.640625,-0.34375 0.640625,-0.640625 0,-0.3125 -0.265625,-0.421875 -0.4375,-0.421875 -0.171875,0 -0.671875,0.125 -0.671875,0.796875 0,0.625 0.53125,1.09375 1.328125,1.09375 0.90625,0 1.953125,-0.65625 2.203125,-1.640625 z m 0,0"
                 id="id-fe880654-d701-4dee-807c-04e2df311d32" />
            </symbol>
            <symbol
               overflow="visible"
               id="id-f25e57c9-36f6-4aa0-b352-923a81fa30f4">
              <path
                 style="stroke:none"
                 d="m 5.359375,-5.9375 c -0.140625,0.140625 -0.46875,0.421875 -0.46875,0.59375 0,0.09375 0.09375,0.203125 0.1875,0.203125 0.09375,0 0.140625,-0.078125 0.203125,-0.140625 C 5.390625,-5.421875 5.625,-5.703125 6.0625,-5.921875 6.125,-5.96875 6.234375,-6.015625 6.234375,-6.125 6.234375,-6.234375 6.15625,-6.28125 6.09375,-6.328125 5.875,-6.484375 5.765625,-6.65625 5.6875,-6.890625 5.65625,-6.984375 5.625,-7.125 5.484375,-7.125 c -0.140625,0 -0.203125,0.140625 -0.203125,0.21875 0,0.046875 0.078125,0.359375 0.234375,0.578125 H 2.15625 c -0.15625,0 -0.34375,0 -0.34375,0.203125 0,0.1875 0.1875,0.1875 0.34375,0.1875 z m 0,0"
                 id="id-4ac7691c-ddb6-4a87-be8c-a6a911fe8812" />
            </symbol>
            <symbol
               overflow="visible"
               id="id-37df8026-2f9f-4a04-aed9-d04426d9ee2d">
              <path
                 style="stroke:none"
                 d="m 4.53125,-4.984375 c 0,-0.65625 -0.171875,-2.046875 -1.1875,-2.046875 -1.390625,0 -2.921875,2.8125 -2.921875,5.09375 0,0.9375 0.28125,2.046875 1.1875,2.046875 1.40625,0 2.921875,-2.859375 2.921875,-5.09375 z M 1.46875,-3.625 C 1.640625,-4.25 1.84375,-5.046875 2.25,-5.765625 2.515625,-6.25 2.875,-6.8125 3.328125,-6.8125 c 0.484375,0 0.546875,0.640625 0.546875,1.203125 0,0.5 -0.078125,1 -0.3125,1.984375 z m 2,0.328125 C 3.359375,-2.84375 3.15625,-2 2.765625,-1.28125 c -0.34375,0.6875 -0.71875,1.171875 -1.15625,1.171875 -0.328125,0 -0.53125,-0.296875 -0.53125,-1.21875 0,-0.421875 0.0625,-1 0.3125,-1.96875 z m 0,0"
                 id="id-cecb768f-6306-4e9f-bcaf-15d7f4c76daa" />
            </symbol>
            <symbol
               overflow="visible"
               id="id-c125e0a7-b8f8-4bc8-92b2-d2cba8983208">
              <path
                 style="stroke:none"
                 d=""
                 id="id-8fd174f7-354f-4f39-a9bc-d4b9fa51dbe4" />
            </symbol>
            <symbol
               overflow="visible"
               id="id-1102c216-98f2-4556-88d1-a87ea5acaf6f">
              <path
                 style="stroke:none"
                 d="m 3.296875,2.390625 c 0,-0.03125 0,-0.046875 -0.171875,-0.21875 C 1.890625,0.921875 1.5625,-0.96875 1.5625,-2.5 c 0,-1.734375 0.375,-3.46875 1.609375,-4.703125 0.125,-0.125 0.125,-0.140625 0.125,-0.171875 0,-0.078125 -0.03125,-0.109375 -0.09375,-0.109375 -0.109375,0 -1,0.6875 -1.59375,1.953125 -0.5,1.09375 -0.625,2.203125 -0.625,3.03125 0,0.78125 0.109375,1.984375 0.65625,3.125 C 2.25,1.84375 3.09375,2.5 3.203125,2.5 c 0.0625,0 0.09375,-0.03125 0.09375,-0.109375 z m 0,0"
                 id="id-4d06257a-2baf-48e3-8d30-35f8629174ce" />
            </symbol>
            <symbol
               overflow="visible"
               id="id-bd08549c-783c-492a-91fc-705f45550ca9">
              <path
                 style="stroke:none"
                 d="m 2.875,-2.5 c 0,-0.765625 -0.109375,-1.96875 -0.65625,-3.109375 -0.59375,-1.21875 -1.453125,-1.875 -1.546875,-1.875 -0.0625,0 -0.109375,0.046875 -0.109375,0.109375 0,0.03125 0,0.046875 0.1875,0.234375 0.984375,0.984375 1.546875,2.5625 1.546875,4.640625 0,1.71875 -0.359375,3.46875 -1.59375,4.71875 C 0.5625,2.34375 0.5625,2.359375 0.5625,2.390625 0.5625,2.453125 0.609375,2.5 0.671875,2.5 0.765625,2.5 1.671875,1.8125 2.25,0.546875 2.765625,-0.546875 2.875,-1.65625 2.875,-2.5 Z m 0,0"
                 id="id-b00cbdec-8532-457b-8e8b-e290129f1826" />
            </symbol>
            <symbol
               overflow="visible"
               id="id-a72871ca-cf47-4bd4-872f-94801a956fe9">
              <path
                 style="stroke:none"
                 d=""
                 id="id-974a946b-96e9-485f-b226-27b710f8a264" />
            </symbol>
            <symbol
               overflow="visible"
               id="id-14e090e5-bf4d-4b57-9577-6ab56e58ab79">
              <path
                 style="stroke:none"
                 d="m 2.328125,-4.4375 c 0,-0.1875 0,-0.1875 -0.203125,-0.1875 -0.453125,0.4375 -1.078125,0.4375 -1.359375,0.4375 v 0.25 c 0.15625,0 0.625,0 1,-0.1875 v 3.546875 c 0,0.234375 0,0.328125 -0.6875,0.328125 H 0.8125 V 0 c 0.125,0 0.984375,-0.03125 1.234375,-0.03125 0.21875,0 1.09375,0.03125 1.25,0.03125 V -0.25 H 3.03125 c -0.703125,0 -0.703125,-0.09375 -0.703125,-0.328125 z m 0,0"
                 id="id-3c696333-529e-4d4d-99ea-35df06f881a1" />
            </symbol>
          </g>
        </defs>
        <g
           id="id-9edbf5c4-164e-439e-a502-aba3ce62e056"
           transform="translate(-149.181,-125.011)"
           style="stroke-width:1.15539">
          <g
             id="g2858"
             ns5:jacobian_sqrt="1.05313"
             ns5:inkscapeversion="1.0"
             ns5:alignment="middle center"
             ns5:scale="2.985243694334681"
             ns5:preamble="C:\\Users\\Enze\\AppData\\Roaming\\inkscape\\extensions\\textext\\default_packages.tex"
             ns5:text="$ \\nabla_{\\vec{\\theta}} J(\\vec{\\theta}_{i}) $"
             ns5:pdfconverter="inkscape"
             ns5:texconverter="pdflatex"
             ns5:version="1.0.1"
             transform="matrix(1.05313,0,0,1.05313,149.21451,123.97797)">
            <defs
               id="id-5dae5742-c98c-4464-b343-f9181c6e730f">
              <g
                 id="id-6f4e1540-14c4-47de-aa8e-d17f0cbd1049">
                <symbol
                   overflow="visible"
                   id="id-fc73065f-035e-4d36-93df-8f3ea9afa005">
                  <path
                     style="stroke:none"
                     d=""
                     id="id-1b52a4aa-841f-41ea-90a1-c9804aff3ad6" />
                </symbol>
                <symbol
                   overflow="visible"
                   id="id-0cc477cc-4189-47e4-ac66-d853213e2231">
                  <path
                     style="stroke:none"
                     d="M 7.78125,-6.59375 C 7.796875,-6.625 7.828125,-6.6875 7.828125,-6.734375 7.828125,-6.796875 7.8125,-6.8125 7.59375,-6.8125 H 0.703125 c -0.21875,0 -0.234375,0.015625 -0.234375,0.078125 0,0.046875 0.03125,0.109375 0.046875,0.140625 L 3.875,0.140625 c 0.078125,0.125 0.109375,0.1875 0.265625,0.1875 0.171875,0 0.203125,-0.0625 0.28125,-0.1875 z m -6.078125,0.5 h 5.46875 l -2.71875,5.484375 z m 0,0"
                     id="id-e1317826-698d-4fd2-bb6e-0977b700adc7" />
                </symbol>
                <symbol
                   overflow="visible"
                   id="id-6b528c9e-4b59-4b23-ac88-9bf3b9567e97">
                  <path
                     style="stroke:none"
                     d=""
                     id="id-e4f08a5c-01fc-478d-956f-9b5f6c1ea638" />
                </symbol>
                <symbol
                   overflow="visible"
                   id="id-86d5ce2d-4a0d-42fb-a737-203c094ecbc9">
                  <path
                     style="stroke:none"
                     d="m 4.03125,-4.125 c -0.046875,0.0625 -0.296875,0.265625 -0.296875,0.375 0,0.109375 0.078125,0.1875 0.171875,0.1875 0.078125,0 0.125,-0.046875 0.15625,-0.109375 0.1875,-0.203125 0.390625,-0.34375 0.578125,-0.4375 0.09375,-0.03125 0.171875,-0.078125 0.171875,-0.1875 0,-0.09375 -0.0625,-0.125 -0.125,-0.15625 C 4.453125,-4.59375 4.390625,-4.78125 4.359375,-4.859375 4.34375,-4.90625 4.296875,-5.015625 4.1875,-5.015625 c -0.0625,0 -0.171875,0.046875 -0.171875,0.171875 0,0.109375 0.109375,0.296875 0.171875,0.390625 H 1.671875 c -0.109375,0 -0.265625,0 -0.265625,0.15625 0,0.171875 0.15625,0.171875 0.265625,0.171875 z m 0,0"
                     id="id-580b3a5d-9cf9-4721-bc21-4cee29111a2e" />
                </symbol>
                <symbol
                   overflow="visible"
                   id="id-6fda30fb-3868-45fa-a298-8c3e2cf4d374">
                  <path
                     style="stroke:none"
                     d="m 3.5625,-3.390625 c 0,-0.734375 -0.28125,-1.515625 -0.96875,-1.515625 -1.046875,0 -2.15625,1.875 -2.15625,3.46875 0,0.828125 0.328125,1.5 0.96875,1.5 1.046875,0 2.15625,-1.890625 2.15625,-3.453125 z m -2.34375,0.84375 c 0.359375,-1.5 0.96875,-2.15625 1.375,-2.15625 0.4375,0 0.4375,0.765625 0.4375,0.890625 0,0.28125 -0.046875,0.6875 -0.1875,1.265625 z m 1.5625,0.25 C 2.578125,-1.53125 2.421875,-1.15625 2.203125,-0.8125 2,-0.453125 1.71875,-0.125 1.40625,-0.125 c -0.375,0 -0.4375,-0.53125 -0.4375,-0.90625 0,-0.453125 0.125,-1 0.1875,-1.265625 z m 0,0"
                     id="id-b8c94c4b-be23-43af-a788-2dfb0dad6d98" />
                </symbol>
                <symbol
                   overflow="visible"
                   id="id-fe34e50d-3135-49f5-9922-d61ebc54e3a6">
                  <path
                     style="stroke:none"
                     d="m 2.265625,-4.359375 c 0,-0.109375 -0.09375,-0.265625 -0.28125,-0.265625 -0.1875,0 -0.390625,0.1875 -0.390625,0.390625 0,0.109375 0.078125,0.265625 0.28125,0.265625 0.1875,0 0.390625,-0.203125 0.390625,-0.390625 z M 0.84375,-0.8125 c -0.03125,0.09375 -0.0625,0.171875 -0.0625,0.296875 0,0.328125 0.265625,0.578125 0.65625,0.578125 0.6875,0 1,-0.953125 1,-1.0625 0,-0.09375 -0.09375,-0.09375 -0.109375,-0.09375 -0.09375,0 -0.109375,0.046875 -0.140625,0.125 -0.15625,0.5625 -0.453125,0.84375 -0.734375,0.84375 -0.140625,0 -0.171875,-0.09375 -0.171875,-0.25 0,-0.15625 0.046875,-0.28125 0.109375,-0.4375 C 1.46875,-1 1.546875,-1.1875 1.609375,-1.375 1.671875,-1.546875 1.9375,-2.171875 1.953125,-2.265625 1.984375,-2.328125 2,-2.40625 2,-2.484375 2,-2.8125 1.71875,-3.078125 1.34375,-3.078125 0.640625,-3.078125 0.328125,-2.125 0.328125,-2 c 0,0.078125 0.09375,0.078125 0.125,0.078125 0.09375,0 0.09375,-0.03125 0.125,-0.109375 C 0.75,-2.625 1.0625,-2.875 1.3125,-2.875 c 0.109375,0 0.171875,0.046875 0.171875,0.234375 0,0.171875 -0.03125,0.265625 -0.203125,0.703125 z m 0,0"
                     id="id-d2a4b082-e6d7-4a74-8e26-de4c2513aa2b" />
                </symbol>
                <symbol
                   overflow="visible"
                   id="id-b1b5a2b2-a674-4353-b373-8b92a5232000">
                  <path
                     style="stroke:none"
                     d=""
                     id="id-400eff48-2767-42d9-af3d-b2c3b76059de" />
                </symbol>
                <symbol
                   overflow="visible"
                   id="id-63c5ea01-c9a5-4e8f-9074-d6a213770799">
                  <path
                     style="stroke:none"
                     d="M 5.390625,-6.078125 C 5.46875,-6.40625 5.5,-6.5 6.046875,-6.5 c 0.15625,0 0.265625,0 0.265625,-0.1875 0,-0.09375 -0.0625,-0.125 -0.140625,-0.125 -0.25,0 -0.859375,0.03125 -1.109375,0.03125 -0.328125,0 -1.140625,-0.03125 -1.46875,-0.03125 -0.078125,0 -0.203125,0 -0.203125,0.203125 C 3.390625,-6.5 3.46875,-6.5 3.734375,-6.5 c 0.21875,0 0.328125,0 0.578125,0.015625 0.234375,0.03125 0.296875,0.0625 0.296875,0.203125 0,0.0625 -0.015625,0.125 -0.03125,0.203125 L 3.421875,-1.5 C 3.1875,-0.53125 2.515625,0 2,0 1.734375,0 1.203125,-0.09375 1.046875,-0.625 c 0.03125,0.015625 0.09375,0.015625 0.125,0.015625 0.390625,0 0.640625,-0.34375 0.640625,-0.640625 0,-0.3125 -0.265625,-0.421875 -0.4375,-0.421875 -0.171875,0 -0.671875,0.125 -0.671875,0.796875 0,0.625 0.53125,1.09375 1.328125,1.09375 0.90625,0 1.953125,-0.65625 2.203125,-1.640625 z m 0,0"
                     id="id-3ffc25e2-60ec-4083-89b3-2e8527d8ce05" />
                </symbol>
                <symbol
                   overflow="visible"
                   id="id-20fa5473-4eee-4666-9c01-a6ce731633d1">
                  <path
                     style="stroke:none"
                     d="m 5.359375,-5.9375 c -0.140625,0.140625 -0.46875,0.421875 -0.46875,0.59375 0,0.09375 0.09375,0.203125 0.1875,0.203125 0.09375,0 0.140625,-0.078125 0.203125,-0.140625 C 5.390625,-5.421875 5.625,-5.703125 6.0625,-5.921875 6.125,-5.96875 6.234375,-6.015625 6.234375,-6.125 6.234375,-6.234375 6.15625,-6.28125 6.09375,-6.328125 5.875,-6.484375 5.765625,-6.65625 5.6875,-6.890625 5.65625,-6.984375 5.625,-7.125 5.484375,-7.125 c -0.140625,0 -0.203125,0.140625 -0.203125,0.21875 0,0.046875 0.078125,0.359375 0.234375,0.578125 H 2.15625 c -0.15625,0 -0.34375,0 -0.34375,0.203125 0,0.1875 0.1875,0.1875 0.34375,0.1875 z m 0,0"
                     id="id-e90a0da9-ed07-43a3-ada8-df4ecfedbebf" />
                </symbol>
                <symbol
                   overflow="visible"
                   id="id-893772af-12da-4da2-a1f7-ef1919a352f3">
                  <path
                     style="stroke:none"
                     d="m 4.53125,-4.984375 c 0,-0.65625 -0.171875,-2.046875 -1.1875,-2.046875 -1.390625,0 -2.921875,2.8125 -2.921875,5.09375 0,0.9375 0.28125,2.046875 1.1875,2.046875 1.40625,0 2.921875,-2.859375 2.921875,-5.09375 z M 1.46875,-3.625 C 1.640625,-4.25 1.84375,-5.046875 2.25,-5.765625 2.515625,-6.25 2.875,-6.8125 3.328125,-6.8125 c 0.484375,0 0.546875,0.640625 0.546875,1.203125 0,0.5 -0.078125,1 -0.3125,1.984375 z m 2,0.328125 C 3.359375,-2.84375 3.15625,-2 2.765625,-1.28125 c -0.34375,0.6875 -0.71875,1.171875 -1.15625,1.171875 -0.328125,0 -0.53125,-0.296875 -0.53125,-1.21875 0,-0.421875 0.0625,-1 0.3125,-1.96875 z m 0,0"
                     id="id-553cc523-a55e-4eb4-9006-b37ecae76fef" />
                </symbol>
                <symbol
                   overflow="visible"
                   id="id-94c3a8d4-2eb5-4260-a56e-633461dd8e30">
                  <path
                     style="stroke:none"
                     d=""
                     id="id-fd5e5947-ad37-4b4a-80a1-86391adc08a7" />
                </symbol>
                <symbol
                   overflow="visible"
                   id="id-6168acdc-80b1-42fa-bfa5-9056905a967a">
                  <path
                     style="stroke:none"
                     d="m 3.296875,2.390625 c 0,-0.03125 0,-0.046875 -0.171875,-0.21875 C 1.890625,0.921875 1.5625,-0.96875 1.5625,-2.5 c 0,-1.734375 0.375,-3.46875 1.609375,-4.703125 0.125,-0.125 0.125,-0.140625 0.125,-0.171875 0,-0.078125 -0.03125,-0.109375 -0.09375,-0.109375 -0.109375,0 -1,0.6875 -1.59375,1.953125 -0.5,1.09375 -0.625,2.203125 -0.625,3.03125 0,0.78125 0.109375,1.984375 0.65625,3.125 C 2.25,1.84375 3.09375,2.5 3.203125,2.5 c 0.0625,0 0.09375,-0.03125 0.09375,-0.109375 z m 0,0"
                     id="id-52781746-8fe4-4e59-8e8f-71b99653448d" />
                </symbol>
                <symbol
                   overflow="visible"
                   id="id-537d97b6-351e-4f26-95de-6aa8161bf352">
                  <path
                     style="stroke:none"
                     d="m 2.875,-2.5 c 0,-0.765625 -0.109375,-1.96875 -0.65625,-3.109375 -0.59375,-1.21875 -1.453125,-1.875 -1.546875,-1.875 -0.0625,0 -0.109375,0.046875 -0.109375,0.109375 0,0.03125 0,0.046875 0.1875,0.234375 0.984375,0.984375 1.546875,2.5625 1.546875,4.640625 0,1.71875 -0.359375,3.46875 -1.59375,4.71875 C 0.5625,2.34375 0.5625,2.359375 0.5625,2.390625 0.5625,2.453125 0.609375,2.5 0.671875,2.5 0.765625,2.5 1.671875,1.8125 2.25,0.546875 2.765625,-0.546875 2.875,-1.65625 2.875,-2.5 Z m 0,0"
                     id="id-ec452e9c-fa57-4e1a-b16b-b979edcb3c58" />
                </symbol>
              </g>
            </defs>
            <g
               id="id-e7cfed4f-2037-4e8a-b1f5-ad42ef3437dd"
               transform="translate(-149.181,-125.011)">
              <g
                 style="fill:#000000;fill-opacity:1"
                 id="id-a1b6a5b7-491b-440e-bcc7-00c0e9c72fa1">
                <g
                   id="g2822"
                   transform="translate(148.712,134.765)">
                  <path
                     style="stroke:none"
                     d="M 7.78125,-6.59375 C 7.796875,-6.625 7.828125,-6.6875 7.828125,-6.734375 7.828125,-6.796875 7.8125,-6.8125 7.59375,-6.8125 H 0.703125 c -0.21875,0 -0.234375,0.015625 -0.234375,0.078125 0,0.046875 0.03125,0.109375 0.046875,0.140625 L 3.875,0.140625 c 0.078125,0.125 0.109375,0.1875 0.265625,0.1875 0.171875,0 0.203125,-0.0625 0.28125,-0.1875 z m -6.078125,0.5 h 5.46875 l -2.71875,5.484375 z m 0,0"
                     id="id-55c75397-77fd-494f-be02-c08bfda865bc" />
                </g>
              </g>
              <g
                 style="fill:#000000;fill-opacity:1"
                 id="id-1a919270-a4d9-4f8f-ad91-547b6679a6c0">
                <g
                   id="g2826"
                   transform="translate(157.085,136.345)">
                  <path
                     style="stroke:none"
                     d="m 4.03125,-4.125 c -0.046875,0.0625 -0.296875,0.265625 -0.296875,0.375 0,0.109375 0.078125,0.1875 0.171875,0.1875 0.078125,0 0.125,-0.046875 0.15625,-0.109375 0.1875,-0.203125 0.390625,-0.34375 0.578125,-0.4375 0.09375,-0.03125 0.171875,-0.078125 0.171875,-0.1875 0,-0.09375 -0.0625,-0.125 -0.125,-0.15625 C 4.453125,-4.59375 4.390625,-4.78125 4.359375,-4.859375 4.34375,-4.90625 4.296875,-5.015625 4.1875,-5.015625 c -0.0625,0 -0.171875,0.046875 -0.171875,0.171875 0,0.109375 0.109375,0.296875 0.171875,0.390625 H 1.671875 c -0.109375,0 -0.265625,0 -0.265625,0.15625 0,0.171875 0.15625,0.171875 0.265625,0.171875 z m 0,0"
                     id="id-edcf99d2-5f81-411d-97f0-72f3c58d14c7" />
                </g>
              </g>
              <g
                 style="fill:#000000;fill-opacity:1"
                 id="id-6cb414ea-9a5e-4b5c-95cc-f2690e4eed20">
                <g
                   id="g2830"
                   transform="translate(157.015,138.186)">
                  <path
                     style="stroke:none"
                     d="m 3.5625,-3.390625 c 0,-0.734375 -0.28125,-1.515625 -0.96875,-1.515625 -1.046875,0 -2.15625,1.875 -2.15625,3.46875 0,0.828125 0.328125,1.5 0.96875,1.5 1.046875,0 2.15625,-1.890625 2.15625,-3.453125 z m -2.34375,0.84375 c 0.359375,-1.5 0.96875,-2.15625 1.375,-2.15625 0.4375,0 0.4375,0.765625 0.4375,0.890625 0,0.28125 -0.046875,0.6875 -0.1875,1.265625 z m 1.5625,0.25 C 2.578125,-1.53125 2.421875,-1.15625 2.203125,-0.8125 2,-0.453125 1.71875,-0.125 1.40625,-0.125 c -0.375,0 -0.4375,-0.53125 -0.4375,-0.90625 0,-0.453125 0.125,-1 0.1875,-1.265625 z m 0,0"
                     id="id-ce80215c-0956-40cb-bedb-6df88a674610" />
                </g>
              </g>
              <g
                 style="fill:#000000;fill-opacity:1"
                 id="id-1b0c0f84-4555-4501-a348-45c505e020b7">
                <g
                   id="g2834"
                   transform="translate(161.522,134.765)">
                  <path
                     style="stroke:none"
                     d="M 5.390625,-6.078125 C 5.46875,-6.40625 5.5,-6.5 6.046875,-6.5 c 0.15625,0 0.265625,0 0.265625,-0.1875 0,-0.09375 -0.0625,-0.125 -0.140625,-0.125 -0.25,0 -0.859375,0.03125 -1.109375,0.03125 -0.328125,0 -1.140625,-0.03125 -1.46875,-0.03125 -0.078125,0 -0.203125,0 -0.203125,0.203125 C 3.390625,-6.5 3.46875,-6.5 3.734375,-6.5 c 0.21875,0 0.328125,0 0.578125,0.015625 0.234375,0.03125 0.296875,0.0625 0.296875,0.203125 0,0.0625 -0.015625,0.125 -0.03125,0.203125 L 3.421875,-1.5 C 3.1875,-0.53125 2.515625,0 2,0 1.734375,0 1.203125,-0.09375 1.046875,-0.625 c 0.03125,0.015625 0.09375,0.015625 0.125,0.015625 0.390625,0 0.640625,-0.34375 0.640625,-0.640625 0,-0.3125 -0.265625,-0.421875 -0.4375,-0.421875 -0.171875,0 -0.671875,0.125 -0.671875,0.796875 0,0.625 0.53125,1.09375 1.328125,1.09375 0.90625,0 1.953125,-0.65625 2.203125,-1.640625 z m 0,0"
                     id="id-e31b61df-b5df-4fa1-864b-78065d17c64e" />
                </g>
              </g>
              <g
                 style="fill:#000000;fill-opacity:1"
                 id="id-3ec6e5c0-9246-4903-8e67-fd87f4810548">
                <g
                   id="g2838"
                   transform="translate(168.005,134.765)">
                  <path
                     style="stroke:none"
                     d="m 3.296875,2.390625 c 0,-0.03125 0,-0.046875 -0.171875,-0.21875 C 1.890625,0.921875 1.5625,-0.96875 1.5625,-2.5 c 0,-1.734375 0.375,-3.46875 1.609375,-4.703125 0.125,-0.125 0.125,-0.140625 0.125,-0.171875 0,-0.078125 -0.03125,-0.109375 -0.09375,-0.109375 -0.109375,0 -1,0.6875 -1.59375,1.953125 -0.5,1.09375 -0.625,2.203125 -0.625,3.03125 0,0.78125 0.109375,1.984375 0.65625,3.125 C 2.25,1.84375 3.09375,2.5 3.203125,2.5 c 0.0625,0 0.09375,-0.03125 0.09375,-0.109375 z m 0,0"
                     id="id-23cdc278-3fef-48a6-8433-6cf4252f6c0a" />
                </g>
              </g>
              <g
                 style="fill:#000000;fill-opacity:1"
                 id="id-b5aa0419-f975-4d02-8689-3203f4f1fed8">
                <g
                   id="g2842"
                   transform="translate(171.929,132.136)">
                  <path
                     style="stroke:none"
                     d="m 5.359375,-5.9375 c -0.140625,0.140625 -0.46875,0.421875 -0.46875,0.59375 0,0.09375 0.09375,0.203125 0.1875,0.203125 0.09375,0 0.140625,-0.078125 0.203125,-0.140625 C 5.390625,-5.421875 5.625,-5.703125 6.0625,-5.921875 6.125,-5.96875 6.234375,-6.015625 6.234375,-6.125 6.234375,-6.234375 6.15625,-6.28125 6.09375,-6.328125 5.875,-6.484375 5.765625,-6.65625 5.6875,-6.890625 5.65625,-6.984375 5.625,-7.125 5.484375,-7.125 c -0.140625,0 -0.203125,0.140625 -0.203125,0.21875 0,0.046875 0.078125,0.359375 0.234375,0.578125 H 2.15625 c -0.15625,0 -0.34375,0 -0.34375,0.203125 0,0.1875 0.1875,0.1875 0.34375,0.1875 z m 0,0"
                     id="id-0501e20f-f249-434e-be8b-770ccd402127" />
                </g>
              </g>
              <g
                 style="fill:#000000;fill-opacity:1"
                 id="id-66bc6aad-ed55-4403-b9a5-45371035b52b">
                <g
                   id="g2846"
                   transform="translate(171.879,134.765)">
                  <path
                     style="stroke:none"
                     d="m 4.53125,-4.984375 c 0,-0.65625 -0.171875,-2.046875 -1.1875,-2.046875 -1.390625,0 -2.921875,2.8125 -2.921875,5.09375 0,0.9375 0.28125,2.046875 1.1875,2.046875 1.40625,0 2.921875,-2.859375 2.921875,-5.09375 z M 1.46875,-3.625 C 1.640625,-4.25 1.84375,-5.046875 2.25,-5.765625 2.515625,-6.25 2.875,-6.8125 3.328125,-6.8125 c 0.484375,0 0.546875,0.640625 0.546875,1.203125 0,0.5 -0.078125,1 -0.3125,1.984375 z m 2,0.328125 C 3.359375,-2.84375 3.15625,-2 2.765625,-1.28125 c -0.34375,0.6875 -0.71875,1.171875 -1.15625,1.171875 -0.328125,0 -0.53125,-0.296875 -0.53125,-1.21875 0,-0.421875 0.0625,-1 0.3125,-1.96875 z m 0,0"
                     id="id-ba593ccf-6f70-42de-a3a2-9bcb564c916c" />
                </g>
              </g>
              <g
                 style="fill:#000000;fill-opacity:1"
                 id="id-52b41b97-e6be-4706-af39-3f23d2b8ba84">
                <g
                   id="g2850"
                   transform="translate(176.556,136.259)">
                  <path
                     style="stroke:none"
                     d="m 2.265625,-4.359375 c 0,-0.109375 -0.09375,-0.265625 -0.28125,-0.265625 -0.1875,0 -0.390625,0.1875 -0.390625,0.390625 0,0.109375 0.078125,0.265625 0.28125,0.265625 0.1875,0 0.390625,-0.203125 0.390625,-0.390625 z M 0.84375,-0.8125 c -0.03125,0.09375 -0.0625,0.171875 -0.0625,0.296875 0,0.328125 0.265625,0.578125 0.65625,0.578125 0.6875,0 1,-0.953125 1,-1.0625 0,-0.09375 -0.09375,-0.09375 -0.109375,-0.09375 -0.09375,0 -0.109375,0.046875 -0.140625,0.125 -0.15625,0.5625 -0.453125,0.84375 -0.734375,0.84375 -0.140625,0 -0.171875,-0.09375 -0.171875,-0.25 0,-0.15625 0.046875,-0.28125 0.109375,-0.4375 C 1.46875,-1 1.546875,-1.1875 1.609375,-1.375 1.671875,-1.546875 1.9375,-2.171875 1.953125,-2.265625 1.984375,-2.328125 2,-2.40625 2,-2.484375 2,-2.8125 1.71875,-3.078125 1.34375,-3.078125 0.640625,-3.078125 0.328125,-2.125 0.328125,-2 c 0,0.078125 0.09375,0.078125 0.125,0.078125 0.09375,0 0.09375,-0.03125 0.125,-0.109375 C 0.75,-2.625 1.0625,-2.875 1.3125,-2.875 c 0.109375,0 0.171875,0.046875 0.171875,0.234375 0,0.171875 -0.03125,0.265625 -0.203125,0.703125 z m 0,0"
                     id="id-c8f601b3-6295-4012-8aef-7fdb3f2b50e0" />
                </g>
              </g>
              <g
                 style="fill:#000000;fill-opacity:1"
                 id="id-cb7c900f-c585-4e1e-8a1e-facd994763cd">
                <g
                   id="g2854"
                   transform="translate(179.873,134.765)">
                  <path
                     style="stroke:none"
                     d="m 2.875,-2.5 c 0,-0.765625 -0.109375,-1.96875 -0.65625,-3.109375 -0.59375,-1.21875 -1.453125,-1.875 -1.546875,-1.875 -0.0625,0 -0.109375,0.046875 -0.109375,0.109375 0,0.03125 0,0.046875 0.1875,0.234375 0.984375,0.984375 1.546875,2.5625 1.546875,4.640625 0,1.71875 -0.359375,3.46875 -1.59375,4.71875 C 0.5625,2.34375 0.5625,2.359375 0.5625,2.390625 0.5625,2.453125 0.609375,2.5 0.671875,2.5 0.765625,2.5 1.671875,1.8125 2.25,0.546875 2.765625,-0.546875 2.875,-1.65625 2.875,-2.5 Z m 0,0"
                     id="id-670cd6a4-786f-46a9-b98d-b874ad1ba183" />
                </g>
              </g>
            </g>
          </g>
        </g>
      </g>
    </g>
    <path
       id="path833"
       d="M 16.010271,93.245286 V 2.1063796"
       style="fill:none;stroke:#000000;stroke-width:1;stroke-linecap:butt;stroke-linejoin:miter;stroke-miterlimit:4;stroke-dasharray:none;stroke-opacity:1;marker-end:url(#Arrow2Mend)" />
    <path
       style="fill:none;stroke:#000000;stroke-width:1;stroke-linecap:butt;stroke-linejoin:miter;stroke-miterlimit:4;stroke-dasharray:none;stroke-opacity:1;marker-end:url(#marker1127)"
       d="M 7.6096268,90.655366 H 123.78248"
       id="path1123" />
    <path
       sodipodi:nodetypes="czsc"
       id="path1211"
       d="M 2.2373478,47.149048 C 11.65802,46.472275 7.3849168,32.9543 19.813241,32.97494 32.241564,32.99558 32.574027,61.93706 47.027526,61.89012 88.679151,61.75485 101.07813,2.1698826 101.07813,2.1698826"
       style="fill:none;stroke:#000000;stroke-width:1.5;stroke-linecap:butt;stroke-linejoin:miter;stroke-miterlimit:4;stroke-dasharray:none;stroke-opacity:1" />
    <g
       transform="matrix(1.05313,0,0,1.05313,36.985441,72.642936)"
       ns5:version="1.0.1"
       ns5:texconverter="pdflatex"
       ns5:pdfconverter="inkscape"
       ns5:text="$ J \\left( \\vec{ \\theta } \\right)$"
       ns5:preamble="C:\\Users\\Enze\\AppData\\Roaming\\inkscape\\extensions\\textext\\default_packages.tex"
       ns5:scale="2.985243694334681"
       ns5:alignment="middle center"
       ns5:jacobian_sqrt="1.05313"
       id="g1272">
      <defs
         id="id-8a798c92-c3d3-4bb9-b31d-a644aabbbcaf">
        <g
           id="id-7a269d86-ed8f-4d51-a537-ff8d2da53346">
          <symbol
             id="id-3590e6b7-61ed-4978-a785-fc9536787017"
             overflow="visible">
            <path
               id="id-d9df9b10-621c-4458-a3bc-dd82c4432a8a"
               d=""
               style="stroke:none" />
          </symbol>
          <symbol
             id="id-30992df5-449c-48cc-bb69-42b7c1f75232"
             overflow="visible">
            <path
               id="id-5f025f73-95d4-4127-9868-b4784e52d490"
               d="M 5.390625,-6.078125 C 5.46875,-6.40625 5.5,-6.5 6.046875,-6.5 c 0.15625,0 0.265625,0 0.265625,-0.1875 0,-0.09375 -0.0625,-0.125 -0.140625,-0.125 -0.25,0 -0.859375,0.03125 -1.109375,0.03125 -0.328125,0 -1.140625,-0.03125 -1.46875,-0.03125 -0.078125,0 -0.203125,0 -0.203125,0.203125 C 3.390625,-6.5 3.46875,-6.5 3.734375,-6.5 c 0.21875,0 0.328125,0 0.578125,0.015625 0.234375,0.03125 0.296875,0.0625 0.296875,0.203125 0,0.0625 -0.015625,0.125 -0.03125,0.203125 L 3.421875,-1.5 C 3.1875,-0.53125 2.515625,0 2,0 1.734375,0 1.203125,-0.09375 1.046875,-0.625 c 0.03125,0.015625 0.09375,0.015625 0.125,0.015625 0.390625,0 0.640625,-0.34375 0.640625,-0.640625 0,-0.3125 -0.265625,-0.421875 -0.4375,-0.421875 -0.171875,0 -0.671875,0.125 -0.671875,0.796875 0,0.625 0.53125,1.09375 1.328125,1.09375 0.90625,0 1.953125,-0.65625 2.203125,-1.640625 z m 0,0"
               style="stroke:none" />
          </symbol>
          <symbol
             id="id-91020123-908a-447e-8628-19ea5175155e"
             overflow="visible">
            <path
               id="id-7c337028-a0a5-44a7-be5e-11a6a5e2ef1b"
               d="m 5.359375,-5.9375 c -0.140625,0.140625 -0.46875,0.421875 -0.46875,0.59375 0,0.09375 0.09375,0.203125 0.1875,0.203125 0.09375,0 0.140625,-0.078125 0.203125,-0.140625 C 5.390625,-5.421875 5.625,-5.703125 6.0625,-5.921875 6.125,-5.96875 6.234375,-6.015625 6.234375,-6.125 6.234375,-6.234375 6.15625,-6.28125 6.09375,-6.328125 5.875,-6.484375 5.765625,-6.65625 5.6875,-6.890625 5.65625,-6.984375 5.625,-7.125 5.484375,-7.125 c -0.140625,0 -0.203125,0.140625 -0.203125,0.21875 0,0.046875 0.078125,0.359375 0.234375,0.578125 H 2.15625 c -0.15625,0 -0.34375,0 -0.34375,0.203125 0,0.1875 0.1875,0.1875 0.34375,0.1875 z m 0,0"
               style="stroke:none" />
          </symbol>
          <symbol
             id="id-85cb954e-d43d-4ff7-a6b2-fefc30637b99"
             overflow="visible">
            <path
               id="id-1526006b-1da1-4ae6-96c3-d26ba8f2b69f"
               d="m 4.53125,-4.984375 c 0,-0.65625 -0.171875,-2.046875 -1.1875,-2.046875 -1.390625,0 -2.921875,2.8125 -2.921875,5.09375 0,0.9375 0.28125,2.046875 1.1875,2.046875 1.40625,0 2.921875,-2.859375 2.921875,-5.09375 z M 1.46875,-3.625 C 1.640625,-4.25 1.84375,-5.046875 2.25,-5.765625 2.515625,-6.25 2.875,-6.8125 3.328125,-6.8125 c 0.484375,0 0.546875,0.640625 0.546875,1.203125 0,0.5 -0.078125,1 -0.3125,1.984375 z m 2,0.328125 C 3.359375,-2.84375 3.15625,-2 2.765625,-1.28125 c -0.34375,0.6875 -0.71875,1.171875 -1.15625,1.171875 -0.328125,0 -0.53125,-0.296875 -0.53125,-1.21875 0,-0.421875 0.0625,-1 0.3125,-1.96875 z m 0,0"
               style="stroke:none" />
          </symbol>
          <symbol
             id="id-4ce45781-4c21-4da2-a912-17b06231ac2c"
             overflow="visible">
            <path
               id="id-e1dd431b-141d-4d1c-8cdd-cb534b9fa4a9"
               d=""
               style="stroke:none" />
          </symbol>
          <symbol
             id="id-ef26b1c1-d8ad-4cf2-a674-22bb1b8ce5d3"
             overflow="visible">
            <path
               id="id-a7fc821f-c209-4564-a754-1492b58605b3"
               d="M 5.140625,17.421875 C 5.15625,17.4375 5.25,17.53125 5.25,17.53125 h 0.21875 c 0.03125,0 0.109375,0 0.109375,-0.09375 0,-0.04687 -0.015625,-0.0625 -0.03125,-0.09375 -0.359375,-0.359375 -0.90625,-0.90625 -1.515625,-2 -1.078125,-1.921875 -1.484375,-4.375 -1.484375,-6.765625 0,-4.4375 1.265625,-7.03125 3,-8.796875 0.03125,-0.03125 0.03125,-0.0625 0.03125,-0.078125 0,-0.109375 -0.0625,-0.109375 -0.1875,-0.109375 -0.125,0 -0.140625,0 -0.234375,0.09375 C 4.203125,0.5 3.140625,1.890625 2.453125,3.984375 2.03125,5.296875 1.796875,6.90625 1.796875,8.5625 c 0,2.359375 0.421875,5.03125 1.984375,7.34375 0.28125,0.390625 0.640625,0.796875 0.640625,0.8125 C 4.53125,16.84375 4.671875,17 4.75,17.0625 Z m 0,0"
               style="stroke:none" />
          </symbol>
          <symbol
             id="id-40a749e5-9112-436c-959a-1cd00ab308eb"
             overflow="visible">
            <path
               id="id-6a23268b-1fb3-45da-bca5-98cc77bfaecc"
               d="m 4.140625,8.5625 c 0,-2.859375 -0.65625,-5.90625 -2.625,-8.140625 C 1.375,0.265625 1,-0.125 0.765625,-0.34375 c -0.0625,-0.0625 -0.09375,-0.0625 -0.21875,-0.0625 -0.09375,0 -0.1875,0 -0.1875,0.109375 0,0.03125 0.046875,0.078125 0.0625,0.09375 0.328125,0.359375 0.875,0.90625 1.484375,2 1.078125,1.90625 1.484375,4.375 1.484375,6.765625 0,4.328125 -1.203125,6.96875 -2.984375,8.796875 C 0.375,17.375 0.359375,17.40625 0.359375,17.4375 c 0,0.09375 0.09375,0.09375 0.1875,0.09375 0.125,0 0.15625,0 0.234375,-0.07813 0.953125,-0.8125 2.015625,-2.203125 2.703125,-4.296875 0.4375,-1.375 0.65625,-2.984375 0.65625,-4.59375 z m 0,0"
               style="stroke:none" />
          </symbol>
        </g>
      </defs>
      <g
         transform="matrix(1.05313,0,0,1.05313,-16.015079,-68.413581)"
         ns5:version="1.0.1"
         ns5:texconverter="pdflatex"
         ns5:pdfconverter="inkscape"
         ns5:text="$ J (\\vec{\\theta})$"
         ns5:preamble="C:\\Users\\Enze\\AppData\\Roaming\\inkscape\\extensions\\textext\\default_packages.tex"
         ns5:scale="2.985243694334681"
         ns5:alignment="middle center"
         ns5:jacobian_sqrt="1.05313"
         id="g1388">
        <defs
           id="id-3aae89de-8c0e-483f-a82a-4782d314af20">
          <g
             id="id-9b5875f8-a37c-4860-be66-df4712e63ebe">
            <symbol
               id="id-22df9a2b-184e-41fb-a601-0745f830f5e7"
               overflow="visible">
              <path
                 id="id-f5288815-8cdd-470e-a684-185f4d0632b9"
                 d=""
                 style="stroke:none" />
            </symbol>
            <symbol
               id="id-106a1afc-8fdc-422b-9e28-b0ec68c49753"
               overflow="visible">
              <path
                 id="id-3d1cb24f-e9a9-43a9-a1ad-45f44922e017"
                 d="M 5.390625,-6.078125 C 5.46875,-6.40625 5.5,-6.5 6.046875,-6.5 c 0.15625,0 0.265625,0 0.265625,-0.1875 0,-0.09375 -0.0625,-0.125 -0.140625,-0.125 -0.25,0 -0.859375,0.03125 -1.109375,0.03125 -0.328125,0 -1.140625,-0.03125 -1.46875,-0.03125 -0.078125,0 -0.203125,0 -0.203125,0.203125 C 3.390625,-6.5 3.46875,-6.5 3.734375,-6.5 c 0.21875,0 0.328125,0 0.578125,0.015625 0.234375,0.03125 0.296875,0.0625 0.296875,0.203125 0,0.0625 -0.015625,0.125 -0.03125,0.203125 L 3.421875,-1.5 C 3.1875,-0.53125 2.515625,0 2,0 1.734375,0 1.203125,-0.09375 1.046875,-0.625 c 0.03125,0.015625 0.09375,0.015625 0.125,0.015625 0.390625,0 0.640625,-0.34375 0.640625,-0.640625 0,-0.3125 -0.265625,-0.421875 -0.4375,-0.421875 -0.171875,0 -0.671875,0.125 -0.671875,0.796875 0,0.625 0.53125,1.09375 1.328125,1.09375 0.90625,0 1.953125,-0.65625 2.203125,-1.640625 z m 0,0"
                 style="stroke:none" />
            </symbol>
            <symbol
               id="id-93b82a1c-3530-4b70-aad4-a0d4d1e0b21e"
               overflow="visible">
              <path
                 id="id-166b7ebd-9c14-4cb9-9f99-410cd6536a7d"
                 d="m 5.359375,-5.9375 c -0.140625,0.140625 -0.46875,0.421875 -0.46875,0.59375 0,0.09375 0.09375,0.203125 0.1875,0.203125 0.09375,0 0.140625,-0.078125 0.203125,-0.140625 C 5.390625,-5.421875 5.625,-5.703125 6.0625,-5.921875 6.125,-5.96875 6.234375,-6.015625 6.234375,-6.125 6.234375,-6.234375 6.15625,-6.28125 6.09375,-6.328125 5.875,-6.484375 5.765625,-6.65625 5.6875,-6.890625 5.65625,-6.984375 5.625,-7.125 5.484375,-7.125 c -0.140625,0 -0.203125,0.140625 -0.203125,0.21875 0,0.046875 0.078125,0.359375 0.234375,0.578125 H 2.15625 c -0.15625,0 -0.34375,0 -0.34375,0.203125 0,0.1875 0.1875,0.1875 0.34375,0.1875 z m 0,0"
                 style="stroke:none" />
            </symbol>
            <symbol
               id="id-640aa54e-1127-4146-a7c9-685498553e5f"
               overflow="visible">
              <path
                 id="id-fee248c9-b8b3-464c-bfc8-cdae61b52a15"
                 d="m 4.53125,-4.984375 c 0,-0.65625 -0.171875,-2.046875 -1.1875,-2.046875 -1.390625,0 -2.921875,2.8125 -2.921875,5.09375 0,0.9375 0.28125,2.046875 1.1875,2.046875 1.40625,0 2.921875,-2.859375 2.921875,-5.09375 z M 1.46875,-3.625 C 1.640625,-4.25 1.84375,-5.046875 2.25,-5.765625 2.515625,-6.25 2.875,-6.8125 3.328125,-6.8125 c 0.484375,0 0.546875,0.640625 0.546875,1.203125 0,0.5 -0.078125,1 -0.3125,1.984375 z m 2,0.328125 C 3.359375,-2.84375 3.15625,-2 2.765625,-1.28125 c -0.34375,0.6875 -0.71875,1.171875 -1.15625,1.171875 -0.328125,0 -0.53125,-0.296875 -0.53125,-1.21875 0,-0.421875 0.0625,-1 0.3125,-1.96875 z m 0,0"
                 style="stroke:none" />
            </symbol>
            <symbol
               id="id-b5340e50-ef21-4f7a-9dde-df4a3f8de584"
               overflow="visible">
              <path
                 id="id-cbca896b-64ec-4f15-abc3-416ad03f5ec1"
                 d=""
                 style="stroke:none" />
            </symbol>
            <symbol
               id="id-181cc210-8b8d-4913-bdb6-e93f17deafb8"
               overflow="visible">
              <path
                 id="id-e8ec1f5c-8467-41a7-96e5-c98c6dc1d121"
                 d="m 3.296875,2.390625 c 0,-0.03125 0,-0.046875 -0.171875,-0.21875 C 1.890625,0.921875 1.5625,-0.96875 1.5625,-2.5 c 0,-1.734375 0.375,-3.46875 1.609375,-4.703125 0.125,-0.125 0.125,-0.140625 0.125,-0.171875 0,-0.078125 -0.03125,-0.109375 -0.09375,-0.109375 -0.109375,0 -1,0.6875 -1.59375,1.953125 -0.5,1.09375 -0.625,2.203125 -0.625,3.03125 0,0.78125 0.109375,1.984375 0.65625,3.125 C 2.25,1.84375 3.09375,2.5 3.203125,2.5 c 0.0625,0 0.09375,-0.03125 0.09375,-0.109375 z m 0,0"
                 style="stroke:none" />
            </symbol>
            <symbol
               id="id-3efeebda-df20-4dc0-a104-5c1522f3eab3"
               overflow="visible">
              <path
                 id="id-837635e0-9827-4a62-a177-c794cd580224"
                 d="m 2.875,-2.5 c 0,-0.765625 -0.109375,-1.96875 -0.65625,-3.109375 -0.59375,-1.21875 -1.453125,-1.875 -1.546875,-1.875 -0.0625,0 -0.109375,0.046875 -0.109375,0.109375 0,0.03125 0,0.046875 0.1875,0.234375 0.984375,0.984375 1.546875,2.5625 1.546875,4.640625 0,1.71875 -0.359375,3.46875 -1.59375,4.71875 C 0.5625,2.34375 0.5625,2.359375 0.5625,2.390625 0.5625,2.453125 0.609375,2.5 0.671875,2.5 0.765625,2.5 1.671875,1.8125 2.25,0.546875 2.765625,-0.546875 2.875,-1.65625 2.875,-2.5 Z m 0,0"
                 style="stroke:none" />
            </symbol>
          </g>
        </defs>
        <g
           transform="translate(-149.415,-125.011)"
           id="id-a45b385e-212e-4ed4-a19b-bb3a57c87adf">
          <g
             id="id-101feec8-1441-456a-9168-dc71f8d9d988"
             style="fill:#000000;fill-opacity:1">
            <g
               transform="translate(148.712,134.765)"
               id="g1368">
              <path
                 id="id-f740a801-5ff4-41ca-9125-b69c71604e6a"
                 d="M 5.390625,-6.078125 C 5.46875,-6.40625 5.5,-6.5 6.046875,-6.5 c 0.15625,0 0.265625,0 0.265625,-0.1875 0,-0.09375 -0.0625,-0.125 -0.140625,-0.125 -0.25,0 -0.859375,0.03125 -1.109375,0.03125 -0.328125,0 -1.140625,-0.03125 -1.46875,-0.03125 -0.078125,0 -0.203125,0 -0.203125,0.203125 C 3.390625,-6.5 3.46875,-6.5 3.734375,-6.5 c 0.21875,0 0.328125,0 0.578125,0.015625 0.234375,0.03125 0.296875,0.0625 0.296875,0.203125 0,0.0625 -0.015625,0.125 -0.03125,0.203125 L 3.421875,-1.5 C 3.1875,-0.53125 2.515625,0 2,0 1.734375,0 1.203125,-0.09375 1.046875,-0.625 c 0.03125,0.015625 0.09375,0.015625 0.125,0.015625 0.390625,0 0.640625,-0.34375 0.640625,-0.640625 0,-0.3125 -0.265625,-0.421875 -0.4375,-0.421875 -0.171875,0 -0.671875,0.125 -0.671875,0.796875 0,0.625 0.53125,1.09375 1.328125,1.09375 0.90625,0 1.953125,-0.65625 2.203125,-1.640625 z m 0,0"
                 style="stroke:none" />
            </g>
          </g>
          <g
             id="id-384ce64b-9bcb-420b-b83a-88d088ea89e1"
             style="fill:#000000;fill-opacity:1">
            <g
               transform="translate(155.195,134.765)"
               id="g1372">
              <path
                 id="id-43f78247-a7fe-4f21-af67-06c7c7aa2d98"
                 d="m 3.296875,2.390625 c 0,-0.03125 0,-0.046875 -0.171875,-0.21875 C 1.890625,0.921875 1.5625,-0.96875 1.5625,-2.5 c 0,-1.734375 0.375,-3.46875 1.609375,-4.703125 0.125,-0.125 0.125,-0.140625 0.125,-0.171875 0,-0.078125 -0.03125,-0.109375 -0.09375,-0.109375 -0.109375,0 -1,0.6875 -1.59375,1.953125 -0.5,1.09375 -0.625,2.203125 -0.625,3.03125 0,0.78125 0.109375,1.984375 0.65625,3.125 C 2.25,1.84375 3.09375,2.5 3.203125,2.5 c 0.0625,0 0.09375,-0.03125 0.09375,-0.109375 z m 0,0"
                 style="stroke:none" />
            </g>
          </g>
          <g
             id="id-9d3ba5bd-7e57-4557-b60c-0e1389e617a6"
             style="fill:#000000;fill-opacity:1">
            <g
               transform="translate(159.12,132.136)"
               id="g1376">
              <path
                 id="id-dbc83752-a9d7-4f2a-9b17-b98e08770232"
                 d="m 5.359375,-5.9375 c -0.140625,0.140625 -0.46875,0.421875 -0.46875,0.59375 0,0.09375 0.09375,0.203125 0.1875,0.203125 0.09375,0 0.140625,-0.078125 0.203125,-0.140625 C 5.390625,-5.421875 5.625,-5.703125 6.0625,-5.921875 6.125,-5.96875 6.234375,-6.015625 6.234375,-6.125 6.234375,-6.234375 6.15625,-6.28125 6.09375,-6.328125 5.875,-6.484375 5.765625,-6.65625 5.6875,-6.890625 5.65625,-6.984375 5.625,-7.125 5.484375,-7.125 c -0.140625,0 -0.203125,0.140625 -0.203125,0.21875 0,0.046875 0.078125,0.359375 0.234375,0.578125 H 2.15625 c -0.15625,0 -0.34375,0 -0.34375,0.203125 0,0.1875 0.1875,0.1875 0.34375,0.1875 z m 0,0"
                 style="stroke:none" />
            </g>
          </g>
          <g
             id="id-69151562-bb8c-479a-accd-22be636752fb"
             style="fill:#000000;fill-opacity:1">
            <g
               transform="translate(159.069,134.765)"
               id="g1380">
              <path
                 id="id-5a56fdc4-2323-42b0-954a-3f7d31b213aa"
                 d="m 4.53125,-4.984375 c 0,-0.65625 -0.171875,-2.046875 -1.1875,-2.046875 -1.390625,0 -2.921875,2.8125 -2.921875,5.09375 0,0.9375 0.28125,2.046875 1.1875,2.046875 1.40625,0 2.921875,-2.859375 2.921875,-5.09375 z M 1.46875,-3.625 C 1.640625,-4.25 1.84375,-5.046875 2.25,-5.765625 2.515625,-6.25 2.875,-6.8125 3.328125,-6.8125 c 0.484375,0 0.546875,0.640625 0.546875,1.203125 0,0.5 -0.078125,1 -0.3125,1.984375 z m 2,0.328125 C 3.359375,-2.84375 3.15625,-2 2.765625,-1.28125 c -0.34375,0.6875 -0.71875,1.171875 -1.15625,1.171875 -0.328125,0 -0.53125,-0.296875 -0.53125,-1.21875 0,-0.421875 0.0625,-1 0.3125,-1.96875 z m 0,0"
                 style="stroke:none" />
            </g>
          </g>
          <g
             id="id-fa9e1a74-80e1-4fc5-abb0-6f6a45708b72"
             style="fill:#000000;fill-opacity:1">
            <g
               transform="translate(164.023,134.765)"
               id="g1384">
              <path
                 id="id-126e9f06-a909-438c-8d11-edb4297eae70"
                 d="m 2.875,-2.5 c 0,-0.765625 -0.109375,-1.96875 -0.65625,-3.109375 -0.59375,-1.21875 -1.453125,-1.875 -1.546875,-1.875 -0.0625,0 -0.109375,0.046875 -0.109375,0.109375 0,0.03125 0,0.046875 0.1875,0.234375 0.984375,0.984375 1.546875,2.5625 1.546875,4.640625 0,1.71875 -0.359375,3.46875 -1.59375,4.71875 C 0.5625,2.34375 0.5625,2.359375 0.5625,2.390625 0.5625,2.453125 0.609375,2.5 0.671875,2.5 0.765625,2.5 1.671875,1.8125 2.25,0.546875 2.765625,-0.546875 2.875,-1.65625 2.875,-2.5 Z m 0,0"
                 style="stroke:none" />
            </g>
          </g>
        </g>
      </g>
    </g>
    <g
       style="stroke-width:0.932161"
       transform="matrix(1.1297724,0,0,1.1297724,118.67004,75.618406)"
       ns5:version="1.0.1"
       ns5:texconverter="pdflatex"
       ns5:pdfconverter="inkscape"
       ns5:text="$ \\vec{\\theta} $"
       ns5:preamble="C:\\Users\\Enze\\AppData\\Roaming\\inkscape\\extensions\\textext\\default_packages.tex"
       ns5:scale="2.985243694334681"
       ns5:alignment="middle center"
       ns5:jacobian_sqrt="1.05313"
       id="g1567">
      <defs
         id="id-3007a1a4-7f1f-41ce-bd51-0491412a071e">
        <g
           id="id-55cbf410-bf94-4c62-aa1b-6fced2a059d2">
          <symbol
             id="id-22a1c4ab-bc81-4514-8b4f-cc7c1dd3490a"
             overflow="visible">
            <path
               id="id-497b1171-a5d0-40a5-b2ed-1fc42e2ae037"
               d=""
               style="stroke:none" />
          </symbol>
          <symbol
             id="id-f70283c9-dd39-42ff-bd94-09702a806926"
             overflow="visible">
            <path
               id="id-6c601df0-1f5a-410f-88a2-9ca4ee8ef8e0"
               d="m 5.359375,-5.9375 c -0.140625,0.140625 -0.46875,0.421875 -0.46875,0.59375 0,0.09375 0.09375,0.203125 0.1875,0.203125 0.09375,0 0.140625,-0.078125 0.203125,-0.140625 C 5.390625,-5.421875 5.625,-5.703125 6.0625,-5.921875 6.125,-5.96875 6.234375,-6.015625 6.234375,-6.125 6.234375,-6.234375 6.15625,-6.28125 6.09375,-6.328125 5.875,-6.484375 5.765625,-6.65625 5.6875,-6.890625 5.65625,-6.984375 5.625,-7.125 5.484375,-7.125 c -0.140625,0 -0.203125,0.140625 -0.203125,0.21875 0,0.046875 0.078125,0.359375 0.234375,0.578125 H 2.15625 c -0.15625,0 -0.34375,0 -0.34375,0.203125 0,0.1875 0.1875,0.1875 0.34375,0.1875 z m 0,0"
               style="stroke:none" />
          </symbol>
          <symbol
             id="id-64ccede6-7ae9-4964-b851-073196b3f847"
             overflow="visible">
            <path
               id="id-d4eb7c4f-0bc3-44a0-95bd-5294484e8a80"
               d="m 4.53125,-4.984375 c 0,-0.65625 -0.171875,-2.046875 -1.1875,-2.046875 -1.390625,0 -2.921875,2.8125 -2.921875,5.09375 0,0.9375 0.28125,2.046875 1.1875,2.046875 1.40625,0 2.921875,-2.859375 2.921875,-5.09375 z M 1.46875,-3.625 C 1.640625,-4.25 1.84375,-5.046875 2.25,-5.765625 2.515625,-6.25 2.875,-6.8125 3.328125,-6.8125 c 0.484375,0 0.546875,0.640625 0.546875,1.203125 0,0.5 -0.078125,1 -0.3125,1.984375 z m 2,0.328125 C 3.359375,-2.84375 3.15625,-2 2.765625,-1.28125 c -0.34375,0.6875 -0.71875,1.171875 -1.15625,1.171875 -0.328125,0 -0.53125,-0.296875 -0.53125,-1.21875 0,-0.421875 0.0625,-1 0.3125,-1.96875 z m 0,0"
               style="stroke:none" />
          </symbol>
        </g>
      </defs>
      <g
         style="stroke-width:0.932161"
         transform="translate(-149.134,-125.011)"
         id="id-970adfad-3071-452b-8966-263ab4c72044">
        <g
           id="id-c03ce81c-758f-4fb9-a59f-bcb8f3102232"
           style="fill:#000000;fill-opacity:1;stroke-width:0.932161">
          <g
             style="stroke-width:0.932161"
             transform="translate(148.763,132.136)"
             id="g1559">
            <path
               id="id-e6753d0a-1483-43d7-82a3-44b4ff569ad6"
               d="m 5.359375,-5.9375 c -0.140625,0.140625 -0.46875,0.421875 -0.46875,0.59375 0,0.09375 0.09375,0.203125 0.1875,0.203125 0.09375,0 0.140625,-0.078125 0.203125,-0.140625 C 5.390625,-5.421875 5.625,-5.703125 6.0625,-5.921875 6.125,-5.96875 6.234375,-6.015625 6.234375,-6.125 6.234375,-6.234375 6.15625,-6.28125 6.09375,-6.328125 5.875,-6.484375 5.765625,-6.65625 5.6875,-6.890625 5.65625,-6.984375 5.625,-7.125 5.484375,-7.125 c -0.140625,0 -0.203125,0.140625 -0.203125,0.21875 0,0.046875 0.078125,0.359375 0.234375,0.578125 H 2.15625 c -0.15625,0 -0.34375,0 -0.34375,0.203125 0,0.1875 0.1875,0.1875 0.34375,0.1875 z m 0,0"
               style="stroke:none;stroke-width:0.932161" />
          </g>
        </g>
        <g
           id="id-d9d98047-2874-4e18-9f29-0781f14f26cd"
           style="fill:#000000;fill-opacity:1;stroke-width:0.932161">
          <g
             style="stroke-width:0.932161"
             transform="translate(148.712,134.765)"
             id="g1563">
            <path
               id="id-e17e4372-89e4-4758-99fd-bfb05f7c3d1c"
               d="m 4.53125,-4.984375 c 0,-0.65625 -0.171875,-2.046875 -1.1875,-2.046875 -1.390625,0 -2.921875,2.8125 -2.921875,5.09375 0,0.9375 0.28125,2.046875 1.1875,2.046875 1.40625,0 2.921875,-2.859375 2.921875,-5.09375 z M 1.46875,-3.625 C 1.640625,-4.25 1.84375,-5.046875 2.25,-5.765625 2.515625,-6.25 2.875,-6.8125 3.328125,-6.8125 c 0.484375,0 0.546875,0.640625 0.546875,1.203125 0,0.5 -0.078125,1 -0.3125,1.984375 z m 2,0.328125 C 3.359375,-2.84375 3.15625,-2 2.765625,-1.28125 c -0.34375,0.6875 -0.71875,1.171875 -1.15625,1.171875 -0.328125,0 -0.53125,-0.296875 -0.53125,-1.21875 0,-0.421875 0.0625,-1 0.3125,-1.96875 z m 0,0"
               style="stroke:none;stroke-width:0.932161" />
          </g>
        </g>
      </g>
    </g>
    <path
       inkscape:transform-center-y="-0.268771"
       inkscape:transform-center-x="-0.040050242"
       d="m 48.895376,64.488167 -1.836634,-1.370212 -1.94103,1.217829 0.735598,-2.170161 -1.758036,-1.469699 2.291258,0.02898 0.854504,-2.126153 0.680478,2.188071 2.286148,0.155664 -1.8707,1.323324 z"
       inkscape:randomized="0"
       inkscape:rounded="0"
       inkscape:flatsided="false"
       sodipodi:arg2="1.6111123"
       sodipodi:arg1="0.98279372"
       sodipodi:r2="1.3067954"
       sodipodi:r1="3.2160859"
       sodipodi:cy="61.812223"
       sodipodi:cx="47.111412"
       sodipodi:sides="5"
       id="path1601"
       style="fill:#2ca02c;fill-opacity:1;stroke:none;stroke-width:0.999999;stroke-miterlimit:4;stroke-dasharray:3, 3;stroke-dashoffset:0;stroke-opacity:1"
       sodipodi:type="star" />
    <path
       id="path2530"
       d="m 76.697461,46.182689 h -5.52693"
       style="fill:none;stroke:#000000;stroke-width:0.900002;stroke-linecap:butt;stroke-linejoin:miter;stroke-miterlimit:4;stroke-dasharray:none;stroke-opacity:1;marker-end:url(#Arrow1Send)" />
    <g
       transform="matrix(0.78770078,0,0,0.78770078,8.259097,108.23783)"
       id="g3843"
       style="stroke-width:1.33697">
      <path
         transform="matrix(1.2695176,0,0,1.2695176,-10.485069,-137.40982)"
         style="fill:none;stroke:#1f77b4;stroke-width:1;stroke-linecap:butt;stroke-linejoin:miter;stroke-miterlimit:4;stroke-dasharray:3, 3;stroke-dashoffset:0;stroke-opacity:1"
         d="M 76.698661,50.550833 V 90.616306"
         id="path1587" />
      <g
         id="id-96535f73-9111-4fa1-9631-9dae563599e6"
         transform="matrix(0.84181795,0,0,0.84181795,-40.170607,-126.59162)"
         style="stroke-width:1.67258">
        <g
           style="fill:#000000;fill-opacity:1;stroke-width:1.67258"
           id="id-33c7b70a-e166-4619-bc7e-82d0b347e680">
          <g
             id="g3041"
             transform="translate(148.763,132.136)"
             style="stroke-width:1.67258">
            <path
               style="stroke:none;stroke-width:1.67258"
               d="m 5.359375,-5.9375 c -0.140625,0.140625 -0.46875,0.421875 -0.46875,0.59375 0,0.09375 0.09375,0.203125 0.1875,0.203125 0.09375,0 0.140625,-0.078125 0.203125,-0.140625 C 5.390625,-5.421875 5.625,-5.703125 6.0625,-5.921875 6.125,-5.96875 6.234375,-6.015625 6.234375,-6.125 6.234375,-6.234375 6.15625,-6.28125 6.09375,-6.328125 5.875,-6.484375 5.765625,-6.65625 5.6875,-6.890625 5.65625,-6.984375 5.625,-7.125 5.484375,-7.125 c -0.140625,0 -0.203125,0.140625 -0.203125,0.21875 0,0.046875 0.078125,0.359375 0.234375,0.578125 H 2.15625 c -0.15625,0 -0.34375,0 -0.34375,0.203125 0,0.1875 0.1875,0.1875 0.34375,0.1875 z m 0,0"
               id="id-a61dc9cf-3f83-419b-a9eb-e3992c779d0a" />
          </g>
        </g>
        <g
           style="fill:#000000;fill-opacity:1;stroke-width:1.67258"
           id="id-be40fb83-926c-4f58-991e-d48239f49c00">
          <g
             id="g3045"
             transform="translate(148.712,134.765)"
             style="stroke-width:1.67258">
            <path
               style="stroke:none;stroke-width:1.67258"
               d="m 4.53125,-4.984375 c 0,-0.65625 -0.171875,-2.046875 -1.1875,-2.046875 -1.390625,0 -2.921875,2.8125 -2.921875,5.09375 0,0.9375 0.28125,2.046875 1.1875,2.046875 1.40625,0 2.921875,-2.859375 2.921875,-5.09375 z M 1.46875,-3.625 C 1.640625,-4.25 1.84375,-5.046875 2.25,-5.765625 2.515625,-6.25 2.875,-6.8125 3.328125,-6.8125 c 0.484375,0 0.546875,0.640625 0.546875,1.203125 0,0.5 -0.078125,1 -0.3125,1.984375 z m 2,0.328125 C 3.359375,-2.84375 3.15625,-2 2.765625,-1.28125 c -0.34375,0.6875 -0.71875,1.171875 -1.15625,1.171875 -0.328125,0 -0.53125,-0.296875 -0.53125,-1.21875 0,-0.421875 0.0625,-1 0.3125,-1.96875 z m 0,0"
               id="id-3fd44f22-c343-4e62-9ce3-62f275858c87" />
          </g>
        </g>
        <g
           style="fill:#000000;fill-opacity:1;stroke-width:1.67258"
           id="id-720e662f-2043-4dba-ae5d-7f6642a1ddf8">
          <g
             id="g3049"
             transform="translate(153.389,136.259)"
             style="stroke-width:1.67258">
            <path
               style="stroke:none;stroke-width:1.67258"
               d="m 2.265625,-4.359375 c 0,-0.109375 -0.09375,-0.265625 -0.28125,-0.265625 -0.1875,0 -0.390625,0.1875 -0.390625,0.390625 0,0.109375 0.078125,0.265625 0.28125,0.265625 0.1875,0 0.390625,-0.203125 0.390625,-0.390625 z M 0.84375,-0.8125 c -0.03125,0.09375 -0.0625,0.171875 -0.0625,0.296875 0,0.328125 0.265625,0.578125 0.65625,0.578125 0.6875,0 1,-0.953125 1,-1.0625 0,-0.09375 -0.09375,-0.09375 -0.109375,-0.09375 -0.09375,0 -0.109375,0.046875 -0.140625,0.125 -0.15625,0.5625 -0.453125,0.84375 -0.734375,0.84375 -0.140625,0 -0.171875,-0.09375 -0.171875,-0.25 0,-0.15625 0.046875,-0.28125 0.109375,-0.4375 C 1.46875,-1 1.546875,-1.1875 1.609375,-1.375 1.671875,-1.546875 1.9375,-2.171875 1.953125,-2.265625 1.984375,-2.328125 2,-2.40625 2,-2.484375 2,-2.8125 1.71875,-3.078125 1.34375,-3.078125 0.640625,-3.078125 0.328125,-2.125 0.328125,-2 c 0,0.078125 0.09375,0.078125 0.125,0.078125 0.09375,0 0.09375,-0.03125 0.125,-0.109375 C 0.75,-2.625 1.0625,-2.875 1.3125,-2.875 c 0.109375,0 0.171875,0.046875 0.171875,0.234375 0,0.171875 -0.03125,0.265625 -0.203125,0.703125 z m 0,0"
               id="id-96a18f65-a690-434b-8eb7-83e2c9fbcfd9" />
          </g>
        </g>
      </g>
    </g>
    <text
       transform="matrix(0.78770078,0,0,0.78770078,8.259097,108.23783)"
       xml:space="preserve"
       id="text3194"
       style="font-style:normal;font-variant:normal;font-weight:normal;font-stretch:normal;font-size:6.27001px;line-height:1.25;font-family:sans-serif;-inkscape-font-specification:'sans-serif, Normal';font-variant-ligatures:normal;font-variant-caps:normal;font-variant-numeric:normal;font-feature-settings:normal;text-align:start;letter-spacing:0px;word-spacing:0px;writing-mode:lr-tb;white-space:pre;shape-inside:url(#rect3196);fill:#000000;fill-opacity:1;stroke:none;stroke-width:1.33697;" />
    <g
       transform="translate(91.673448,11.893494)"
       id="g4006">
      <path
         id="path1823"
         d="M -24.935803,45.555405 V 78.722812"
         style="fill:none;stroke:#ff7f0e;stroke-width:0.999998;stroke-linecap:butt;stroke-linejoin:miter;stroke-miterlimit:4;stroke-dasharray:3, 3;stroke-dashoffset:0;stroke-opacity:1" />
      <g
         style="stroke-width:1.67418"
         transform="matrix(0.66246416,0,0,0.66246416,-28.71246,79.511969)"
         ns5:version="1.0.1"
         ns5:texconverter="pdflatex"
         ns5:pdfconverter="inkscape"
         ns5:text="$ \\vec{\\theta}_{i+1} $"
         ns5:preamble="C:\\Users\\Enze\\AppData\\Roaming\\inkscape\\extensions\\textext\\default_packages.tex"
         ns5:scale="2.985243694334681"
         ns5:alignment="middle center"
         ns5:inkscapeversion="1.0"
         ns5:jacobian_sqrt="1.05313"
         id="g3369">
        <defs
           id="id-c3a22018-22fd-465a-81cb-041d127bb0be">
          <g
             id="id-3af52c33-c243-43ab-ace6-48ae5465c142">
            <symbol
               id="id-2e44fe36-ff49-40d1-8849-72edf127ddd9"
               overflow="visible">
              <path
                 id="id-0fb4da7f-60b0-4b60-a05b-e58fe4c37069"
                 d=""
                 style="stroke:none" />
            </symbol>
            <symbol
               id="id-3c3b735b-b662-4fa4-8264-c2bf79859920"
               overflow="visible">
              <path
                 id="id-ee44f3f4-fa89-4318-9b22-562c5218061c"
                 d="m 5.359375,-5.9375 c -0.140625,0.140625 -0.46875,0.421875 -0.46875,0.59375 0,0.09375 0.09375,0.203125 0.1875,0.203125 0.09375,0 0.140625,-0.078125 0.203125,-0.140625 C 5.390625,-5.421875 5.625,-5.703125 6.0625,-5.921875 6.125,-5.96875 6.234375,-6.015625 6.234375,-6.125 6.234375,-6.234375 6.15625,-6.28125 6.09375,-6.328125 5.875,-6.484375 5.765625,-6.65625 5.6875,-6.890625 5.65625,-6.984375 5.625,-7.125 5.484375,-7.125 c -0.140625,0 -0.203125,0.140625 -0.203125,0.21875 0,0.046875 0.078125,0.359375 0.234375,0.578125 H 2.15625 c -0.15625,0 -0.34375,0 -0.34375,0.203125 0,0.1875 0.1875,0.1875 0.34375,0.1875 z m 0,0"
                 style="stroke:none" />
            </symbol>
            <symbol
               id="id-0767735a-f85a-4187-abb9-433e0a3ea00f"
               overflow="visible">
              <path
                 id="id-38a90458-4fe0-474d-99d8-003f0482eaaf"
                 d="m 4.53125,-4.984375 c 0,-0.65625 -0.171875,-2.046875 -1.1875,-2.046875 -1.390625,0 -2.921875,2.8125 -2.921875,5.09375 0,0.9375 0.28125,2.046875 1.1875,2.046875 1.40625,0 2.921875,-2.859375 2.921875,-5.09375 z M 1.46875,-3.625 C 1.640625,-4.25 1.84375,-5.046875 2.25,-5.765625 2.515625,-6.25 2.875,-6.8125 3.328125,-6.8125 c 0.484375,0 0.546875,0.640625 0.546875,1.203125 0,0.5 -0.078125,1 -0.3125,1.984375 z m 2,0.328125 C 3.359375,-2.84375 3.15625,-2 2.765625,-1.28125 c -0.34375,0.6875 -0.71875,1.171875 -1.15625,1.171875 -0.328125,0 -0.53125,-0.296875 -0.53125,-1.21875 0,-0.421875 0.0625,-1 0.3125,-1.96875 z m 0,0"
                 style="stroke:none" />
            </symbol>
            <symbol
               id="id-9f463368-90b0-4b78-9026-9d81688e0236"
               overflow="visible">
              <path
                 id="id-58c34092-08a5-4be6-b026-5c7ed222f4bb"
                 d=""
                 style="stroke:none" />
            </symbol>
            <symbol
               id="id-953b6b6e-0cb3-4e4d-beec-78247aeb9b9f"
               overflow="visible">
              <path
                 id="id-8e634b7c-bd15-4894-aef7-0b8607bedc99"
                 d="m 2.265625,-4.359375 c 0,-0.109375 -0.09375,-0.265625 -0.28125,-0.265625 -0.1875,0 -0.390625,0.1875 -0.390625,0.390625 0,0.109375 0.078125,0.265625 0.28125,0.265625 0.1875,0 0.390625,-0.203125 0.390625,-0.390625 z M 0.84375,-0.8125 c -0.03125,0.09375 -0.0625,0.171875 -0.0625,0.296875 0,0.328125 0.265625,0.578125 0.65625,0.578125 0.6875,0 1,-0.953125 1,-1.0625 0,-0.09375 -0.09375,-0.09375 -0.109375,-0.09375 -0.09375,0 -0.109375,0.046875 -0.140625,0.125 -0.15625,0.5625 -0.453125,0.84375 -0.734375,0.84375 -0.140625,0 -0.171875,-0.09375 -0.171875,-0.25 0,-0.15625 0.046875,-0.28125 0.109375,-0.4375 C 1.46875,-1 1.546875,-1.1875 1.609375,-1.375 1.671875,-1.546875 1.9375,-2.171875 1.953125,-2.265625 1.984375,-2.328125 2,-2.40625 2,-2.484375 2,-2.8125 1.71875,-3.078125 1.34375,-3.078125 0.640625,-3.078125 0.328125,-2.125 0.328125,-2 c 0,0.078125 0.09375,0.078125 0.125,0.078125 0.09375,0 0.09375,-0.03125 0.125,-0.109375 C 0.75,-2.625 1.0625,-2.875 1.3125,-2.875 c 0.109375,0 0.171875,0.046875 0.171875,0.234375 0,0.171875 -0.03125,0.265625 -0.203125,0.703125 z m 0,0"
                 style="stroke:none" />
            </symbol>
            <symbol
               id="id-88dcb5d2-d1b3-4b04-926d-4e796a9cec18"
               overflow="visible">
              <path
                 id="id-860ae32b-7613-492e-b530-54b253a5dc43"
                 d=""
                 style="stroke:none" />
            </symbol>
            <symbol
               id="id-4f1c7f3e-c8fa-4a49-86d4-b39577c42ac8"
               overflow="visible">
              <path
                 id="id-72bc06eb-e048-46e3-8cb1-0e7685508676"
                 d="m 3.21875,-1.578125 h 2.140625 c 0.09375,0 0.25,0 0.25,-0.15625 0,-0.1875 -0.15625,-0.1875 -0.25,-0.1875 H 3.21875 V -4.0625 c 0,-0.078125 0,-0.25 -0.15625,-0.25 -0.171875,0 -0.171875,0.15625 -0.171875,0.25 v 2.140625 H 0.75 c -0.09375,0 -0.265625,0 -0.265625,0.171875 0,0.171875 0.15625,0.171875 0.265625,0.171875 H 2.890625 V 0.5625 c 0,0.09375 0,0.265625 0.15625,0.265625 0.171875,0 0.171875,-0.171875 0.171875,-0.265625 z m 0,0"
                 style="stroke:none" />
            </symbol>
            <symbol
               id="id-71548136-1ea2-456c-a4f9-21d474d4d5c8"
               overflow="visible">
              <path
                 id="id-0c89f06b-4743-41c3-9adf-5c0713f728f9"
                 d="m 2.328125,-4.4375 c 0,-0.1875 0,-0.1875 -0.203125,-0.1875 -0.453125,0.4375 -1.078125,0.4375 -1.359375,0.4375 v 0.25 c 0.15625,0 0.625,0 1,-0.1875 v 3.546875 c 0,0.234375 0,0.328125 -0.6875,0.328125 H 0.8125 V 0 c 0.125,0 0.984375,-0.03125 1.234375,-0.03125 0.21875,0 1.09375,0.03125 1.25,0.03125 V -0.25 H 3.03125 c -0.703125,0 -0.703125,-0.09375 -0.703125,-0.328125 z m 0,0"
                 style="stroke:none" />
            </symbol>
          </g>
        </defs>
        <g
           style="stroke-width:1.67418"
           transform="translate(-149.134,-125.011)"
           id="id-72c322d9-3759-4962-b71a-96bf0a98f881">
          <g
             id="id-c4658e0a-d36e-43c0-bf40-9066d1ac5da7"
             style="fill:#000000;fill-opacity:1;stroke-width:1.67418">
            <g
               style="stroke-width:1.67418"
               transform="translate(148.763,132.136)"
               id="g3350">
              <path
                 id="id-6144da2a-67ef-4f7b-9680-68e7bc8fb06c"
                 d="m 5.359375,-5.9375 c -0.140625,0.140625 -0.46875,0.421875 -0.46875,0.59375 0,0.09375 0.09375,0.203125 0.1875,0.203125 0.09375,0 0.140625,-0.078125 0.203125,-0.140625 C 5.390625,-5.421875 5.625,-5.703125 6.0625,-5.921875 6.125,-5.96875 6.234375,-6.015625 6.234375,-6.125 6.234375,-6.234375 6.15625,-6.28125 6.09375,-6.328125 5.875,-6.484375 5.765625,-6.65625 5.6875,-6.890625 5.65625,-6.984375 5.625,-7.125 5.484375,-7.125 c -0.140625,0 -0.203125,0.140625 -0.203125,0.21875 0,0.046875 0.078125,0.359375 0.234375,0.578125 H 2.15625 c -0.15625,0 -0.34375,0 -0.34375,0.203125 0,0.1875 0.1875,0.1875 0.34375,0.1875 z m 0,0"
                 style="stroke:none;stroke-width:1.67418" />
            </g>
          </g>
          <g
             id="id-83553e11-abea-4fab-b355-79d0302b2004"
             style="fill:#000000;fill-opacity:1;stroke-width:1.67418">
            <g
               style="stroke-width:1.67418"
               transform="translate(148.712,134.765)"
               id="g3354">
              <path
                 id="id-1164561f-ea53-43a3-ad49-21c11c09f2f1"
                 d="m 4.53125,-4.984375 c 0,-0.65625 -0.171875,-2.046875 -1.1875,-2.046875 -1.390625,0 -2.921875,2.8125 -2.921875,5.09375 0,0.9375 0.28125,2.046875 1.1875,2.046875 1.40625,0 2.921875,-2.859375 2.921875,-5.09375 z M 1.46875,-3.625 C 1.640625,-4.25 1.84375,-5.046875 2.25,-5.765625 2.515625,-6.25 2.875,-6.8125 3.328125,-6.8125 c 0.484375,0 0.546875,0.640625 0.546875,1.203125 0,0.5 -0.078125,1 -0.3125,1.984375 z m 2,0.328125 C 3.359375,-2.84375 3.15625,-2 2.765625,-1.28125 c -0.34375,0.6875 -0.71875,1.171875 -1.15625,1.171875 -0.328125,0 -0.53125,-0.296875 -0.53125,-1.21875 0,-0.421875 0.0625,-1 0.3125,-1.96875 z m 0,0"
                 style="stroke:none;stroke-width:1.67418" />
            </g>
          </g>
          <g
             id="id-423897d8-7975-4342-b8aa-62d9a01dffea"
             style="fill:#000000;fill-opacity:1;stroke-width:1.67418">
            <g
               style="stroke-width:1.67418"
               transform="translate(153.389,136.259)"
               id="g3358">
              <path
                 id="id-65a02566-eae3-4936-bf8d-a7c7577654c8"
                 d="m 2.265625,-4.359375 c 0,-0.109375 -0.09375,-0.265625 -0.28125,-0.265625 -0.1875,0 -0.390625,0.1875 -0.390625,0.390625 0,0.109375 0.078125,0.265625 0.28125,0.265625 0.1875,0 0.390625,-0.203125 0.390625,-0.390625 z M 0.84375,-0.8125 c -0.03125,0.09375 -0.0625,0.171875 -0.0625,0.296875 0,0.328125 0.265625,0.578125 0.65625,0.578125 0.6875,0 1,-0.953125 1,-1.0625 0,-0.09375 -0.09375,-0.09375 -0.109375,-0.09375 -0.09375,0 -0.109375,0.046875 -0.140625,0.125 -0.15625,0.5625 -0.453125,0.84375 -0.734375,0.84375 -0.140625,0 -0.171875,-0.09375 -0.171875,-0.25 0,-0.15625 0.046875,-0.28125 0.109375,-0.4375 C 1.46875,-1 1.546875,-1.1875 1.609375,-1.375 1.671875,-1.546875 1.9375,-2.171875 1.953125,-2.265625 1.984375,-2.328125 2,-2.40625 2,-2.484375 2,-2.8125 1.71875,-3.078125 1.34375,-3.078125 0.640625,-3.078125 0.328125,-2.125 0.328125,-2 c 0,0.078125 0.09375,0.078125 0.125,0.078125 0.09375,0 0.09375,-0.03125 0.125,-0.109375 C 0.75,-2.625 1.0625,-2.875 1.3125,-2.875 c 0.109375,0 0.171875,0.046875 0.171875,0.234375 0,0.171875 -0.03125,0.265625 -0.203125,0.703125 z m 0,0"
                 style="stroke:none;stroke-width:1.67418" />
            </g>
          </g>
          <g
             id="id-e530124e-fa0c-4d3a-aade-d24e427f1a4d"
             style="fill:#000000;fill-opacity:1;stroke-width:1.67418">
            <g
               style="stroke-width:1.67418"
               transform="translate(156.208,136.259)"
               id="g3362">
              <path
                 id="id-10deaccb-f997-4a2b-9387-25472087cc68"
                 d="m 3.21875,-1.578125 h 2.140625 c 0.09375,0 0.25,0 0.25,-0.15625 0,-0.1875 -0.15625,-0.1875 -0.25,-0.1875 H 3.21875 V -4.0625 c 0,-0.078125 0,-0.25 -0.15625,-0.25 -0.171875,0 -0.171875,0.15625 -0.171875,0.25 v 2.140625 H 0.75 c -0.09375,0 -0.265625,0 -0.265625,0.171875 0,0.171875 0.15625,0.171875 0.265625,0.171875 H 2.890625 V 0.5625 c 0,0.09375 0,0.265625 0.15625,0.265625 0.171875,0 0.171875,-0.171875 0.171875,-0.265625 z m 0,0"
                 style="stroke:none;stroke-width:1.67418" />
            </g>
            <g
               style="stroke-width:1.67418"
               transform="translate(162.324,136.259)"
               id="g3365">
              <path
                 id="id-5342bc1f-4726-42be-a016-00e8b6420fce"
                 d="m 2.328125,-4.4375 c 0,-0.1875 0,-0.1875 -0.203125,-0.1875 -0.453125,0.4375 -1.078125,0.4375 -1.359375,0.4375 v 0.25 c 0.15625,0 0.625,0 1,-0.1875 v 3.546875 c 0,0.234375 0,0.328125 -0.6875,0.328125 H 0.8125 V 0 c 0.125,0 0.984375,-0.03125 1.234375,-0.03125 0.21875,0 1.09375,0.03125 1.25,0.03125 V -0.25 H 3.03125 c -0.703125,0 -0.703125,-0.09375 -0.703125,-0.328125 z m 0,0"
                 style="stroke:none;stroke-width:1.67418" />
            </g>
          </g>
        </g>
      </g>
    </g>
  </g>
</svg>
