<?xml version="1.0" encoding="UTF-8" standalone="no"?>
<svg
   xmlns:dc="http://purl.org/dc/elements/1.1/"
   xmlns:cc="http://creativecommons.org/ns#"
   xmlns:rdf="http://www.w3.org/1999/02/22-rdf-syntax-ns#"
   xmlns:svg="http://www.w3.org/2000/svg"
   xmlns="http://www.w3.org/2000/svg"
   xmlns:sodipodi="http://sodipodi.sourceforge.net/DTD/sodipodi-0.dtd"
   xmlns:inkscape="http://www.inkscape.org/namespaces/inkscape"
   inkscape:export-ydpi="300"
   inkscape:export-xdpi="300"
   inkscape:export-filename="C:\Users\Enze\Documents\GitHub\mi-book\assets\fig\week_1\03\pearson.png"
   sodipodi:docname="pearson.svg"
   inkscape:version="1.0 (4035a4fb49, 2020-05-01)"
   id="svg8"
   version="1.1"
   viewBox="0 0 200 45"
   height="45mm"
   width="200mm">
  <defs
     id="defs2" />
  <sodipodi:namedview
     inkscape:window-maximized="1"
     inkscape:window-y="-9"
     inkscape:window-x="2391"
     inkscape:window-height="1271"
     inkscape:window-width="2400"
     showgrid="false"
     inkscape:document-rotation="0"
     inkscape:current-layer="layer1"
     inkscape:document-units="mm"
     inkscape:cy="109.037"
     inkscape:cx="355.86315"
     inkscape:zoom="1.979899"
     inkscape:pageshadow="2"
     inkscape:pageopacity="0.0"
     borderopacity="1.0"
     bordercolor="#666666"
     pagecolor="#ffffff"
     id="base" />
  <metadata
     id="metadata5">
    <rdf:RDF>
      <cc:Work
         rdf:about="">
        <dc:format>image/svg+xml</dc:format>
        <dc:type
           rdf:resource="http://purl.org/dc/dcmitype/StillImage" />
        <dc:title></dc:title>
      </cc:Work>
    </rdf:RDF>
  </metadata>
  <g
     id="layer1"
     inkscape:groupmode="layer"
     inkscape:label="Layer 1">
    <g
       transform="translate(0,-4.2333335)"
       id="g839">
      <path
         style="fill:none;stroke:#686868;stroke-width:1;stroke-linecap:butt;stroke-linejoin:miter;stroke-miterlimit:4;stroke-dasharray:none;stroke-opacity:1"
         d="M 5.6126599,8.6862596 V 38.620446"
         id="path833" />
      <path
         id="path835"
         d="M 32.874151,35.546847 H 2.939965"
         style="fill:none;stroke:#686868;stroke-width:1;stroke-linecap:butt;stroke-linejoin:miter;stroke-miterlimit:4;stroke-dasharray:none;stroke-opacity:1" />
    </g>
    <g
       transform="translate(40.892243,-4.2333335)"
       id="g845">
      <path
         id="path841"
         d="M 5.6126599,8.6862596 V 38.620446"
         style="fill:none;stroke:#686868;stroke-width:1;stroke-linecap:butt;stroke-linejoin:miter;stroke-miterlimit:4;stroke-dasharray:none;stroke-opacity:1" />
      <path
         style="fill:none;stroke:#686868;stroke-width:1;stroke-linecap:butt;stroke-linejoin:miter;stroke-miterlimit:4;stroke-dasharray:none;stroke-opacity:1"
         d="M 32.874151,35.546847 H 2.939965"
         id="path843" />
    </g>
    <g
       id="g851"
       transform="translate(81.784482,-4.2333335)">
      <path
         style="fill:none;stroke:#686868;stroke-width:1;stroke-linecap:butt;stroke-linejoin:miter;stroke-miterlimit:4;stroke-dasharray:none;stroke-opacity:1"
         d="M 5.6126599,8.6862596 V 38.620446"
         id="path847" />
      <path
         id="path849"
         d="M 32.874151,35.546847 H 2.939965"
         style="fill:none;stroke:#686868;stroke-width:1;stroke-linecap:butt;stroke-linejoin:miter;stroke-miterlimit:4;stroke-dasharray:none;stroke-opacity:1" />
    </g>
    <g
       transform="translate(122.67672,-4.2333335)"
       id="g857">
      <path
         id="path853"
         d="M 5.6126599,8.6862596 V 38.620446"
         style="fill:none;stroke:#686868;stroke-width:1;stroke-linecap:butt;stroke-linejoin:miter;stroke-miterlimit:4;stroke-dasharray:none;stroke-opacity:1" />
      <path
         style="fill:none;stroke:#686868;stroke-width:1;stroke-linecap:butt;stroke-linejoin:miter;stroke-miterlimit:4;stroke-dasharray:none;stroke-opacity:1"
         d="M 32.874151,35.546847 H 2.939965"
         id="path855" />
    </g>
    <g
       id="g863"
       transform="translate(163.56896,-4.2333335)">
      <path
         style="fill:none;stroke:#686868;stroke-width:1;stroke-linecap:butt;stroke-linejoin:miter;stroke-miterlimit:4;stroke-dasharray:none;stroke-opacity:1"
         d="M 5.6126599,8.6862596 V 38.620446"
         id="path859" />
      <path
         id="path861"
         d="M 32.874151,35.546847 H 2.939965"
         style="fill:none;stroke:#686868;stroke-width:1;stroke-linecap:butt;stroke-linejoin:miter;stroke-miterlimit:4;stroke-dasharray:none;stroke-opacity:1" />
    </g>
    <path
       d="m 11.091684,18.885475 a 1.0690781,1.0690781 0 0 1 -1.066345,1.069075 1.0690781,1.0690781 0 0 1 -1.0717972,-1.063608 1.0690781,1.0690781 0 0 1 1.0608632,-1.074513 1.0690781,1.0690781 0 0 1 1.077223,1.058112"
       sodipodi:arc-type="arc"
       sodipodi:open="true"
       sodipodi:end="6.2729577"
       sodipodi:start="0"
       sodipodi:ry="1.0690781"
       sodipodi:rx="1.0690781"
       sodipodi:cy="18.885475"
       sodipodi:cx="10.022606"
       sodipodi:type="arc"
       id="path865"
       style="fill:#2ca02c;fill-opacity:0.992157;stroke:none;stroke-width:1;stroke-miterlimit:4;stroke-dasharray:none;stroke-opacity:1" />
    <path
       style="fill:#2ca02c;fill-opacity:0.992157;stroke:none;stroke-width:1;stroke-miterlimit:4;stroke-dasharray:none;stroke-opacity:1"
       id="path867"
       sodipodi:type="arc"
       sodipodi:cx="14.967093"
       sodipodi:cy="21.552799"
       sodipodi:rx="1.0690781"
       sodipodi:ry="1.0690781"
       sodipodi:start="0"
       sodipodi:end="6.2729577"
       sodipodi:open="true"
       sodipodi:arc-type="arc"
       d="m 16.036172,21.552799 a 1.0690781,1.0690781 0 0 1 -1.066345,1.069075 1.0690781,1.0690781 0 0 1 -1.071798,-1.063608 1.0690781,1.0690781 0 0 1 1.060864,-1.074513 1.0690781,1.0690781 0 0 1 1.077223,1.058112" />
    <path
       d="m 21.515197,24.631769 a 1.0690781,1.0690781 0 0 1 -1.066344,1.069075 1.0690781,1.0690781 0 0 1 -1.071798,-1.063608 1.0690781,1.0690781 0 0 1 1.060864,-1.074513 1.0690781,1.0690781 0 0 1 1.077222,1.058112"
       sodipodi:arc-type="arc"
       sodipodi:open="true"
       sodipodi:end="6.2729577"
       sodipodi:start="0"
       sodipodi:ry="1.0690781"
       sodipodi:rx="1.0690781"
       sodipodi:cy="24.631769"
       sodipodi:cx="20.446119"
       sodipodi:type="arc"
       id="path869"
       style="fill:#2ca02c;fill-opacity:0.992157;stroke:none;stroke-width:1;stroke-miterlimit:4;stroke-dasharray:none;stroke-opacity:1" />
    <path
       style="fill:#2ca02c;fill-opacity:0.992157;stroke:none;stroke-width:1;stroke-miterlimit:4;stroke-dasharray:none;stroke-opacity:1"
       id="path871"
       sodipodi:type="arc"
       sodipodi:cx="25.52424"
       sodipodi:cy="27.571733"
       sodipodi:rx="1.0690781"
       sodipodi:ry="1.0690781"
       sodipodi:start="0"
       sodipodi:end="6.2729577"
       sodipodi:open="true"
       sodipodi:arc-type="arc"
       d="m 26.593319,27.571733 a 1.0690781,1.0690781 0 0 1 -1.066345,1.069075 1.0690781,1.0690781 0 0 1 -1.071798,-1.063607 1.0690781,1.0690781 0 0 1 1.060864,-1.074514 1.0690781,1.0690781 0 0 1 1.077223,1.058113" />
    <path
       d="m 58.131124,15.143702 a 1.0690781,1.0690781 0 0 1 -1.066344,1.069074 1.0690781,1.0690781 0 0 1 -1.071798,-1.063607 1.0690781,1.0690781 0 0 1 1.060864,-1.074514 1.0690781,1.0690781 0 0 1 1.077222,1.058113"
       sodipodi:arc-type="arc"
       sodipodi:open="true"
       sodipodi:end="6.2729577"
       sodipodi:start="0"
       sodipodi:ry="1.0690781"
       sodipodi:rx="1.0690781"
       sodipodi:cy="15.143702"
       sodipodi:cx="57.062046"
       sodipodi:type="arc"
       id="path873"
       style="fill:#2ca02c;fill-opacity:0.992157;stroke:none;stroke-width:1;stroke-miterlimit:4;stroke-dasharray:none;stroke-opacity:1" />
    <path
       style="fill:#2ca02c;fill-opacity:0.992157;stroke:none;stroke-width:1;stroke-miterlimit:4;stroke-dasharray:none;stroke-opacity:1"
       id="path875"
       sodipodi:type="arc"
       sodipodi:cx="50.246674"
       sodipodi:cy="19.019108"
       sodipodi:rx="1.0690781"
       sodipodi:ry="1.0690781"
       sodipodi:start="0"
       sodipodi:end="6.2729577"
       sodipodi:open="true"
       sodipodi:arc-type="arc"
       d="m 51.315752,19.019108 a 1.0690781,1.0690781 0 0 1 -1.066345,1.069074 1.0690781,1.0690781 0 0 1 -1.071798,-1.063607 1.0690781,1.0690781 0 0 1 1.060864,-1.074514 1.0690781,1.0690781 0 0 1 1.077223,1.058113" />
    <path
       d="m 61.071088,23.161785 a 1.0690781,1.0690781 0 0 1 -1.066344,1.069075 1.0690781,1.0690781 0 0 1 -1.071798,-1.063608 1.0690781,1.0690781 0 0 1 1.060864,-1.074514 1.0690781,1.0690781 0 0 1 1.077223,1.058113"
       sodipodi:arc-type="arc"
       sodipodi:open="true"
       sodipodi:end="6.2729577"
       sodipodi:start="0"
       sodipodi:ry="1.0690781"
       sodipodi:rx="1.0690781"
       sodipodi:cy="23.161785"
       sodipodi:cx="60.00201"
       sodipodi:type="arc"
       id="path877"
       style="fill:#2ca02c;fill-opacity:0.992157;stroke:none;stroke-width:1;stroke-miterlimit:4;stroke-dasharray:none;stroke-opacity:1" />
    <path
       style="fill:#2ca02c;fill-opacity:0.992157;stroke:none;stroke-width:1;stroke-miterlimit:4;stroke-dasharray:none;stroke-opacity:1"
       id="path879"
       sodipodi:type="arc"
       sodipodi:cx="58.799297"
       sodipodi:cy="28.239906"
       sodipodi:rx="1.0690781"
       sodipodi:ry="1.0690781"
       sodipodi:start="0"
       sodipodi:end="6.2729577"
       sodipodi:open="true"
       sodipodi:arc-type="arc"
       d="m 59.868375,28.239906 a 1.0690781,1.0690781 0 0 1 -1.066344,1.069075 1.0690781,1.0690781 0 0 1 -1.071798,-1.063608 1.0690781,1.0690781 0 0 1 1.060864,-1.074513 1.0690781,1.0690781 0 0 1 1.077223,1.058112" />
    <path
       d="m 95.014322,11.001029 a 1.0690781,1.0690781 0 0 1 -1.066345,1.069075 1.0690781,1.0690781 0 0 1 -1.071797,-1.063608 1.0690781,1.0690781 0 0 1 1.060863,-1.0745136 1.0690781,1.0690781 0 0 1 1.077223,1.0581126"
       sodipodi:arc-type="arc"
       sodipodi:open="true"
       sodipodi:end="6.2729577"
       sodipodi:start="0"
       sodipodi:ry="1.0690781"
       sodipodi:rx="1.0690781"
       sodipodi:cy="11.001029"
       sodipodi:cx="93.945244"
       sodipodi:type="arc"
       id="path881"
       style="fill:#2ca02c;fill-opacity:0.992157;stroke:none;stroke-width:1;stroke-miterlimit:4;stroke-dasharray:none;stroke-opacity:1" />
    <path
       style="fill:#2ca02c;fill-opacity:0.992157;stroke:none;stroke-width:1;stroke-miterlimit:4;stroke-dasharray:none;stroke-opacity:1"
       id="path881-4"
       sodipodi:type="arc"
       sodipodi:cx="106.23964"
       sodipodi:cy="14.876437"
       sodipodi:rx="1.0690781"
       sodipodi:ry="1.0690781"
       sodipodi:start="0"
       sodipodi:end="6.2729577"
       sodipodi:open="true"
       sodipodi:arc-type="arc"
       d="m 107.30872,14.876437 a 1.0690781,1.0690781 0 0 1 -1.06635,1.069075 1.0690781,1.0690781 0 0 1 -1.07179,-1.063608 1.0690781,1.0690781 0 0 1 1.06086,-1.074513 1.0690781,1.0690781 0 0 1 1.07722,1.058112" />
    <path
       style="fill:#2ca02c;fill-opacity:0.992157;stroke:none;stroke-width:1;stroke-miterlimit:4;stroke-dasharray:none;stroke-opacity:1"
       id="path881-8"
       sodipodi:type="arc"
       sodipodi:cx="93.677971"
       sodipodi:cy="26.101753"
       sodipodi:rx="1.0690781"
       sodipodi:ry="1.0690781"
       sodipodi:start="0"
       sodipodi:end="6.2729577"
       sodipodi:open="true"
       sodipodi:arc-type="arc"
       d="m 94.747049,26.101753 a 1.0690781,1.0690781 0 0 1 -1.066345,1.069075 1.0690781,1.0690781 0 0 1 -1.071797,-1.063608 1.0690781,1.0690781 0 0 1 1.060863,-1.074513 1.0690781,1.0690781 0 0 1 1.077223,1.058112" />
    <path
       style="fill:#2ca02c;fill-opacity:0.992157;stroke:none;stroke-width:1;stroke-miterlimit:4;stroke-dasharray:none;stroke-opacity:1"
       id="path881-1"
       sodipodi:type="arc"
       sodipodi:cx="114.52499"
       sodipodi:cy="24.89904"
       sodipodi:rx="1.0690781"
       sodipodi:ry="1.0690781"
       sodipodi:start="0"
       sodipodi:end="6.2729577"
       sodipodi:open="true"
       sodipodi:arc-type="arc"
       d="m 115.59406,24.89904 a 1.0690781,1.0690781 0 0 1 -1.06634,1.069075 1.0690781,1.0690781 0 0 1 -1.0718,-1.063608 1.0690781,1.0690781 0 0 1 1.06087,-1.074513 1.0690781,1.0690781 0 0 1 1.07722,1.058112" />
    <path
       style="fill:#2ca02c;fill-opacity:0.992157;stroke:none;stroke-width:1;stroke-miterlimit:4;stroke-dasharray:none;stroke-opacity:1"
       id="path881-7"
       sodipodi:type="arc"
       sodipodi:cx="133.36749"
       sodipodi:cy="23.696329"
       sodipodi:rx="1.0690781"
       sodipodi:ry="1.0690781"
       sodipodi:start="0"
       sodipodi:end="6.2729577"
       sodipodi:open="true"
       sodipodi:arc-type="arc"
       d="m 134.43657,23.696329 a 1.0690781,1.0690781 0 0 1 -1.06634,1.069075 1.0690781,1.0690781 0 0 1 -1.0718,-1.063608 1.0690781,1.0690781 0 0 1 1.06086,-1.074514 1.0690781,1.0690781 0 0 1 1.07722,1.058113" />
    <path
       style="fill:#2ca02c;fill-opacity:0.992157;stroke:none;stroke-width:1;stroke-miterlimit:4;stroke-dasharray:none;stroke-opacity:1"
       id="path881-88"
       sodipodi:type="arc"
       sodipodi:cx="140.85104"
       sodipodi:cy="16.346416"
       sodipodi:rx="1.0690781"
       sodipodi:ry="1.0690781"
       sodipodi:start="0"
       sodipodi:end="6.2729577"
       sodipodi:open="true"
       sodipodi:arc-type="arc"
       d="m 141.92012,16.346416 a 1.0690781,1.0690781 0 0 1 -1.06634,1.069075 1.0690781,1.0690781 0 0 1 -1.0718,-1.063607 1.0690781,1.0690781 0 0 1 1.06086,-1.074514 1.0690781,1.0690781 0 0 1 1.07723,1.058113" />
    <path
       style="fill:#2ca02c;fill-opacity:0.992157;stroke:none;stroke-width:1;stroke-miterlimit:4;stroke-dasharray:none;stroke-opacity:1"
       id="path881-10"
       sodipodi:type="arc"
       sodipodi:cx="144.05827"
       sodipodi:cy="24.631771"
       sodipodi:rx="1.0690781"
       sodipodi:ry="1.0690781"
       sodipodi:start="0"
       sodipodi:end="6.2729577"
       sodipodi:open="true"
       sodipodi:arc-type="arc"
       d="m 145.12735,24.631771 a 1.0690781,1.0690781 0 0 1 -1.06634,1.069075 1.0690781,1.0690781 0 0 1 -1.0718,-1.063608 1.0690781,1.0690781 0 0 1 1.06086,-1.074514 1.0690781,1.0690781 0 0 1 1.07723,1.058113" />
    <path
       style="fill:#2ca02c;fill-opacity:0.992157;stroke:none;stroke-width:1;stroke-miterlimit:4;stroke-dasharray:none;stroke-opacity:1"
       id="path881-3"
       sodipodi:type="arc"
       sodipodi:cx="150.87364"
       sodipodi:cy="15.410975"
       sodipodi:rx="1.0690781"
       sodipodi:ry="1.0690781"
       sodipodi:start="0"
       sodipodi:end="6.2729577"
       sodipodi:open="true"
       sodipodi:arc-type="arc"
       d="m 151.94272,15.410975 a 1.0690781,1.0690781 0 0 1 -1.06634,1.069075 1.0690781,1.0690781 0 0 1 -1.0718,-1.063608 1.0690781,1.0690781 0 0 1 1.06086,-1.074513 1.0690781,1.0690781 0 0 1 1.07722,1.058113" />
    <path
       style="fill:#2ca02c;fill-opacity:0.992157;stroke:none;stroke-width:1;stroke-miterlimit:4;stroke-dasharray:none;stroke-opacity:1"
       id="path881-9"
       sodipodi:type="arc"
       sodipodi:cx="180.2733"
       sodipodi:cy="27.304464"
       sodipodi:rx="1.0690781"
       sodipodi:ry="1.0690781"
       sodipodi:start="0"
       sodipodi:end="6.2729577"
       sodipodi:open="true"
       sodipodi:arc-type="arc"
       d="m 181.34238,27.304464 a 1.0690781,1.0690781 0 0 1 -1.06635,1.069075 1.0690781,1.0690781 0 0 1 -1.07179,-1.063608 1.0690781,1.0690781 0 0 1 1.06086,-1.074513 1.0690781,1.0690781 0 0 1 1.07722,1.058112" />
    <path
       style="fill:#2ca02c;fill-opacity:0.992157;stroke:none;stroke-width:1;stroke-miterlimit:4;stroke-dasharray:none;stroke-opacity:1"
       id="path881-13"
       sodipodi:type="arc"
       sodipodi:cx="182.54509"
       sodipodi:cy="22.89452"
       sodipodi:rx="1.0690781"
       sodipodi:ry="1.0690781"
       sodipodi:start="0"
       sodipodi:end="6.2729577"
       sodipodi:open="true"
       sodipodi:arc-type="arc"
       d="m 183.61417,22.89452 a 1.0690781,1.0690781 0 0 1 -1.06635,1.069074 1.0690781,1.0690781 0 0 1 -1.07179,-1.063607 1.0690781,1.0690781 0 0 1 1.06086,-1.074514 1.0690781,1.0690781 0 0 1 1.07722,1.058113" />
    <path
       style="fill:#2ca02c;fill-opacity:0.992157;stroke:none;stroke-width:1;stroke-miterlimit:4;stroke-dasharray:none;stroke-opacity:1"
       id="path881-41"
       sodipodi:type="arc"
       sodipodi:cx="185.21777"
       sodipodi:cy="18.484571"
       sodipodi:rx="1.0690781"
       sodipodi:ry="1.0690781"
       sodipodi:start="0"
       sodipodi:end="6.2729577"
       sodipodi:open="true"
       sodipodi:arc-type="arc"
       d="m 186.28685,18.484571 a 1.0690781,1.0690781 0 0 1 -1.06634,1.069075 1.0690781,1.0690781 0 0 1 -1.0718,-1.063608 1.0690781,1.0690781 0 0 1 1.06086,-1.074513 1.0690781,1.0690781 0 0 1 1.07723,1.058113" />
    <path
       style="fill:#2ca02c;fill-opacity:0.992157;stroke:none;stroke-width:1;stroke-miterlimit:4;stroke-dasharray:none;stroke-opacity:1"
       id="path881-81"
       sodipodi:type="arc"
       sodipodi:cx="187.48958"
       sodipodi:cy="14.20826"
       sodipodi:rx="1.0690781"
       sodipodi:ry="1.0690781"
       sodipodi:start="0"
       sodipodi:end="6.2729577"
       sodipodi:open="true"
       sodipodi:arc-type="arc"
       d="m 188.55866,14.20826 a 1.0690781,1.0690781 0 0 1 -1.06635,1.069074 1.0690781,1.0690781 0 0 1 -1.0718,-1.063607 1.0690781,1.0690781 0 0 1 1.06087,-1.074514 1.0690781,1.0690781 0 0 1 1.07722,1.058113" />
    <path
       id="path958"
       d="M 2.80633,14.7428 35.968178,33.888803"
       style="fill:none;stroke:#ff7f0e;stroke-width:0.7;stroke-linecap:butt;stroke-linejoin:miter;stroke-miterlimit:4;stroke-dasharray:none;stroke-opacity:1" />
    <path
       sodipodi:nodetypes="cc"
       style="fill:none;stroke:#ff7f0e;stroke-width:0.7;stroke-linecap:butt;stroke-linejoin:miter;stroke-miterlimit:4;stroke-dasharray:none;stroke-opacity:1"
       d="M 44.757432,9.5797463 66.426691,33.536601"
       id="path958-2" />
    <path
       sodipodi:nodetypes="cc"
       style="fill:none;stroke:#ff7f0e;stroke-width:0.7;stroke-linecap:butt;stroke-linejoin:miter;stroke-miterlimit:4;stroke-dasharray:none;stroke-opacity:1"
       d="M 133.22365,28.288613 154.22473,10.551421"
       id="path958-5" />
    <path
       sodipodi:nodetypes="cc"
       style="fill:none;stroke:#ff7f0e;stroke-width:0.7;stroke-linecap:butt;stroke-linejoin:miter;stroke-miterlimit:4;stroke-dasharray:none;stroke-opacity:1"
       d="M 176.66516,33.852572 189.90521,10.016883"
       id="path958-1" />
    <text
       id="text989"
       y="41.031242"
       x="12.146863"
       style="font-style:normal;font-variant:normal;font-weight:normal;font-stretch:normal;font-size:4.9389px;line-height:1.25;font-family:Roboto;-inkscape-font-specification:'Roboto, Normal';font-variant-ligatures:normal;font-variant-caps:normal;font-variant-numeric:normal;font-variant-east-asian:normal;text-align:start;letter-spacing:0px;word-spacing:0px;writing-mode:lr-tb;text-anchor:start;fill:#000000;fill-opacity:1;stroke:none;stroke-width:0.264583"
       xml:space="preserve"><tspan
         style="font-style:normal;font-variant:normal;font-weight:normal;font-stretch:normal;font-size:5.64444px;font-family:Roboto;-inkscape-font-specification:'Roboto, Normal';font-variant-ligatures:normal;font-variant-caps:normal;font-variant-numeric:normal;font-variant-east-asian:normal;stroke-width:0.264583"
         y="41.031242"
         x="12.146863"
         id="tspan987"
         sodipodi:role="line"><tspan
   id="tspan991"
   style="font-style:italic">r</tspan> ≈ -1</tspan></text>
    <text
       xml:space="preserve"
       style="font-style:normal;font-variant:normal;font-weight:normal;font-stretch:normal;font-size:4.9389px;line-height:1.25;font-family:Roboto;-inkscape-font-specification:'Roboto, Normal';font-variant-ligatures:normal;font-variant-caps:normal;font-variant-numeric:normal;font-variant-east-asian:normal;text-align:start;letter-spacing:0px;word-spacing:0px;writing-mode:lr-tb;text-anchor:start;fill:#000000;fill-opacity:1;stroke:none;stroke-width:0.264583"
       x="48.349644"
       y="41.031242"
       id="text1021"><tspan
         sodipodi:role="line"
         id="tspan1019"
         x="48.349644"
         y="41.031242"
         style="font-style:normal;font-variant:normal;font-weight:normal;font-stretch:normal;font-size:5.64444px;font-family:Roboto;-inkscape-font-specification:'Roboto, Normal';font-variant-ligatures:normal;font-variant-caps:normal;font-variant-numeric:normal;font-variant-east-asian:normal;stroke-width:0.264583">-1 &lt; <tspan
   style="font-style:italic"
   id="tspan1017">r</tspan> &lt; 0</tspan></text>
    <text
       id="text1027"
       y="41.031242"
       x="94.288254"
       style="font-style:normal;font-variant:normal;font-weight:normal;font-stretch:normal;font-size:4.9389px;line-height:1.25;font-family:Roboto;-inkscape-font-specification:'Roboto, Normal';font-variant-ligatures:normal;font-variant-caps:normal;font-variant-numeric:normal;font-variant-east-asian:normal;text-align:start;letter-spacing:0px;word-spacing:0px;writing-mode:lr-tb;text-anchor:start;fill:#000000;fill-opacity:1;stroke:none;stroke-width:0.264583"
       xml:space="preserve"><tspan
         style="font-style:normal;font-variant:normal;font-weight:normal;font-stretch:normal;font-size:5.64444px;font-family:Roboto;-inkscape-font-specification:'Roboto, Normal';font-variant-ligatures:normal;font-variant-caps:normal;font-variant-numeric:normal;font-variant-east-asian:normal;stroke-width:0.264583"
         y="41.031242"
         x="94.288254"
         id="tspan1025"
         sodipodi:role="line"><tspan
   id="tspan1045"
   style="font-style:italic">r</tspan> ≈ 0</tspan></text>
    <text
       xml:space="preserve"
       style="font-style:normal;font-variant:normal;font-weight:normal;font-stretch:normal;font-size:4.9389px;line-height:1.25;font-family:Roboto;-inkscape-font-specification:'Roboto, Normal';font-variant-ligatures:normal;font-variant-caps:normal;font-variant-numeric:normal;font-variant-east-asian:normal;text-align:start;letter-spacing:0px;word-spacing:0px;writing-mode:lr-tb;text-anchor:start;fill:#000000;fill-opacity:1;stroke:none;stroke-width:0.264583"
       x="129.62563"
       y="41.031242"
       id="text1033"><tspan
         sodipodi:role="line"
         id="tspan1031"
         x="129.62563"
         y="41.031242"
         style="font-style:normal;font-variant:normal;font-weight:normal;font-stretch:normal;font-size:5.64444px;font-family:Roboto;-inkscape-font-specification:'Roboto, Normal';font-variant-ligatures:normal;font-variant-caps:normal;font-variant-numeric:normal;font-variant-east-asian:normal;stroke-width:0.264583">0 &lt; <tspan
   id="tspan1043"
   style="font-style:italic">r</tspan> &lt; +1</tspan></text>
    <text
       id="text1039"
       y="41.031242"
       x="174.89452"
       style="font-style:normal;font-variant:normal;font-weight:normal;font-stretch:normal;font-size:4.9389px;line-height:1.25;font-family:Roboto;-inkscape-font-specification:'Roboto, Normal';font-variant-ligatures:normal;font-variant-caps:normal;font-variant-numeric:normal;font-variant-east-asian:normal;text-align:start;letter-spacing:0px;word-spacing:0px;writing-mode:lr-tb;text-anchor:start;fill:#000000;fill-opacity:1;stroke:none;stroke-width:0.264583"
       xml:space="preserve"><tspan
         style="font-style:normal;font-variant:normal;font-weight:normal;font-stretch:normal;font-size:5.64444px;font-family:Roboto;-inkscape-font-specification:'Roboto, Normal';font-variant-ligatures:normal;font-variant-caps:normal;font-variant-numeric:normal;font-variant-east-asian:normal;stroke-width:0.264583"
         y="41.031242"
         x="174.89452"
         id="tspan1037"
         sodipodi:role="line"><tspan
   id="tspan1035"
   style="font-style:italic">r</tspan> ≈ +1</tspan></text>
  </g>
</svg>
